SignikaNegative-Regular.ufo
<glyph name="exclam" format="2">
  <advance width="571"/>
  <unicode hex="0021"/>
  <outline>
    <contour>
      <point x="206" y="385" type="curve"/>
      <point x="230" y="377"/>
      <point x="260" y="375"/>
      <point x="282" y="375" type="curve" smooth="yes"/>
      <point x="306" y="375"/>
      <point x="333" y="377"/>
      <point x="357" y="385" type="curve"/>
      <point x="372" y="651"/>
      <point x="392" y="916"/>
      <point x="392" y="1182" type="curve" smooth="yes"/>
      <point x="392" y="1364" type="line"/>
      <point x="337" y="1380"/>
      <point x="227" y="1380"/>
      <point x="172" y="1365" type="curve"/>
      <point x="172" y="1183" type="line" smooth="yes"/>
      <point x="172" y="916"/>
      <point x="192" y="652"/>
    </contour>
    <contour>
      <point x="282" y="212" type="curve" smooth="yes"/>
      <point x="242" y="212"/>
      <point x="199" y="203"/>
      <point x="174" y="188" type="curve"/>
      <point x="164" y="171"/>
      <point x="157" y="124"/>
      <point x="157" y="97" type="curve" smooth="yes"/>
      <point x="157" y="71"/>
      <point x="164" y="25"/>
      <point x="174" y="7" type="curve"/>
      <point x="199" y="-8"/>
      <point x="242" y="-17"/>
      <point x="282" y="-17" type="curve" smooth="yes"/>
      <point x="321" y="-17"/>
      <point x="365" y="-8"/>
      <point x="390" y="7" type="curve"/>
      <point x="401" y="25"/>
      <point x="407" y="71"/>
      <point x="407" y="97" type="curve" smooth="yes"/>
      <point x="407" y="124"/>
      <point x="401" y="171"/>
      <point x="390" y="188" type="curve"/>
      <point x="365" y="203"/>
      <point x="321" y="212"/>
    </contour>
  </outline>
</glyph>
<glyph name="numbersign" format="2">
  <advance width="1273"/>
  <unicode hex="0023"/>
  <outline>
    <contour>
      <point x="202" y="27" type="curve"/>
      <point x="482" y="1275" type="line"/>
      <point x="504" y="1283"/>
      <point x="538" y="1287"/>
      <point x="570" y="1287" type="curve" smooth="yes"/>
      <point x="604" y="1287"/>
      <point x="637" y="1283"/>
      <point x="658" y="1275" type="curve"/>
      <point x="378" y="27" type="line"/>
      <point x="358" y="17"/>
      <point x="324" y="13"/>
      <point x="290" y="13" type="curve" smooth="yes"/>
      <point x="256" y="13"/>
      <point x="222" y="17"/>
    </contour>
    <contour>
      <point x="631" y="27" type="curve"/>
      <point x="911" y="1275" type="line"/>
      <point x="933" y="1283"/>
      <point x="967" y="1287"/>
      <point x="1000" y="1287" type="curve" smooth="yes"/>
      <point x="1033" y="1287"/>
      <point x="1066" y="1283"/>
      <point x="1087" y="1275" type="curve"/>
      <point x="808" y="27" type="line"/>
      <point x="787" y="17"/>
      <point x="753" y="13"/>
      <point x="719" y="13" type="curve" smooth="yes"/>
      <point x="686" y="13"/>
      <point x="651" y="17"/>
    </contour>
    <contour>
      <point x="1125" y="315" type="curve"/>
      <point x="60" y="315" type="line"/>
      <point x="52" y="337"/>
      <point x="48" y="367"/>
      <point x="48" y="396" type="curve" smooth="yes"/>
      <point x="48" y="426"/>
      <point x="52" y="455"/>
      <point x="60" y="477" type="curve"/>
      <point x="1125" y="477" type="line"/>
      <point x="1133" y="455"/>
      <point x="1137" y="426"/>
      <point x="1137" y="396" type="curve" smooth="yes"/>
      <point x="1137" y="367"/>
      <point x="1133" y="337"/>
    </contour>
    <contour>
      <point x="1219" y="825" type="curve"/>
      <point x="153" y="825" type="line"/>
      <point x="145" y="847"/>
      <point x="142" y="876"/>
      <point x="142" y="906" type="curve" smooth="yes"/>
      <point x="142" y="935"/>
      <point x="145" y="965"/>
      <point x="153" y="987" type="curve"/>
      <point x="1219" y="987" type="line"/>
      <point x="1227" y="965"/>
      <point x="1231" y="935"/>
      <point x="1231" y="906" type="curve" smooth="yes"/>
      <point x="1231" y="876"/>
      <point x="1227" y="847"/>
    </contour>
  </outline>
</glyph>
<glyph name="dollar" format="2">
  <advance width="1080"/>
  <unicode hex="0024"/>
  <outline>
    <contour>
      <point x="526" y="56" type="curve" smooth="yes"/>
      <point x="773" y="56"/>
      <point x="931" y="190"/>
      <point x="931" y="376" type="curve" smooth="yes"/>
      <point x="931" y="544"/>
      <point x="832" y="646"/>
      <point x="676" y="703" type="curve" smooth="yes"/>
      <point x="490" y="770" type="line" smooth="yes"/>
      <point x="406" y="800"/>
      <point x="348" y="833"/>
      <point x="348" y="914" type="curve" smooth="yes"/>
      <point x="348" y="1000"/>
      <point x="422" y="1054"/>
      <point x="536" y="1054" type="curve" smooth="yes"/>
      <point x="633" y="1054"/>
      <point x="733" y="1022"/>
      <point x="825" y="972" type="curve"/>
      <point x="865" y="1008"/>
      <point x="894" y="1071"/>
      <point x="894" y="1125" type="curve"/>
      <point x="800" y="1175"/>
      <point x="671" y="1217"/>
      <point x="524" y="1217" type="curve" smooth="yes"/>
      <point x="298" y="1217"/>
      <point x="150" y="1077"/>
      <point x="150" y="893" type="curve" smooth="yes"/>
      <point x="150" y="751"/>
      <point x="239" y="658"/>
      <point x="384" y="606" type="curve" smooth="yes"/>
      <point x="582" y="537" type="line" smooth="yes"/>
      <point x="684" y="501"/>
      <point x="730" y="442"/>
      <point x="729" y="364" type="curve" smooth="yes"/>
      <point x="728" y="270"/>
      <point x="641" y="218"/>
      <point x="524" y="218" type="curve" smooth="yes"/>
      <point x="406" y="219"/>
      <point x="280" y="272"/>
      <point x="189" y="332" type="curve"/>
      <point x="150" y="306"/>
      <point x="112" y="234"/>
      <point x="111" y="180" type="curve"/>
      <point x="197" y="120"/>
      <point x="359" y="56"/>
    </contour>
    <contour>
      <point x="514" y="-124" type="curve" smooth="yes"/>
      <point x="542" y="-124"/>
      <point x="573" y="-122"/>
      <point x="592" y="-117" type="curve"/>
      <point x="592" y="107" type="line"/>
      <point x="434" y="107" type="line"/>
      <point x="434" y="-117" type="line"/>
      <point x="454" y="-122"/>
      <point x="484" y="-124"/>
    </contour>
    <contour>
      <point x="454" y="1158" type="line"/>
      <point x="612" y="1158" type="line"/>
      <point x="612" y="1389" type="line"/>
      <point x="591" y="1395"/>
      <point x="561" y="1397"/>
      <point x="533" y="1397" type="curve" smooth="yes"/>
      <point x="507" y="1397"/>
      <point x="476" y="1395"/>
      <point x="454" y="1389" type="curve"/>
    </contour>
  </outline>
</glyph>
<glyph name="percent" format="2">
  <advance width="1794"/>
  <unicode hex="0025"/>
  <outline>
    <contour>
      <point x="1698" y="384" type="curve" smooth="yes"/>
      <point x="1698" y="623"/>
      <point x="1611" y="790"/>
      <point x="1385" y="790" type="curve" smooth="yes"/>
      <point x="1162" y="790"/>
      <point x="1074" y="624"/>
      <point x="1074" y="384" type="curve" smooth="yes"/>
      <point x="1074" y="145"/>
      <point x="1159" y="-25"/>
      <point x="1385" y="-25" type="curve" smooth="yes"/>
      <point x="1609" y="-25"/>
      <point x="1698" y="141"/>
    </contour>
    <contour>
      <point x="1242" y="384" type="curve" smooth="yes"/>
      <point x="1242" y="528"/>
      <point x="1268" y="660"/>
      <point x="1386" y="660" type="curve" smooth="yes"/>
      <point x="1503" y="660"/>
      <point x="1529" y="528"/>
      <point x="1529" y="384" type="curve" smooth="yes"/>
      <point x="1529" y="238"/>
      <point x="1503" y="105"/>
      <point x="1386" y="105" type="curve" smooth="yes"/>
      <point x="1268" y="105"/>
      <point x="1242" y="238"/>
    </contour>
    <contour>
      <point x="722" y="884" type="curve" smooth="yes"/>
      <point x="722" y="1124"/>
      <point x="635" y="1290"/>
      <point x="409" y="1290" type="curve" smooth="yes"/>
      <point x="186" y="1290"/>
      <point x="98" y="1125"/>
      <point x="98" y="884" type="curve" smooth="yes"/>
      <point x="98" y="645"/>
      <point x="183" y="476"/>
      <point x="409" y="476" type="curve" smooth="yes"/>
      <point x="633" y="476"/>
      <point x="722" y="641"/>
    </contour>
    <contour>
      <point x="266" y="884" type="curve" smooth="yes"/>
      <point x="266" y="1028"/>
      <point x="292" y="1160"/>
      <point x="410" y="1160" type="curve" smooth="yes"/>
      <point x="527" y="1160"/>
      <point x="553" y="1028"/>
      <point x="553" y="884" type="curve" smooth="yes"/>
      <point x="553" y="739"/>
      <point x="527" y="606"/>
      <point x="410" y="606" type="curve" smooth="yes"/>
      <point x="292" y="606"/>
      <point x="266" y="739"/>
    </contour>
    <component base="fraction" xOffset="708"/>
  </outline>
</glyph>
<glyph name="ampersand" format="2">
  <advance width="1237"/>
  <unicode hex="0026"/>
  <outline>
    <contour>
      <point x="986" y="809" type="curve" smooth="yes"/>
      <point x="620" y="809" type="line" smooth="yes"/>
      <point x="445" y="809"/>
      <point x="367" y="895"/>
      <point x="367" y="1023" type="curve" smooth="yes"/>
      <point x="367" y="1144"/>
      <point x="449" y="1231"/>
      <point x="591" y="1231" type="curve" smooth="yes"/>
      <point x="701" y="1231"/>
      <point x="795" y="1206"/>
      <point x="884" y="1179" type="curve" smooth="yes"/>
      <point x="918" y="1216"/>
      <point x="938" y="1281"/>
      <point x="937" y="1334" type="curve"/>
      <point x="847" y="1366"/>
      <point x="710" y="1392"/>
      <point x="577" y="1392" type="curve" smooth="yes"/>
      <point x="312" y="1392"/>
      <point x="160" y="1233"/>
      <point x="160" y="1036" type="curve" smooth="yes"/>
      <point x="160" y="862"/>
      <point x="292" y="722"/>
      <point x="450" y="716" type="curve"/>
      <point x="450" y="745" type="line"/>
      <point x="280" y="743"/>
      <point x="103" y="581"/>
      <point x="103" y="359" type="curve" smooth="yes"/>
      <point x="103" y="140"/>
      <point x="235" y="-26"/>
      <point x="485" y="-26" type="curve" smooth="yes"/>
      <point x="602" y="-26"/>
      <point x="718" y="16"/>
      <point x="806" y="80" type="curve"/>
      <point x="821" y="-1" type="line"/>
      <point x="845" y="-7"/>
      <point x="877" y="-10"/>
      <point x="913" y="-10" type="curve" smooth="yes"/>
      <point x="949" y="-10"/>
      <point x="981" y="-7"/>
      <point x="1004" y="0" type="curve"/>
      <point x="996" y="90"/>
      <point x="992" y="208"/>
      <point x="992" y="301" type="curve" smooth="yes"/>
      <point x="992" y="516" type="line" smooth="yes"/>
      <point x="992" y="569"/>
      <point x="990" y="664"/>
      <point x="986" y="729" type="curve"/>
      <point x="805" y="729" type="line"/>
      <point x="801" y="664"/>
      <point x="799" y="571"/>
      <point x="799" y="514" type="curve" smooth="yes"/>
      <point x="799" y="229" type="line"/>
      <point x="740" y="180"/>
      <point x="639" y="134"/>
      <point x="529" y="134" type="curve" smooth="yes"/>
      <point x="395" y="134"/>
      <point x="310" y="220"/>
      <point x="310" y="369" type="curve" smooth="yes"/>
      <point x="310" y="500"/>
      <point x="391" y="640"/>
      <point x="601" y="640" type="curve" smooth="yes"/>
      <point x="1055" y="640" type="line" smooth="yes"/>
      <point x="1139" y="640"/>
      <point x="1200" y="665"/>
      <point x="1200" y="745" type="curve" smooth="yes"/>
      <point x="1200" y="778"/>
      <point x="1191" y="817"/>
      <point x="1174" y="839" type="curve"/>
      <point x="1130" y="818"/>
      <point x="1057" y="809"/>
    </contour>
  </outline>
</glyph>
<glyph name="quotesingle" format="2">
  <advance width="414"/>
  <unicode hex="0027"/>
  <outline>
    <contour>
      <point x="92" y="1403" type="curve" smooth="yes"/>
      <point x="92" y="1370"/>
      <point x="118" y="1180"/>
      <point x="150" y="984" type="curve"/>
      <point x="175" y="971"/>
      <point x="227" y="971"/>
      <point x="249" y="984" type="curve"/>
      <point x="281" y="1179"/>
      <point x="307" y="1370"/>
      <point x="307" y="1403" type="curve" smooth="yes"/>
      <point x="307" y="1434"/>
      <point x="303" y="1465"/>
      <point x="296" y="1496" type="curve"/>
      <point x="273" y="1510"/>
      <point x="237" y="1521"/>
      <point x="199" y="1521" type="curve" smooth="yes"/>
      <point x="159" y="1521"/>
      <point x="127" y="1510"/>
      <point x="103" y="1496" type="curve"/>
      <point x="95" y="1465"/>
      <point x="92" y="1434"/>
    </contour>
  </outline>
</glyph>
<glyph name="parenleft" format="2">
  <advance width="653"/>
  <unicode hex="0028"/>
  <outline>
    <contour>
      <point x="335" y="550" type="curve" smooth="yes"/>
      <point x="335" y="863"/>
      <point x="423" y="1191"/>
      <point x="623" y="1448" type="curve"/>
      <point x="597" y="1506"/>
      <point x="553" y="1540"/>
      <point x="506" y="1555" type="curve"/>
      <point x="260" y="1313"/>
      <point x="126" y="900"/>
      <point x="126" y="550" type="curve" smooth="yes"/>
      <point x="126" y="199"/>
      <point x="260" y="-214"/>
      <point x="506" y="-455" type="curve"/>
      <point x="553" y="-441"/>
      <point x="597" y="-407"/>
      <point x="623" y="-349" type="curve"/>
      <point x="423" y="-92"/>
      <point x="335" y="237"/>
    </contour>
  </outline>
</glyph>
<glyph name="parenright" format="2">
  <advance width="653"/>
  <unicode hex="0029"/>
  <outline>
    <contour>
      <point x="317" y="550" type="curve" smooth="yes"/>
      <point x="317" y="863"/>
      <point x="230" y="1191"/>
      <point x="30" y="1448" type="curve"/>
      <point x="56" y="1506"/>
      <point x="100" y="1540"/>
      <point x="147" y="1555" type="curve"/>
      <point x="393" y="1313"/>
      <point x="527" y="900"/>
      <point x="527" y="550" type="curve" smooth="yes"/>
      <point x="527" y="199"/>
      <point x="393" y="-214"/>
      <point x="147" y="-455" type="curve"/>
      <point x="100" y="-441"/>
      <point x="56" y="-407"/>
      <point x="30" y="-349" type="curve"/>
      <point x="230" y="-92"/>
      <point x="317" y="237"/>
    </contour>
  </outline>
</glyph>
<glyph name="asterisk" format="2">
  <advance width="1005"/>
  <unicode hex="002A"/>
  <outline>
    <contour>
      <point x="416" y="1461" type="curve"/>
      <point x="417" y="1352" type="line" smooth="yes"/>
      <point x="417" y="1261"/>
      <point x="445" y="1160"/>
      <point x="464" y="1079" type="curve"/>
      <point x="476" y="1064"/>
      <point x="490" y="1057"/>
      <point x="502" y="1057" type="curve" smooth="yes"/>
      <point x="514" y="1057"/>
      <point x="528" y="1065"/>
      <point x="540" y="1079" type="curve"/>
      <point x="558" y="1160"/>
      <point x="587" y="1261"/>
      <point x="587" y="1352" type="curve" smooth="yes"/>
      <point x="588" y="1461" type="line"/>
      <point x="545" y="1480"/>
      <point x="457" y="1480"/>
    </contour>
    <contour>
      <point x="91" y="1101" type="curve"/>
      <point x="195" y="1068" type="line" smooth="yes"/>
      <point x="283" y="1039"/>
      <point x="387" y="1035"/>
      <point x="469" y="1029" type="curve"/>
      <point x="488" y="1034"/>
      <point x="498" y="1045"/>
      <point x="502" y="1057" type="curve" smooth="yes"/>
      <point x="507" y="1070"/>
      <point x="503" y="1085"/>
      <point x="493" y="1101" type="curve"/>
      <point x="422" y="1141"/>
      <point x="335" y="1201"/>
      <point x="248" y="1230" type="curve" smooth="yes"/>
      <point x="146" y="1264" type="line"/>
      <point x="114" y="1228"/>
      <point x="87" y="1145"/>
    </contour>
    <contour>
      <point x="334" y="681" type="curve"/>
      <point x="397" y="769" type="line" smooth="yes"/>
      <point x="452" y="843"/>
      <point x="488" y="940"/>
      <point x="520" y="1018" type="curve"/>
      <point x="520" y="1036"/>
      <point x="512" y="1049"/>
      <point x="502" y="1057" type="curve" smooth="yes"/>
      <point x="492" y="1065"/>
      <point x="477" y="1067"/>
      <point x="457" y="1062" type="curve"/>
      <point x="397" y="1008"/>
      <point x="313" y="942"/>
      <point x="259" y="868" type="curve" smooth="yes"/>
      <point x="195" y="782" type="line"/>
      <point x="220" y="740"/>
      <point x="290" y="691"/>
    </contour>
    <contour>
      <point x="808" y="780" type="curve"/>
      <point x="745" y="868" type="line" smooth="yes"/>
      <point x="691" y="942"/>
      <point x="609" y="1008"/>
      <point x="546" y="1062" type="curve"/>
      <point x="528" y="1068"/>
      <point x="512" y="1065"/>
      <point x="502" y="1057" type="curve" smooth="yes"/>
      <point x="492" y="1049"/>
      <point x="485" y="1036"/>
      <point x="485" y="1017" type="curve"/>
      <point x="517" y="941"/>
      <point x="552" y="843"/>
      <point x="607" y="768" type="curve" smooth="yes"/>
      <point x="669" y="680" type="line"/>
      <point x="718" y="691"/>
      <point x="786" y="742"/>
    </contour>
    <contour>
      <point x="860" y="1262" type="curve"/>
      <point x="756" y="1229" type="line" smooth="yes"/>
      <point x="670" y="1201"/>
      <point x="582" y="1145"/>
      <point x="511" y="1099" type="curve"/>
      <point x="500" y="1085"/>
      <point x="498" y="1070"/>
      <point x="502" y="1057" type="curve" smooth="yes"/>
      <point x="507" y="1045"/>
      <point x="516" y="1035"/>
      <point x="537" y="1029" type="curve"/>
      <point x="617" y="1036"/>
      <point x="722" y="1040"/>
      <point x="809" y="1067" type="curve" smooth="yes"/>
      <point x="914" y="1100" type="line"/>
      <point x="918" y="1149"/>
      <point x="889" y="1231"/>
    </contour>
  </outline>
</glyph>
<glyph name="plus" format="2">
  <advance width="1080"/>
  <unicode hex="002B"/>
  <outline>
    <contour>
      <point x="124" y="710" type="curve"/>
      <point x="360" y="710" type="line" smooth="yes"/>
      <point x="390" y="710"/>
      <point x="430" y="708"/>
      <point x="460" y="708" type="curve" smooth="yes"/>
      <point x="620" y="708" type="line" smooth="yes"/>
      <point x="650" y="708"/>
      <point x="690" y="710"/>
      <point x="720" y="710" type="curve" smooth="yes"/>
      <point x="956" y="710" type="line"/>
      <point x="962" y="682"/>
      <point x="964" y="659"/>
      <point x="964" y="626" type="curve" smooth="yes"/>
      <point x="964" y="594"/>
      <point x="962" y="566"/>
      <point x="956" y="541" type="curve"/>
      <point x="720" y="541" type="line" smooth="yes"/>
      <point x="690" y="541"/>
      <point x="650" y="543"/>
      <point x="620" y="543" type="curve" smooth="yes"/>
      <point x="460" y="543" type="line" smooth="yes"/>
      <point x="430" y="543"/>
      <point x="390" y="541"/>
      <point x="360" y="541" type="curve" smooth="yes"/>
      <point x="124" y="541" type="line"/>
      <point x="118" y="566"/>
      <point x="116" y="594"/>
      <point x="116" y="626" type="curve" smooth="yes"/>
      <point x="116" y="659"/>
      <point x="118" y="684"/>
    </contour>
    <contour>
      <point x="450" y="801" type="curve" smooth="yes"/>
      <point x="450" y="1057" type="line"/>
      <point x="478" y="1063"/>
      <point x="507" y="1065"/>
      <point x="540" y="1065" type="curve" smooth="yes"/>
      <point x="572" y="1065"/>
      <point x="603" y="1063"/>
      <point x="630" y="1057" type="curve"/>
      <point x="630" y="801" type="line" smooth="yes"/>
      <point x="630" y="771"/>
      <point x="628" y="731"/>
      <point x="628" y="701" type="curve" smooth="yes"/>
      <point x="628" y="551" type="line" smooth="yes"/>
      <point x="628" y="521"/>
      <point x="630" y="482"/>
      <point x="630" y="451" type="curve" smooth="yes"/>
      <point x="630" y="195" type="line"/>
      <point x="603" y="189"/>
      <point x="573" y="187"/>
      <point x="541" y="187" type="curve" smooth="yes"/>
      <point x="508" y="187"/>
      <point x="478" y="189"/>
      <point x="450" y="195" type="curve"/>
      <point x="450" y="451" type="line" smooth="yes"/>
      <point x="450" y="482"/>
      <point x="452" y="521"/>
      <point x="452" y="551" type="curve" smooth="yes"/>
      <point x="452" y="701" type="line" smooth="yes"/>
      <point x="452" y="731"/>
      <point x="450" y="771"/>
    </contour>
  </outline>
</glyph>
<glyph name="comma" format="2">
  <advance width="531"/>
  <unicode hex="002C"/>
  <outline>
    <contour>
      <point x="387" y="202" type="curve"/>
      <point x="365" y="217"/>
      <point x="310" y="228"/>
      <point x="272" y="228" type="curve" smooth="yes"/>
      <point x="232" y="228"/>
      <point x="176" y="215"/>
      <point x="153" y="202" type="curve"/>
      <point x="142" y="185"/>
      <point x="135" y="136"/>
      <point x="135" y="103" type="curve" smooth="yes"/>
      <point x="135" y="70"/>
      <point x="144" y="28"/>
      <point x="153" y="10" type="curve"/>
      <point x="171" y="-3"/>
      <point x="207" y="-13"/>
      <point x="233" y="-17" type="curve"/>
      <point x="228" y="-104"/>
      <point x="161" y="-178"/>
      <point x="70" y="-219" type="curve"/>
      <point x="67" y="-256"/>
      <point x="86" y="-300"/>
      <point x="121" y="-318" type="curve"/>
      <point x="313" y="-251"/>
      <point x="409" y="-92"/>
      <point x="409" y="73" type="curve" smooth="yes"/>
      <point x="409" y="120"/>
      <point x="401" y="169"/>
    </contour>
  </outline>
</glyph>
<glyph name="hyphen" format="2">
  <advance width="693"/>
  <unicode hex="002D"/>
  <outline>
    <contour>
      <point x="103" y="448" type="curve"/>
      <point x="591" y="448" type="line"/>
      <point x="597" y="474"/>
      <point x="599" y="505"/>
      <point x="599" y="531" type="curve" smooth="yes"/>
      <point x="599" y="559"/>
      <point x="597" y="591"/>
      <point x="591" y="618" type="curve"/>
      <point x="103" y="618" type="line"/>
      <point x="96" y="591"/>
      <point x="94" y="559"/>
      <point x="94" y="531" type="curve" smooth="yes"/>
      <point x="94" y="505"/>
      <point x="96" y="474"/>
    </contour>
  </outline>
</glyph>
<glyph name="period" format="2">
  <advance width="520"/>
  <unicode hex="002E"/>
  <outline>
    <contour>
      <point x="124" y="106" type="curve" smooth="yes"/>
      <point x="124" y="82"/>
      <point x="130" y="31"/>
      <point x="142" y="9" type="curve"/>
      <point x="167" y="-6"/>
      <point x="219" y="-16"/>
      <point x="260" y="-16" type="curve" smooth="yes"/>
      <point x="299" y="-16"/>
      <point x="356" y="-6"/>
      <point x="378" y="9" type="curve"/>
      <point x="391" y="31"/>
      <point x="397" y="82"/>
      <point x="397" y="106" type="curve" smooth="yes"/>
      <point x="397" y="130"/>
      <point x="391" y="181"/>
      <point x="378" y="203" type="curve"/>
      <point x="355" y="217"/>
      <point x="299" y="228"/>
      <point x="260" y="228" type="curve" smooth="yes"/>
      <point x="219" y="228"/>
      <point x="167" y="217"/>
      <point x="142" y="203" type="curve"/>
      <point x="130" y="181"/>
      <point x="124" y="130"/>
    </contour>
  </outline>
</glyph>
<glyph name="slash" format="2">
  <advance width="838"/>
  <unicode hex="002F"/>
  <outline>
    <contour>
      <point x="648" y="1421" type="curve"/>
      <point x="16" y="-256" type="line"/>
      <point x="64" y="-294"/>
      <point x="128" y="-316"/>
      <point x="184" y="-319" type="curve"/>
      <point x="817" y="1358" type="line"/>
      <point x="769" y="1394"/>
      <point x="703" y="1416"/>
    </contour>
  </outline>
</glyph>
<glyph name="zero" format="2">
  <advance width="1080"/>
  <unicode hex="0030"/>
  <outline>
    <contour>
      <point x="106" y="633" type="curve" smooth="yes"/>
      <point x="106" y="384"/>
      <point x="132" y="212"/>
      <point x="253" y="86" type="curve" smooth="yes"/>
      <point x="322" y="18"/>
      <point x="405" y="-26"/>
      <point x="540" y="-26" type="curve" smooth="yes"/>
      <point x="675" y="-26"/>
      <point x="758" y="18"/>
      <point x="827" y="86" type="curve" smooth="yes"/>
      <point x="948" y="212"/>
      <point x="974" y="384"/>
      <point x="974" y="633" type="curve" smooth="yes"/>
      <point x="974" y="881"/>
      <point x="948" y="1054"/>
      <point x="827" y="1180" type="curve" smooth="yes"/>
      <point x="758" y="1248"/>
      <point x="677" y="1292"/>
      <point x="541" y="1292" type="curve" smooth="yes"/>
      <point x="405" y="1292"/>
      <point x="321" y="1248"/>
      <point x="253" y="1180" type="curve" smooth="yes"/>
      <point x="130" y="1054"/>
      <point x="106" y="881"/>
    </contour>
    <contour>
      <point x="311" y="633" type="curve" smooth="yes"/>
      <point x="311" y="863"/>
      <point x="333" y="994"/>
      <point x="392" y="1068" type="curve" smooth="yes"/>
      <point x="426" y="1114"/>
      <point x="476" y="1137"/>
      <point x="540" y="1137" type="curve" smooth="yes"/>
      <point x="605" y="1137"/>
      <point x="654" y="1114"/>
      <point x="688" y="1068" type="curve" smooth="yes"/>
      <point x="747" y="994"/>
      <point x="769" y="863"/>
      <point x="769" y="633" type="curve" smooth="yes"/>
      <point x="769" y="404"/>
      <point x="747" y="272"/>
      <point x="688" y="198" type="curve" smooth="yes"/>
      <point x="655" y="152"/>
      <point x="605" y="129"/>
      <point x="540" y="129" type="curve" smooth="yes"/>
      <point x="476" y="129"/>
      <point x="426" y="152"/>
      <point x="392" y="198" type="curve" smooth="yes"/>
      <point x="332" y="272"/>
      <point x="311" y="404"/>
    </contour>
  </outline>
</glyph>
<glyph name="one" format="2">
  <advance width="1080"/>
  <unicode hex="0031"/>
  <outline>
    <contour>
      <point x="692" y="294" type="curve" smooth="yes"/>
      <point x="692" y="1266" type="line"/>
      <point x="658" y="1273"/>
      <point x="628" y="1275"/>
      <point x="600" y="1275" type="curve" smooth="yes"/>
      <point x="573" y="1275"/>
      <point x="540" y="1273"/>
      <point x="507" y="1266" type="curve"/>
      <point x="511" y="1058" type="line" smooth="yes"/>
      <point x="512" y="986"/>
      <point x="500" y="810"/>
      <point x="500" y="743" type="curve" smooth="yes"/>
      <point x="500" y="294" type="line" smooth="yes"/>
      <point x="500" y="240"/>
      <point x="502" y="196"/>
      <point x="502" y="140" type="curve" smooth="yes"/>
      <point x="502" y="78" type="line"/>
      <point x="690" y="78" type="line"/>
      <point x="690" y="140" type="line" smooth="yes"/>
      <point x="690" y="196"/>
      <point x="692" y="240"/>
    </contour>
    <contour>
      <point x="389" y="163" type="curve" smooth="yes"/>
      <point x="204" y="163" type="line"/>
      <point x="198" y="137"/>
      <point x="195" y="109"/>
      <point x="195" y="82" type="curve" smooth="yes"/>
      <point x="195" y="55"/>
      <point x="198" y="28"/>
      <point x="204" y="0" type="curve"/>
      <point x="946" y="0" type="line"/>
      <point x="952" y="27"/>
      <point x="955" y="55"/>
      <point x="955" y="82" type="curve" smooth="yes"/>
      <point x="955" y="109"/>
      <point x="952" y="137"/>
      <point x="946" y="163" type="curve"/>
      <point x="805" y="163" type="line" smooth="yes"/>
      <point x="780" y="163"/>
      <point x="713" y="161"/>
      <point x="686" y="161" type="curve" smooth="yes"/>
      <point x="506" y="161" type="line" smooth="yes"/>
      <point x="479" y="161"/>
      <point x="416" y="163"/>
    </contour>
    <contour>
      <point x="135" y="885" type="curve"/>
      <point x="145" y="835"/>
      <point x="177" y="792"/>
      <point x="218" y="768" type="curve"/>
      <point x="364" y="832"/>
      <point x="529" y="965"/>
      <point x="580" y="1109" type="curve"/>
      <point x="507" y="1266" type="line"/>
      <point x="455" y="1147"/>
      <point x="329" y="1004"/>
    </contour>
  </outline>
</glyph>
<glyph name="two" format="2">
  <advance width="1080"/>
  <unicode hex="0032"/>
  <outline>
    <contour>
      <point x="137" y="1006" type="curve"/>
      <point x="162" y="963"/>
      <point x="228" y="941"/>
      <point x="276" y="938" type="curve"/>
      <point x="322" y="1046"/>
      <point x="410" y="1131"/>
      <point x="522" y="1131" type="curve" smooth="yes"/>
      <point x="639" y="1131"/>
      <point x="723" y="1051"/>
      <point x="723" y="925" type="curve" smooth="yes"/>
      <point x="723" y="816"/>
      <point x="665" y="742"/>
      <point x="567" y="660" type="curve" smooth="yes"/>
      <point x="374" y="497" type="line" smooth="yes"/>
      <point x="243" y="385"/>
      <point x="121" y="248"/>
      <point x="121" y="134" type="curve" smooth="yes"/>
      <point x="121" y="80"/>
      <point x="161" y="40"/>
      <point x="201" y="-1" type="curve"/>
      <point x="313" y="-1" type="line"/>
      <point x="317" y="141" type="line" smooth="yes"/>
      <point x="317" y="193"/>
      <point x="400" y="285"/>
      <point x="519" y="385" type="curve" smooth="yes"/>
      <point x="674" y="514" type="line" smooth="yes"/>
      <point x="804" y="625"/>
      <point x="925" y="727"/>
      <point x="925" y="923" type="curve" smooth="yes"/>
      <point x="925" y="1139"/>
      <point x="776" y="1292"/>
      <point x="539" y="1292" type="curve" smooth="yes"/>
      <point x="337" y="1292"/>
      <point x="194" y="1158"/>
    </contour>
    <contour>
      <point x="956" y="171" type="curve"/>
      <point x="578" y="171" type="line" smooth="yes"/>
      <point x="479" y="171"/>
      <point x="272" y="162"/>
      <point x="157" y="129" type="curve"/>
      <point x="214" y="-1" type="line"/>
      <point x="825" y="-1" type="line" smooth="yes"/>
      <point x="920" y="-1"/>
      <point x="956" y="37"/>
    </contour>
  </outline>
</glyph>
<glyph name="three" format="2">
  <advance width="1080"/>
  <unicode hex="0033"/>
  <outline>
    <contour>
      <point x="752" y="404" type="curve" smooth="yes"/>
      <point x="752" y="226"/>
      <point x="633" y="134"/>
      <point x="480" y="134" type="curve" smooth="yes"/>
      <point x="369" y="134"/>
      <point x="276" y="177"/>
      <point x="196" y="236" type="curve"/>
      <point x="156" y="205"/>
      <point x="120" y="150"/>
      <point x="110" y="104" type="curve"/>
      <point x="198" y="30"/>
      <point x="336" y="-26"/>
      <point x="505" y="-26" type="curve" smooth="yes"/>
      <point x="725" y="-26"/>
      <point x="955" y="111"/>
      <point x="955" y="396" type="curve" smooth="yes"/>
      <point x="955" y="650"/>
      <point x="777" y="765"/>
      <point x="571" y="765" type="curve" smooth="yes"/>
      <point x="468" y="765"/>
      <point x="373" y="740"/>
      <point x="301" y="703" type="curve"/>
      <point x="311" y="661"/>
      <point x="345" y="617"/>
      <point x="381" y="598" type="curve"/>
      <point x="421" y="620"/>
      <point x="476" y="632"/>
      <point x="521" y="632" type="curve" smooth="yes"/>
      <point x="663" y="632"/>
      <point x="752" y="549"/>
    </contour>
    <contour>
      <point x="651" y="830" type="curve" smooth="yes"/>
      <point x="868" y="1053" type="line" smooth="yes"/>
      <point x="898" y="1084"/>
      <point x="909" y="1112"/>
      <point x="909" y="1141" type="curve" smooth="yes"/>
      <point x="909" y="1167"/>
      <point x="896" y="1209"/>
      <point x="866" y="1266" type="curve"/>
      <point x="171" y="1266" type="line"/>
      <point x="158" y="1232"/>
      <point x="154" y="1199"/>
      <point x="154" y="1168" type="curve" smooth="yes"/>
      <point x="154" y="1150"/>
      <point x="156" y="1123"/>
      <point x="165" y="1097" type="curve"/>
      <point x="453" y="1097" type="line" smooth="yes"/>
      <point x="537" y="1097"/>
      <point x="642" y="1103"/>
      <point x="689" y="1114" type="curve"/>
      <point x="695" y="1106" type="line"/>
      <point x="661" y="1076"/>
      <point x="589" y="1005"/>
      <point x="559" y="974" type="curve" smooth="yes"/>
      <point x="301" y="703" type="line"/>
      <point x="416" y="665" type="line"/>
      <point x="479" y="695"/>
      <point x="585" y="763"/>
    </contour>
  </outline>
</glyph>
<glyph name="four" format="2">
  <advance width="1080"/>
  <unicode hex="0034"/>
  <outline>
    <contour>
      <point x="136" y="280" type="curve"/>
      <point x="506" y="280" type="line" smooth="yes"/>
      <point x="536" y="280"/>
      <point x="578" y="283"/>
      <point x="608" y="283" type="curve" smooth="yes"/>
      <point x="793" y="283" type="line" smooth="yes"/>
      <point x="823" y="283"/>
      <point x="853" y="282"/>
      <point x="883" y="282" type="curve" smooth="yes"/>
      <point x="988" y="282" type="line"/>
      <point x="998" y="312"/>
      <point x="1001" y="348"/>
      <point x="1001" y="372" type="curve" smooth="yes"/>
      <point x="1001" y="394"/>
      <point x="1000" y="420"/>
      <point x="996" y="447" type="curve"/>
      <point x="883" y="447" type="line" smooth="yes"/>
      <point x="853" y="447"/>
      <point x="823" y="445"/>
      <point x="793" y="445" type="curve" smooth="yes"/>
      <point x="511" y="445" type="line" smooth="yes"/>
      <point x="468" y="445"/>
      <point x="363" y="443"/>
      <point x="287" y="437" type="curve"/>
      <point x="282" y="444" type="line"/>
      <point x="322" y="510"/>
      <point x="379" y="633"/>
      <point x="413" y="712" type="curve" smooth="yes"/>
      <point x="657" y="1242" type="line"/>
      <point x="620" y="1273"/>
      <point x="529" y="1290"/>
      <point x="475" y="1278" type="curve"/>
      <point x="132" y="522" type="line" smooth="yes"/>
      <point x="109" y="470"/>
      <point x="91" y="428"/>
      <point x="91" y="399" type="curve" smooth="yes"/>
      <point x="91" y="362"/>
      <point x="109" y="320"/>
    </contour>
    <contour>
      <point x="606" y="181" type="curve" smooth="yes"/>
      <point x="606" y="0" type="line"/>
      <point x="635" y="-6"/>
      <point x="668" y="-8"/>
      <point x="700" y="-8" type="curve" smooth="yes"/>
      <point x="733" y="-8"/>
      <point x="764" y="-6"/>
      <point x="795" y="0" type="curve"/>
      <point x="795" y="181" type="line" smooth="yes"/>
      <point x="795" y="212"/>
      <point x="793" y="253"/>
      <point x="793" y="283" type="curve" smooth="yes"/>
      <point x="793" y="445" type="line" smooth="yes"/>
      <point x="793" y="475"/>
      <point x="795" y="516"/>
      <point x="795" y="546" type="curve" smooth="yes"/>
      <point x="795" y="820" type="line"/>
      <point x="787" y="828" type="line"/>
      <point x="733" y="828" type="line" smooth="yes"/>
      <point x="655" y="828"/>
      <point x="606" y="774"/>
      <point x="606" y="681" type="curve" smooth="yes"/>
      <point x="606" y="513" type="line" smooth="yes"/>
      <point x="606" y="494"/>
      <point x="608" y="447"/>
      <point x="608" y="429" type="curve" smooth="yes"/>
      <point x="608" y="283" type="line" smooth="yes"/>
      <point x="608" y="253"/>
      <point x="606" y="212"/>
    </contour>
  </outline>
</glyph>
<glyph name="five" format="2">
  <advance width="1080"/>
  <unicode hex="0035"/>
  <outline>
    <contour>
      <point x="371" y="856" type="curve" smooth="yes"/>
      <point x="379" y="993" type="line" smooth="yes"/>
      <point x="381" y="1045"/>
      <point x="380" y="1170"/>
      <point x="373" y="1226" type="curve"/>
      <point x="200" y="1253" type="line"/>
      <point x="171" y="660" type="line"/>
      <point x="242" y="668"/>
      <point x="296" y="677"/>
      <point x="345" y="695" type="curve"/>
      <point x="359" y="745"/>
      <point x="368" y="803"/>
    </contour>
    <contour>
      <point x="126" y="100" type="curve"/>
      <point x="211" y="29"/>
      <point x="341" y="-26"/>
      <point x="499" y="-26" type="curve" smooth="yes"/>
      <point x="726" y="-26"/>
      <point x="953" y="118"/>
      <point x="953" y="436" type="curve" smooth="yes"/>
      <point x="953" y="689"/>
      <point x="791" y="841"/>
      <point x="549" y="841" type="curve" smooth="yes"/>
      <point x="389" y="841"/>
      <point x="248" y="750"/>
      <point x="171" y="660" type="curve"/>
      <point x="189" y="632"/>
      <point x="230" y="601"/>
      <point x="266" y="594" type="curve"/>
      <point x="335" y="654"/>
      <point x="419" y="685"/>
      <point x="499" y="685" type="curve" smooth="yes"/>
      <point x="614" y="685"/>
      <point x="749" y="627"/>
      <point x="749" y="425" type="curve" smooth="yes"/>
      <point x="749" y="224"/>
      <point x="623" y="135"/>
      <point x="487" y="135" type="curve" smooth="yes"/>
      <point x="377" y="135"/>
      <point x="291" y="175"/>
      <point x="210" y="231" type="curve"/>
      <point x="170" y="202"/>
      <point x="134" y="142"/>
    </contour>
    <contour>
      <point x="885" y="1266" type="curve"/>
      <point x="213" y="1266" type="line"/>
      <point x="200" y="1253" type="line"/>
      <point x="206" y="1109" type="line"/>
      <point x="252" y="1105"/>
      <point x="360" y="1098"/>
      <point x="463" y="1098" type="curve" smooth="yes"/>
      <point x="811" y="1098" type="line" smooth="yes"/>
      <point x="868" y="1098"/>
      <point x="898" y="1128"/>
      <point x="898" y="1186" type="curve" smooth="yes"/>
      <point x="898" y="1207"/>
      <point x="895" y="1238"/>
    </contour>
  </outline>
</glyph>
<glyph name="six" format="2">
  <advance width="1080"/>
  <unicode hex="0036"/>
  <outline>
    <contour>
      <point x="553" y="-26" type="curve" smooth="yes"/>
      <point x="802" y="-26"/>
      <point x="977" y="157"/>
      <point x="977" y="421" type="curve" smooth="yes"/>
      <point x="977" y="710"/>
      <point x="830" y="845"/>
      <point x="613" y="845" type="curve" smooth="yes"/>
      <point x="439" y="845"/>
      <point x="285" y="731"/>
      <point x="226" y="601" type="curve"/>
      <point x="267" y="493" type="line"/>
      <point x="334" y="607"/>
      <point x="457" y="680"/>
      <point x="563" y="680" type="curve" smooth="yes"/>
      <point x="685" y="680"/>
      <point x="777" y="613"/>
      <point x="777" y="408" type="curve" smooth="yes"/>
      <point x="777" y="239"/>
      <point x="700" y="126"/>
      <point x="556" y="126" type="curve" smooth="yes"/>
      <point x="487" y="126"/>
      <point x="437" y="159"/>
      <point x="403" y="202" type="curve" smooth="yes"/>
      <point x="341" y="283"/>
      <point x="319" y="429"/>
      <point x="319" y="529" type="curve" smooth="yes"/>
      <point x="319" y="697" type="line" smooth="yes"/>
      <point x="319" y="941"/>
      <point x="407" y="1134"/>
      <point x="637" y="1134" type="curve" smooth="yes"/>
      <point x="723" y="1134"/>
      <point x="790" y="1112"/>
      <point x="839" y="1090" type="curve"/>
      <point x="880" y="1119"/>
      <point x="906" y="1179"/>
      <point x="911" y="1229" type="curve"/>
      <point x="842" y="1268"/>
      <point x="738" y="1292"/>
      <point x="626" y="1292" type="curve" smooth="yes"/>
      <point x="290" y="1292"/>
      <point x="115" y="1035"/>
      <point x="115" y="637" type="curve" smooth="yes"/>
      <point x="115" y="250"/>
      <point x="221" y="143"/>
      <point x="256" y="100" type="curve" smooth="yes"/>
      <point x="293" y="57"/>
      <point x="382" y="-26"/>
    </contour>
  </outline>
</glyph>
<glyph name="seven" format="2">
  <advance width="1080"/>
  <unicode hex="0037"/>
  <outline>
    <contour>
      <point x="939" y="1266" type="curve"/>
      <point x="151" y="1266" type="line"/>
      <point x="140" y="1235"/>
      <point x="134" y="1200"/>
      <point x="134" y="1165" type="curve" smooth="yes"/>
      <point x="134" y="1143"/>
      <point x="137" y="1118"/>
      <point x="143" y="1097" type="curve"/>
      <point x="472" y="1097" type="line" smooth="yes"/>
      <point x="523" y="1097"/>
      <point x="728" y="1101"/>
      <point x="781" y="1114" type="curve"/>
      <point x="788" y="1106" type="line"/>
      <point x="540" y="840"/>
      <point x="362" y="449"/>
      <point x="326" y="81" type="curve" smooth="yes"/>
      <point x="318" y="0" type="line"/>
      <point x="346" y="-7"/>
      <point x="384" y="-9"/>
      <point x="419" y="-9" type="curve" smooth="yes"/>
      <point x="457" y="-9"/>
      <point x="494" y="-7"/>
      <point x="520" y="0" type="curve"/>
      <point x="527" y="69" type="line" smooth="yes"/>
      <point x="563" y="438"/>
      <point x="674" y="699"/>
      <point x="938" y="1053" type="curve" smooth="yes"/>
      <point x="966" y="1090"/>
      <point x="975" y="1118"/>
      <point x="975" y="1143" type="curve" smooth="yes"/>
      <point x="975" y="1177"/>
      <point x="958" y="1228"/>
    </contour>
  </outline>
</glyph>
<glyph name="eight" format="2">
  <advance width="1080"/>
  <unicode hex="0038"/>
  <outline>
    <contour>
      <point x="103" y="318" type="curve" smooth="yes"/>
      <point x="103" y="99"/>
      <point x="275" y="-26"/>
      <point x="530" y="-26" type="curve" smooth="yes"/>
      <point x="772" y="-26"/>
      <point x="976" y="108"/>
      <point x="976" y="333" type="curve" smooth="yes"/>
      <point x="976" y="548"/>
      <point x="811" y="675"/>
      <point x="605" y="735" type="curve" smooth="yes"/>
      <point x="573" y="745" type="line" smooth="yes"/>
      <point x="427" y="785"/>
      <point x="334" y="848"/>
      <point x="334" y="960" type="curve" smooth="yes"/>
      <point x="334" y="1073"/>
      <point x="425" y="1147"/>
      <point x="538" y="1147" type="curve" smooth="yes"/>
      <point x="654" y="1147"/>
      <point x="745" y="1076"/>
      <point x="745" y="958" type="curve" smooth="yes"/>
      <point x="745" y="843"/>
      <point x="658" y="743"/>
      <point x="515" y="704" type="curve"/>
      <point x="660" y="646" type="line"/>
      <point x="807" y="688"/>
      <point x="940" y="805"/>
      <point x="940" y="967" type="curve" smooth="yes"/>
      <point x="940" y="1158"/>
      <point x="775" y="1292"/>
      <point x="539" y="1292" type="curve" smooth="yes"/>
      <point x="313" y="1292"/>
      <point x="138" y="1153"/>
      <point x="138" y="958" type="curve" smooth="yes"/>
      <point x="138" y="768"/>
      <point x="288" y="659"/>
      <point x="484" y="599" type="curve" smooth="yes"/>
      <point x="517" y="589" type="line" smooth="yes"/>
      <point x="649" y="550"/>
      <point x="774" y="474"/>
      <point x="774" y="335" type="curve" smooth="yes"/>
      <point x="774" y="201"/>
      <point x="668" y="117"/>
      <point x="537" y="117" type="curve" smooth="yes"/>
      <point x="407" y="117"/>
      <point x="302" y="193"/>
      <point x="302" y="332" type="curve" smooth="yes"/>
      <point x="302" y="461"/>
      <point x="395" y="587"/>
      <point x="573" y="637" type="curve"/>
      <point x="422" y="694" type="line"/>
      <point x="262" y="647"/>
      <point x="103" y="505"/>
    </contour>
  </outline>
</glyph>
<glyph name="nine" format="2">
  <advance width="1080"/>
  <unicode hex="0039"/>
  <outline>
    <contour>
      <point x="527" y="1292" type="curve" smooth="yes"/>
      <point x="278" y="1292"/>
      <point x="103" y="1109"/>
      <point x="103" y="845" type="curve" smooth="yes"/>
      <point x="103" y="556"/>
      <point x="250" y="421"/>
      <point x="467" y="421" type="curve" smooth="yes"/>
      <point x="641" y="421"/>
      <point x="795" y="535"/>
      <point x="854" y="665" type="curve"/>
      <point x="813" y="773" type="line"/>
      <point x="746" y="659"/>
      <point x="623" y="586"/>
      <point x="517" y="586" type="curve" smooth="yes"/>
      <point x="395" y="586"/>
      <point x="303" y="653"/>
      <point x="303" y="858" type="curve" smooth="yes"/>
      <point x="303" y="1027"/>
      <point x="380" y="1140"/>
      <point x="524" y="1140" type="curve" smooth="yes"/>
      <point x="593" y="1140"/>
      <point x="643" y="1107"/>
      <point x="677" y="1064" type="curve" smooth="yes"/>
      <point x="741" y="984"/>
      <point x="761" y="837"/>
      <point x="761" y="737" type="curve" smooth="yes"/>
      <point x="761" y="569" type="line" smooth="yes"/>
      <point x="761" y="325"/>
      <point x="673" y="132"/>
      <point x="443" y="132" type="curve" smooth="yes"/>
      <point x="357" y="132"/>
      <point x="290" y="154"/>
      <point x="241" y="176" type="curve"/>
      <point x="200" y="147"/>
      <point x="174" y="87"/>
      <point x="169" y="37" type="curve"/>
      <point x="238" y="-2"/>
      <point x="342" y="-26"/>
      <point x="454" y="-26" type="curve" smooth="yes"/>
      <point x="790" y="-26"/>
      <point x="965" y="231"/>
      <point x="965" y="629" type="curve" smooth="yes"/>
      <point x="965" y="1016"/>
      <point x="859" y="1123"/>
      <point x="824" y="1166" type="curve" smooth="yes"/>
      <point x="788" y="1210"/>
      <point x="698" y="1292"/>
    </contour>
  </outline>
</glyph>
<glyph name="less" format="2">
  <advance width="1080"/>
  <unicode hex="003C"/>
  <outline>
    <contour>
      <point x="861" y="1108" type="curve"/>
      <point x="118" y="702" type="line"/>
      <point x="102" y="654"/>
      <point x="105" y="593"/>
      <point x="118" y="546" type="curve"/>
      <point x="860" y="140" type="line"/>
      <point x="904" y="167"/>
      <point x="944" y="228"/>
      <point x="950" y="294" type="curve"/>
      <point x="462" y="550" type="line" smooth="yes"/>
      <point x="426" y="569"/>
      <point x="349" y="604"/>
      <point x="318" y="618" type="curve"/>
      <point x="318" y="631" type="line"/>
      <point x="349" y="645"/>
      <point x="426" y="680"/>
      <point x="462" y="699" type="curve" smooth="yes"/>
      <point x="950" y="955" type="line"/>
      <point x="945" y="1020"/>
      <point x="906" y="1080"/>
    </contour>
  </outline>
</glyph>
<glyph name="equal" format="2">
  <advance width="1080"/>
  <unicode hex="003D"/>
  <outline>
    <contour>
      <point x="124" y="356" type="curve"/>
      <point x="956" y="356" type="line"/>
      <point x="962" y="382"/>
      <point x="964" y="413"/>
      <point x="964" y="439" type="curve" smooth="yes"/>
      <point x="964" y="467"/>
      <point x="962" y="498"/>
      <point x="956" y="525" type="curve"/>
      <point x="124" y="525" type="line"/>
      <point x="118" y="498"/>
      <point x="116" y="467"/>
      <point x="116" y="439" type="curve" smooth="yes"/>
      <point x="116" y="413"/>
      <point x="118" y="382"/>
    </contour>
    <contour>
      <point x="124" y="732" type="curve"/>
      <point x="956" y="732" type="line"/>
      <point x="962" y="757"/>
      <point x="964" y="788"/>
      <point x="964" y="815" type="curve" smooth="yes"/>
      <point x="964" y="843"/>
      <point x="962" y="874"/>
      <point x="956" y="901" type="curve"/>
      <point x="124" y="901" type="line"/>
      <point x="118" y="874"/>
      <point x="116" y="843"/>
      <point x="116" y="815" type="curve" smooth="yes"/>
      <point x="116" y="788"/>
      <point x="118" y="757"/>
    </contour>
  </outline>
</glyph>
<glyph name="greater" format="2">
  <advance width="1066"/>
  <unicode hex="003E"/>
  <outline>
    <contour>
      <point x="212" y="142" type="curve"/>
      <point x="955" y="548" type="line"/>
      <point x="971" y="596"/>
      <point x="968" y="657"/>
      <point x="955" y="704" type="curve"/>
      <point x="213" y="1111" type="line"/>
      <point x="169" y="1083"/>
      <point x="129" y="1022"/>
      <point x="123" y="957" type="curve"/>
      <point x="611" y="700" type="line" smooth="yes"/>
      <point x="647" y="681"/>
      <point x="724" y="646"/>
      <point x="755" y="632" type="curve"/>
      <point x="755" y="619" type="line"/>
      <point x="724" y="605"/>
      <point x="647" y="571"/>
      <point x="611" y="551" type="curve" smooth="yes"/>
      <point x="123" y="295" type="line"/>
      <point x="128" y="230"/>
      <point x="167" y="171"/>
    </contour>
  </outline>
</glyph>
<glyph name="question" format="2">
  <advance width="786"/>
  <unicode hex="003F"/>
  <outline>
    <contour>
      <point x="24" y="1291" type="curve"/>
      <point x="28" y="1238"/>
      <point x="62" y="1173"/>
      <point x="95" y="1144" type="curve"/>
      <point x="176" y="1185"/>
      <point x="268" y="1219"/>
      <point x="359" y="1219" type="curve" smooth="yes"/>
      <point x="485" y="1219"/>
      <point x="561" y="1145"/>
      <point x="561" y="1034" type="curve" smooth="yes"/>
      <point x="561" y="914"/>
      <point x="463" y="829"/>
      <point x="318" y="754" type="curve" smooth="yes"/>
      <point x="222" y="706" type="line"/>
      <point x="205" y="684" type="line"/>
      <point x="216" y="386" type="line"/>
      <point x="239" y="378"/>
      <point x="269" y="375"/>
      <point x="294" y="375" type="curve" smooth="yes"/>
      <point x="319" y="375"/>
      <point x="344" y="378"/>
      <point x="366" y="386" type="curve"/>
      <point x="382" y="596" type="line"/>
      <point x="507" y="666" type="line" smooth="yes"/>
      <point x="653" y="748"/>
      <point x="768" y="869"/>
      <point x="768" y="1053" type="curve" smooth="yes"/>
      <point x="768" y="1258"/>
      <point x="625" y="1391"/>
      <point x="402" y="1391" type="curve" smooth="yes"/>
      <point x="265" y="1391"/>
      <point x="132" y="1349"/>
    </contour>
    <contour>
      <point x="293" y="211" type="curve" smooth="yes"/>
      <point x="252" y="211"/>
      <point x="210" y="201"/>
      <point x="184" y="186" type="curve"/>
      <point x="174" y="169"/>
      <point x="168" y="122"/>
      <point x="168" y="96" type="curve" smooth="yes"/>
      <point x="168" y="69"/>
      <point x="174" y="23"/>
      <point x="184" y="5" type="curve"/>
      <point x="210" y="-9"/>
      <point x="252" y="-19"/>
      <point x="293" y="-19" type="curve" smooth="yes"/>
      <point x="332" y="-19"/>
      <point x="377" y="-9"/>
      <point x="402" y="5" type="curve"/>
      <point x="413" y="23"/>
      <point x="419" y="69"/>
      <point x="419" y="96" type="curve" smooth="yes"/>
      <point x="419" y="122"/>
      <point x="413" y="169"/>
      <point x="402" y="186" type="curve"/>
      <point x="377" y="201"/>
      <point x="332" y="211"/>
    </contour>
  </outline>
</glyph>
<glyph name="at" format="2">
  <advance width="1890"/>
  <unicode hex="0040"/>
  <outline>
    <contour>
      <point x="1316" y="313" type="curve" smooth="yes"/>
      <point x="1316" y="825" type="line"/>
      <point x="1236" y="900"/>
      <point x="1111" y="961"/>
      <point x="972" y="961" type="curve" smooth="yes"/>
      <point x="710" y="961"/>
      <point x="566" y="733"/>
      <point x="566" y="453" type="curve" smooth="yes"/>
      <point x="566" y="184"/>
      <point x="686" y="12"/>
      <point x="884" y="12" type="curve" smooth="yes"/>
      <point x="1040" y="12"/>
      <point x="1190" y="140"/>
      <point x="1239" y="257" type="curve"/>
      <point x="1167" y="355" type="line"/>
      <point x="1129" y="261"/>
      <point x="1017" y="166"/>
      <point x="925" y="166" type="curve" smooth="yes"/>
      <point x="804" y="166"/>
      <point x="756" y="284"/>
      <point x="756" y="457" type="curve" smooth="yes"/>
      <point x="756" y="655"/>
      <point x="827" y="819"/>
      <point x="972" y="819" type="curve" smooth="yes"/>
      <point x="1039" y="819"/>
      <point x="1098" y="790"/>
      <point x="1132" y="756" type="curve"/>
      <point x="1132" y="281" type="line" smooth="yes"/>
      <point x="1132" y="129"/>
      <point x="1233" y="21"/>
      <point x="1400" y="21" type="curve" smooth="yes"/>
      <point x="1605" y="21"/>
      <point x="1804" y="212"/>
      <point x="1804" y="578" type="curve" smooth="yes"/>
      <point x="1804" y="1051"/>
      <point x="1463" y="1353"/>
      <point x="978" y="1353" type="curve" smooth="yes"/>
      <point x="465" y="1353"/>
      <point x="104" y="967"/>
      <point x="104" y="452" type="curve" smooth="yes"/>
      <point x="104" y="-89"/>
      <point x="434" y="-373"/>
      <point x="889" y="-373" type="curve" smooth="yes"/>
      <point x="1050" y="-373"/>
      <point x="1219" y="-340"/>
      <point x="1361" y="-285" type="curve"/>
      <point x="1361" y="-238"/>
      <point x="1339" y="-179"/>
      <point x="1308" y="-148" type="curve"/>
      <point x="1186" y="-198"/>
      <point x="1049" y="-222"/>
      <point x="901" y="-222" type="curve" smooth="yes"/>
      <point x="542" y="-222"/>
      <point x="298" y="14"/>
      <point x="298" y="452" type="curve" smooth="yes"/>
      <point x="298" y="883"/>
      <point x="566" y="1208"/>
      <point x="978" y="1208" type="curve" smooth="yes"/>
      <point x="1363" y="1208"/>
      <point x="1613" y="960"/>
      <point x="1613" y="585" type="curve" smooth="yes"/>
      <point x="1613" y="275"/>
      <point x="1507" y="169"/>
      <point x="1407" y="169" type="curve" smooth="yes"/>
      <point x="1345" y="169"/>
      <point x="1316" y="208"/>
    </contour>
  </outline>
</glyph>
<glyph name="B" format="2">
  <advance width="1208"/>
  <unicode hex="0042"/>
  <anchor x="592" y="0" name="bottom"/>
  <anchor x="564" y="1464" name="top"/>
  <outline>
    <contour>
      <point x="197" y="1367" type="curve"/>
      <point x="185" y="1355" type="line"/>
      <point x="185" y="11" type="line"/>
      <point x="197" y="-1" type="line"/>
      <point x="346" y="-4"/>
      <point x="470" y="-8"/>
      <point x="632" y="-8" type="curve" smooth="yes"/>
      <point x="968" y="-8"/>
      <point x="1106" y="166"/>
      <point x="1106" y="381" type="curve" smooth="yes"/>
      <point x="1106" y="587"/>
      <point x="943" y="740"/>
      <point x="776" y="743" type="curve"/>
      <point x="776" y="713" type="line"/>
      <point x="933" y="731"/>
      <point x="1041" y="859"/>
      <point x="1041" y="1013" type="curve" smooth="yes"/>
      <point x="1041" y="1235"/>
      <point x="905" y="1374"/>
      <point x="607" y="1374" type="curve" smooth="yes"/>
      <point x="476" y="1374"/>
      <point x="342" y="1370"/>
    </contour>
    <contour>
      <point x="383" y="145" type="curve"/>
      <point x="383" y="1221" type="line"/>
      <point x="449" y="1219"/>
      <point x="547" y="1219"/>
      <point x="605" y="1219" type="curve" smooth="yes"/>
      <point x="800" y="1219"/>
      <point x="838" y="1109"/>
      <point x="838" y="1008" type="curve" smooth="yes"/>
      <point x="838" y="911"/>
      <point x="795" y="796"/>
      <point x="601" y="796" type="curve" smooth="yes"/>
      <point x="304" y="796" type="line"/>
      <point x="304" y="639" type="line"/>
      <point x="620" y="639" type="line" smooth="yes"/>
      <point x="842" y="639"/>
      <point x="901" y="494"/>
      <point x="901" y="392" type="curve" smooth="yes"/>
      <point x="901" y="289"/>
      <point x="857" y="147"/>
      <point x="635" y="147" type="curve" smooth="yes"/>
      <point x="555" y="147"/>
      <point x="469" y="145"/>
    </contour>
  </outline>
</glyph>
<glyph name="C" format="2">
  <advance width="1206"/>
  <unicode hex="0043"/>
  <anchor x="639" y="0" name="bottom"/>
  <anchor x="641" y="1466" name="top"/>
  <outline>
    <contour>
      <point x="927" y="903" type="curve"/>
      <point x="959" y="894"/>
      <point x="980" y="890"/>
      <point x="1011" y="890" type="curve" smooth="yes"/>
      <point x="1093" y="890"/>
      <point x="1124" y="938"/>
      <point x="1124" y="1005" type="curve" smooth="yes"/>
      <point x="1124" y="1202"/>
      <point x="940" y="1392"/>
      <point x="645" y="1392" type="curve" smooth="yes"/>
      <point x="353" y="1392"/>
      <point x="102" y="1173"/>
      <point x="102" y="677" type="curve" smooth="yes"/>
      <point x="102" y="320"/>
      <point x="239" y="-26"/>
      <point x="618" y="-26" type="curve" smooth="yes"/>
      <point x="821" y="-26"/>
      <point x="1002" y="63"/>
      <point x="1111" y="173" type="curve"/>
      <point x="1098" y="219"/>
      <point x="1054" y="274"/>
      <point x="1010" y="302" type="curve"/>
      <point x="891" y="202"/>
      <point x="774" y="149"/>
      <point x="651" y="149" type="curve" smooth="yes"/>
      <point x="439" y="149"/>
      <point x="312" y="340"/>
      <point x="312" y="676" type="curve" smooth="yes"/>
      <point x="312" y="1037"/>
      <point x="426" y="1228"/>
      <point x="642" y="1228" type="curve" smooth="yes"/>
      <point x="862" y="1228"/>
      <point x="929" y="1052"/>
    </contour>
  </outline>
</glyph>
<glyph name="D" format="2">
  <advance width="1292"/>
  <unicode hex="0044"/>
  <guideline x="614" y="999" angle="90.0"/>
  <anchor x="611" y="0" name="bottom"/>
  <anchor x="614" y="1464" name="top"/>
  <outline>
    <contour>
      <point x="1186" y="683" type="curve" smooth="yes"/>
      <point x="1186" y="915"/>
      <point x="1153" y="1124"/>
      <point x="976" y="1272" type="curve" smooth="yes"/>
      <point x="890" y="1344"/>
      <point x="735" y="1374"/>
      <point x="630" y="1374" type="curve" smooth="yes"/>
      <point x="469" y="1374"/>
      <point x="371" y="1373"/>
      <point x="197" y="1367" type="curve"/>
      <point x="185" y="1355" type="line"/>
      <point x="185" y="11" type="line"/>
      <point x="197" y="-1" type="line"/>
      <point x="371" y="-5"/>
      <point x="469" y="-9"/>
      <point x="630" y="-9" type="curve" smooth="yes"/>
      <point x="735" y="-9"/>
      <point x="889" y="20"/>
      <point x="976" y="92" type="curve" smooth="yes"/>
      <point x="1155" y="240"/>
      <point x="1186" y="449"/>
    </contour>
    <contour>
      <point x="978" y="683" type="curve" smooth="yes"/>
      <point x="978" y="441"/>
      <point x="934" y="153"/>
      <point x="629" y="153" type="curve" smooth="yes"/>
      <point x="543" y="153"/>
      <point x="478" y="154"/>
      <point x="384" y="154" type="curve"/>
      <point x="384" y="1214" type="line"/>
      <point x="478" y="1213"/>
      <point x="543" y="1212"/>
      <point x="629" y="1212" type="curve" smooth="yes"/>
      <point x="934" y="1212"/>
      <point x="978" y="926"/>
    </contour>
  </outline>
</glyph>
<glyph name="E" format="2">
  <advance width="1131"/>
  <unicode hex="0045"/>
  <anchor x="616" y="0" name="bottom"/>
  <anchor x="920" y="0" name="ogonek"/>
  <anchor x="598" y="1464" name="top"/>
  <outline>
    <contour>
      <point x="184" y="1353" type="line"/>
      <point x="184" y="123" type="line" smooth="yes"/>
      <point x="184" y="45"/>
      <point x="228" y="-2"/>
      <point x="298" y="-2" type="curve" smooth="yes"/>
      <point x="378" y="-2" type="line"/>
      <point x="378" y="164" type="line" smooth="yes"/>
      <point x="378" y="200"/>
      <point x="380" y="226"/>
      <point x="380" y="260" type="curve" smooth="yes"/>
      <point x="380" y="1068" type="line" smooth="yes"/>
      <point x="380" y="1122"/>
      <point x="378" y="1146"/>
      <point x="378" y="1202" type="curve" smooth="yes"/>
      <point x="378" y="1366" type="line"/>
      <point x="197" y="1366" type="line"/>
    </contour>
    <contour>
      <point x="887" y="774" type="curve"/>
      <point x="503" y="774" type="line" smooth="yes"/>
      <point x="458" y="774"/>
      <point x="371" y="772"/>
      <point x="311" y="771" type="curve"/>
      <point x="311" y="609" type="line"/>
      <point x="371" y="609"/>
      <point x="458" y="607"/>
      <point x="503" y="607" type="curve" smooth="yes"/>
      <point x="887" y="607" type="line"/>
      <point x="894" y="635"/>
      <point x="897" y="668"/>
      <point x="897" y="690" type="curve" smooth="yes"/>
      <point x="897" y="712"/>
      <point x="894" y="747"/>
    </contour>
    <contour>
      <point x="995" y="1366" type="curve"/>
      <point x="311" y="1366" type="line"/>
      <point x="311" y="1199" type="line"/>
      <point x="371" y="1197"/>
      <point x="458" y="1197"/>
      <point x="503" y="1197" type="curve" smooth="yes"/>
      <point x="986" y="1197" type="line"/>
      <point x="997" y="1227"/>
      <point x="1001" y="1264"/>
      <point x="1001" y="1286" type="curve" smooth="yes"/>
      <point x="1001" y="1309"/>
      <point x="1000" y="1336"/>
    </contour>
    <contour>
      <point x="1032" y="169" type="curve"/>
      <point x="508" y="169" type="line" smooth="yes"/>
      <point x="428" y="169"/>
      <point x="373" y="164"/>
      <point x="311" y="160" type="curve"/>
      <point x="311" y="-2" type="line"/>
      <point x="900" y="-2" type="line" smooth="yes"/>
      <point x="1000" y="-2"/>
      <point x="1032" y="45"/>
    </contour>
  </outline>
</glyph>
<glyph name="F" format="2">
  <advance width="1040"/>
  <unicode hex="0046"/>
  <anchor x="596" y="1464" name="top"/>
  <outline>
    <contour>
      <point x="385" y="0" type="curve"/>
      <point x="385" y="952" type="line" smooth="yes"/>
      <point x="385" y="1052"/>
      <point x="383" y="1157"/>
      <point x="383" y="1259" type="curve" smooth="yes"/>
      <point x="383" y="1366" type="line"/>
      <point x="197" y="1366" type="line"/>
      <point x="185" y="1354" type="line"/>
      <point x="185" y="0" type="line"/>
      <point x="215" y="-6"/>
      <point x="253" y="-8"/>
      <point x="285" y="-8" type="curve" smooth="yes"/>
      <point x="318" y="-8"/>
      <point x="354" y="-6"/>
    </contour>
    <contour>
      <point x="982" y="1366" type="curve"/>
      <point x="306" y="1366" type="line"/>
      <point x="306" y="1200" type="line"/>
      <point x="380" y="1196"/>
      <point x="469" y="1194"/>
      <point x="580" y="1194" type="curve" smooth="yes"/>
      <point x="879" y="1194" type="line" smooth="yes"/>
      <point x="956" y="1194"/>
      <point x="993" y="1222"/>
      <point x="993" y="1286" type="curve" smooth="yes"/>
      <point x="993" y="1311"/>
      <point x="989" y="1343"/>
    </contour>
    <contour>
      <point x="878" y="772" type="curve"/>
      <point x="475" y="772" type="line" smooth="yes"/>
      <point x="427" y="772"/>
      <point x="361" y="770"/>
      <point x="309" y="769" type="curve"/>
      <point x="309" y="607" type="line"/>
      <point x="361" y="606"/>
      <point x="427" y="604"/>
      <point x="475" y="604" type="curve" smooth="yes"/>
      <point x="878" y="604" type="line"/>
      <point x="884" y="632"/>
      <point x="887" y="666"/>
      <point x="887" y="689" type="curve" smooth="yes"/>
      <point x="887" y="710"/>
      <point x="884" y="745"/>
    </contour>
  </outline>
</glyph>
<glyph name="G" format="2">
  <advance width="1284"/>
  <unicode hex="0047"/>
  <anchor x="676" y="0" name="bottom"/>
  <anchor x="688" y="1464" name="top"/>
  <outline>
    <contour>
      <point x="1151" y="1244" type="curve"/>
      <point x="1035" y="1334"/>
      <point x="858" y="1392"/>
      <point x="694" y="1392" type="curve" smooth="yes"/>
      <point x="397" y="1392"/>
      <point x="102" y="1184"/>
      <point x="102" y="673" type="curve" smooth="yes"/>
      <point x="102" y="306"/>
      <point x="245" y="-26"/>
      <point x="677" y="-26" type="curve" smooth="yes"/>
      <point x="844" y="-26"/>
      <point x="1034" y="14"/>
      <point x="1154" y="59" type="curve"/>
      <point x="1052" y="211" type="line"/>
      <point x="988" y="183"/>
      <point x="855" y="141"/>
      <point x="713" y="141" type="curve" smooth="yes"/>
      <point x="443" y="141"/>
      <point x="309" y="311"/>
      <point x="309" y="671" type="curve" smooth="yes"/>
      <point x="309" y="1076"/>
      <point x="479" y="1219"/>
      <point x="695" y="1219" type="curve" smooth="yes"/>
      <point x="825" y="1219"/>
      <point x="958" y="1167"/>
      <point x="1053" y="1095" type="curve"/>
      <point x="1094" y="1122"/>
      <point x="1141" y="1181"/>
    </contour>
    <contour>
      <point x="962" y="413" type="curve" smooth="yes"/>
      <point x="962" y="57" type="line"/>
      <point x="1154" y="59" type="line"/>
      <point x="1154" y="581" type="line"/>
      <point x="980" y="641" type="line"/>
      <point x="966" y="582"/>
      <point x="962" y="505"/>
    </contour>
    <contour>
      <point x="1009" y="712" type="curve" smooth="yes"/>
      <point x="702" y="712" type="line"/>
      <point x="694" y="687"/>
      <point x="687" y="654"/>
      <point x="687" y="625" type="curve" smooth="yes"/>
      <point x="687" y="549"/>
      <point x="740" y="539"/>
      <point x="786" y="539" type="curve" smooth="yes"/>
      <point x="1154" y="539" type="line"/>
      <point x="1154" y="581" type="line" smooth="yes"/>
      <point x="1154" y="665"/>
      <point x="1117" y="712"/>
    </contour>
  </outline>
</glyph>
<glyph name="H" format="2">
  <advance width="1346"/>
  <unicode hex="0048"/>
  <anchor x="673" y="0" name="bottom"/>
  <anchor x="672" y="1465" name="top"/>
  <outline>
    <contour>
      <point x="498" y="619" type="curve" smooth="yes"/>
      <point x="848" y="619" type="line"/>
      <point x="866" y="619"/>
      <point x="945" y="621"/>
      <point x="963" y="621" type="curve" smooth="yes"/>
      <point x="1003" y="621"/>
      <point x="1043" y="619"/>
      <point x="1082" y="619" type="curve"/>
      <point x="1082" y="792" type="line"/>
      <point x="1043" y="792"/>
      <point x="1003" y="790"/>
      <point x="963" y="790" type="curve" smooth="yes"/>
      <point x="945" y="790"/>
      <point x="866" y="792"/>
      <point x="848" y="792" type="curve" smooth="yes"/>
      <point x="498" y="792" type="line" smooth="yes"/>
      <point x="481" y="792"/>
      <point x="401" y="790"/>
      <point x="383" y="790" type="curve" smooth="yes"/>
      <point x="344" y="790"/>
      <point x="303" y="792"/>
      <point x="264" y="792" type="curve"/>
      <point x="264" y="619" type="line"/>
      <point x="303" y="619"/>
      <point x="344" y="621"/>
      <point x="383" y="621" type="curve" smooth="yes"/>
      <point x="401" y="621"/>
      <point x="481" y="619"/>
    </contour>
    <contour>
      <point x="385" y="0" type="curve"/>
      <point x="385" y="473" type="line" smooth="yes"/>
      <point x="385" y="529"/>
      <point x="383" y="567"/>
      <point x="383" y="621" type="curve" smooth="yes"/>
      <point x="383" y="790" type="line" smooth="yes"/>
      <point x="383" y="844"/>
      <point x="385" y="882"/>
      <point x="385" y="938" type="curve" smooth="yes"/>
      <point x="385" y="1366" type="line"/>
      <point x="354" y="1372"/>
      <point x="316" y="1374"/>
      <point x="283" y="1374" type="curve" smooth="yes"/>
      <point x="253" y="1374"/>
      <point x="213" y="1372"/>
      <point x="185" y="1366" type="curve"/>
      <point x="185" y="0" type="line"/>
      <point x="213" y="-6"/>
      <point x="253" y="-8"/>
      <point x="283" y="-8" type="curve" smooth="yes"/>
      <point x="316" y="-8"/>
      <point x="354" y="-6"/>
    </contour>
    <contour>
      <point x="961" y="473" type="curve" smooth="yes"/>
      <point x="961" y="0" type="line"/>
      <point x="991" y="-6"/>
      <point x="1029" y="-8"/>
      <point x="1061" y="-8" type="curve" smooth="yes"/>
      <point x="1094" y="-8"/>
      <point x="1130" y="-6"/>
      <point x="1161" y="0" type="curve"/>
      <point x="1161" y="1366" type="line"/>
      <point x="1131" y="1372"/>
      <point x="1091" y="1374"/>
      <point x="1060" y="1374" type="curve" smooth="yes"/>
      <point x="1029" y="1374"/>
      <point x="991" y="1372"/>
      <point x="961" y="1366" type="curve"/>
      <point x="961" y="938" type="line" smooth="yes"/>
      <point x="961" y="882"/>
      <point x="963" y="844"/>
      <point x="963" y="790" type="curve" smooth="yes"/>
      <point x="963" y="621" type="line" smooth="yes"/>
      <point x="963" y="567"/>
      <point x="961" y="529"/>
    </contour>
  </outline>
</glyph>
<glyph name="I" format="2">
  <advance width="583"/>
  <unicode hex="0049"/>
  <anchor x="290" y="0" name="bottom"/>
  <anchor x="392" y="0" name="ogonek"/>
  <anchor x="292" y="1465" name="top"/>
  <outline>
    <contour>
      <point x="192" y="1366" type="curve"/>
      <point x="192" y="0" type="line"/>
      <point x="220" y="-6"/>
      <point x="260" y="-8"/>
      <point x="290" y="-8" type="curve" smooth="yes"/>
      <point x="323" y="-8"/>
      <point x="361" y="-6"/>
      <point x="392" y="0" type="curve"/>
      <point x="392" y="1366" type="line"/>
      <point x="361" y="1372"/>
      <point x="323" y="1374"/>
      <point x="290" y="1374" type="curve" smooth="yes"/>
      <point x="260" y="1374"/>
      <point x="220" y="1372"/>
    </contour>
  </outline>
</glyph>
<glyph name="J" format="2">
  <advance width="891"/>
  <unicode hex="004A"/>
  <anchor x="634" y="1464" name="top"/>
  <outline>
    <contour>
      <point x="96" y="214" type="curve"/>
      <point x="57" y="173"/>
      <point x="31" y="119"/>
      <point x="20" y="64" type="curve"/>
      <point x="106" y="11"/>
      <point x="226" y="-20"/>
      <point x="330" y="-20" type="curve" smooth="yes"/>
      <point x="673" y="-20"/>
      <point x="732" y="204"/>
      <point x="732" y="494" type="curve" smooth="yes"/>
      <point x="732" y="1366" type="line"/>
      <point x="703" y="1372"/>
      <point x="665" y="1374"/>
      <point x="634" y="1374" type="curve" smooth="yes"/>
      <point x="602" y="1374"/>
      <point x="562" y="1372"/>
      <point x="532" y="1366" type="curve"/>
      <point x="532" y="464" type="line" smooth="yes"/>
      <point x="532" y="243"/>
      <point x="480" y="148"/>
      <point x="314" y="148" type="curve" smooth="yes"/>
      <point x="239" y="148"/>
      <point x="156" y="177"/>
    </contour>
  </outline>
</glyph>
<glyph name="K" format="2">
  <advance width="1187"/>
  <unicode hex="004B"/>
  <anchor x="622" y="0" name="bottom"/>
  <anchor x="616" y="1464" name="top"/>
  <outline>
    <contour>
      <point x="185" y="1366" type="curve"/>
      <point x="185" y="0" type="line"/>
      <point x="213" y="-6"/>
      <point x="253" y="-8"/>
      <point x="283" y="-8" type="curve" smooth="yes"/>
      <point x="316" y="-8"/>
      <point x="354" y="-6"/>
      <point x="385" y="0" type="curve"/>
      <point x="385" y="1366" type="line"/>
      <point x="354" y="1372"/>
      <point x="316" y="1374"/>
      <point x="283" y="1374" type="curve" smooth="yes"/>
      <point x="253" y="1374"/>
      <point x="213" y="1372"/>
    </contour>
    <contour>
      <point x="1152" y="52" type="curve"/>
      <point x="1118" y="81"/>
      <point x="1094" y="112"/>
      <point x="1064" y="192" type="curve" smooth="yes"/>
      <point x="952" y="487" type="line" smooth="yes"/>
      <point x="888" y="655"/>
      <point x="820" y="743"/>
      <point x="618" y="743" type="curve" smooth="yes"/>
      <point x="281" y="743" type="line"/>
      <point x="281" y="610" type="line"/>
      <point x="405" y="617"/>
      <point x="486" y="619"/>
      <point x="526" y="619" type="curve" smooth="yes"/>
      <point x="647" y="619"/>
      <point x="712" y="565"/>
      <point x="770" y="411" type="curve" smooth="yes"/>
      <point x="882" y="111" type="line" smooth="yes"/>
      <point x="911" y="30"/>
      <point x="936" y="-12"/>
      <point x="1016" y="-12" type="curve" smooth="yes"/>
      <point x="1065" y="-12"/>
      <point x="1125" y="11"/>
    </contour>
    <contour>
      <point x="843" y="1288" type="curve" smooth="yes"/>
      <point x="578" y="845" type="line" smooth="yes"/>
      <point x="556" y="806"/>
      <point x="543" y="791"/>
      <point x="503" y="791" type="curve" smooth="yes"/>
      <point x="439" y="790"/>
      <point x="348" y="788"/>
      <point x="281" y="785" type="curve"/>
      <point x="281" y="670" type="line"/>
      <point x="517" y="670" type="line" smooth="yes"/>
      <point x="643" y="670"/>
      <point x="726" y="731"/>
      <point x="782" y="829" type="curve" smooth="yes"/>
      <point x="1093" y="1349" type="line"/>
      <point x="1079" y="1367" type="line"/>
      <point x="1040" y="1370"/>
      <point x="1001" y="1372"/>
      <point x="967" y="1372" type="curve" smooth="yes"/>
      <point x="898" y="1372"/>
      <point x="875" y="1343"/>
    </contour>
  </outline>
</glyph>
<glyph name="L" format="2">
  <advance width="1021"/>
  <unicode hex="004C"/>
  <anchor x="576" y="0" name="bottom"/>
  <anchor x="1020" y="786" name="periodcentered"/>
  <anchor x="282" y="1461" name="top"/>
  <anchor x="475" y="878" name="topright"/>
  <outline>
    <contour>
      <point x="384" y="-2" type="line"/>
      <point x="384" y="1246" type="line" smooth="yes"/>
      <point x="384" y="1334"/>
      <point x="356" y="1374"/>
      <point x="273" y="1374" type="curve" smooth="yes"/>
      <point x="197" y="1374" type="line"/>
      <point x="184" y="1362" type="line"/>
      <point x="184" y="124" type="line" smooth="yes"/>
      <point x="184" y="42"/>
      <point x="233" y="-2"/>
      <point x="300" y="-2" type="curve" smooth="yes"/>
    </contour>
    <contour>
      <point x="965" y="173" type="curve"/>
      <point x="561" y="173" type="line" smooth="yes"/>
      <point x="455" y="173"/>
      <point x="315" y="164"/>
      <point x="198" y="145" type="curve"/>
      <point x="300" y="-2" type="line"/>
      <point x="830" y="-2" type="line" smooth="yes"/>
      <point x="926" y="-2"/>
      <point x="965" y="37"/>
    </contour>
  </outline>
</glyph>
<glyph name="M" format="2">
  <advance width="1609"/>
  <unicode hex="004D"/>
  <anchor x="804" y="0" name="bottom"/>
  <anchor x="804" y="1464" name="top"/>
  <outline>
    <contour>
      <point x="258" y="1365" type="curve"/>
      <point x="152" y="3" type="line"/>
      <point x="179" y="-5"/>
      <point x="219" y="-9"/>
      <point x="251" y="-9" type="curve" smooth="yes"/>
      <point x="283" y="-9"/>
      <point x="314" y="-7"/>
      <point x="343" y="-2" type="curve"/>
      <point x="393" y="751" type="line" smooth="yes"/>
      <point x="399" y="856"/>
      <point x="404" y="1033"/>
      <point x="409" y="1151" type="curve"/>
      <point x="420" y="1151" type="line"/>
      <point x="704" y="210" type="line"/>
      <point x="732" y="205"/>
      <point x="773" y="202"/>
      <point x="803" y="202" type="curve" smooth="yes"/>
      <point x="834" y="202"/>
      <point x="875" y="205"/>
      <point x="905" y="210" type="curve"/>
      <point x="1189" y="1151" type="line"/>
      <point x="1200" y="1151" type="line"/>
      <point x="1203" y="1033"/>
      <point x="1209" y="856"/>
      <point x="1216" y="751" type="curve" smooth="yes"/>
      <point x="1265" y="-2" type="line"/>
      <point x="1295" y="-7"/>
      <point x="1323" y="-9"/>
      <point x="1355" y="-9" type="curve" smooth="yes"/>
      <point x="1387" y="-9"/>
      <point x="1428" y="-5"/>
      <point x="1457" y="3" type="curve"/>
      <point x="1351" y="1365" type="line"/>
      <point x="1302" y="1373"/>
      <point x="1246" y="1374"/>
      <point x="1215" y="1374" type="curve" smooth="yes"/>
      <point x="1183" y="1374"/>
      <point x="1137" y="1373"/>
      <point x="1088" y="1365" type="curve"/>
      <point x="890" y="722" type="line" smooth="yes"/>
      <point x="870" y="659"/>
      <point x="818" y="460"/>
      <point x="810" y="411" type="curve"/>
      <point x="799" y="411" type="line"/>
      <point x="791" y="460"/>
      <point x="739" y="659"/>
      <point x="719" y="722" type="curve" smooth="yes"/>
      <point x="520" y="1365" type="line"/>
      <point x="476" y="1373"/>
      <point x="426" y="1374"/>
      <point x="393" y="1374" type="curve" smooth="yes"/>
      <point x="363" y="1374"/>
      <point x="304" y="1373"/>
    </contour>
  </outline>
</glyph>
<glyph name="N" format="2">
  <advance width="1356"/>
  <unicode hex="004E"/>
  <anchor x="678" y="0" name="bottom"/>
  <anchor x="683" y="1464" name="top"/>
  <outline>
    <contour>
      <point x="185" y="1364" type="curve"/>
      <point x="185" y="0" type="line"/>
      <point x="217" y="-6"/>
      <point x="252" y="-8"/>
      <point x="278" y="-8" type="curve" smooth="yes"/>
      <point x="305" y="-8"/>
      <point x="337" y="-6"/>
      <point x="371" y="0" type="curve"/>
      <point x="371" y="652" type="line" smooth="yes"/>
      <point x="371" y="799"/>
      <point x="362" y="994"/>
      <point x="355" y="1130" type="curve"/>
      <point x="371" y="1132" type="line"/>
      <point x="424" y="1366" type="line"/>
      <point x="385" y="1372"/>
      <point x="337" y="1374"/>
      <point x="303" y="1374" type="curve" smooth="yes"/>
      <point x="273" y="1374"/>
      <point x="217" y="1371"/>
    </contour>
    <contour>
      <point x="491" y="854" type="curve" smooth="yes"/>
      <point x="930" y="0" type="line"/>
      <point x="1094" y="122" type="line"/>
      <point x="996" y="225" type="line"/>
      <point x="956" y="308"/>
      <point x="912" y="410"/>
      <point x="860" y="513" type="curve" smooth="yes"/>
      <point x="424" y="1366" type="line"/>
      <point x="267" y="1245" type="line"/>
      <point x="361" y="1131" type="line"/>
      <point x="400" y="1045"/>
      <point x="441" y="952"/>
    </contour>
    <contour>
      <point x="1171" y="1363" type="line"/>
      <point x="1159" y="1374" type="line"/>
      <point x="1093" y="1374" type="line" smooth="yes"/>
      <point x="1011" y="1374"/>
      <point x="986" y="1337"/>
      <point x="986" y="1249" type="curve" smooth="yes"/>
      <point x="986" y="719" type="line" smooth="yes"/>
      <point x="986" y="581"/>
      <point x="993" y="384"/>
      <point x="1002" y="226" type="curve"/>
      <point x="985" y="224" type="line"/>
      <point x="930" y="0" type="line"/>
      <point x="969" y="-6"/>
      <point x="1011" y="-8"/>
      <point x="1050" y="-8" type="curve" smooth="yes"/>
      <point x="1089" y="-8"/>
      <point x="1139" y="-5"/>
      <point x="1171" y="2" type="curve"/>
    </contour>
  </outline>
</glyph>
<glyph name="O" format="2">
  <advance width="1313"/>
  <unicode hex="004F"/>
  <anchor x="657" y="0" name="bottom"/>
  <anchor x="848" y="6" name="ogonek"/>
  <anchor x="657" y="1464" name="top"/>
  <anchor x="1030" y="1343" name="topright"/>
  <outline>
    <contour>
      <point x="312" y="684" type="curve" smooth="yes"/>
      <point x="312" y="930"/>
      <point x="372" y="1231"/>
      <point x="657" y="1231" type="curve" smooth="yes"/>
      <point x="942" y="1231"/>
      <point x="1000" y="930"/>
      <point x="1000" y="684" type="curve" smooth="yes"/>
      <point x="1000" y="438"/>
      <point x="942" y="135"/>
      <point x="657" y="135" type="curve" smooth="yes"/>
      <point x="372" y="135"/>
      <point x="312" y="438"/>
    </contour>
    <contour>
      <point x="102" y="684" type="curve" smooth="yes"/>
      <point x="102" y="285"/>
      <point x="277" y="-26"/>
      <point x="657" y="-26" type="curve" smooth="yes"/>
      <point x="1034" y="-26"/>
      <point x="1211" y="281"/>
      <point x="1211" y="684" type="curve" smooth="yes"/>
      <point x="1211" y="1082"/>
      <point x="1035" y="1392"/>
      <point x="657" y="1392" type="curve" smooth="yes"/>
      <point x="280" y="1392"/>
      <point x="102" y="1085"/>
    </contour>
  </outline>
</glyph>
<glyph name="P" format="2">
  <advance width="1130"/>
  <unicode hex="0050"/>
  <anchor x="584" y="1464" name="top"/>
  <outline>
    <contour>
      <point x="1057" y="932" type="curve" smooth="yes"/>
      <point x="1057" y="1227"/>
      <point x="866" y="1374"/>
      <point x="603" y="1374" type="curve" smooth="yes"/>
      <point x="469" y="1374"/>
      <point x="346" y="1370"/>
      <point x="197" y="1367" type="curve"/>
      <point x="185" y="1355" type="line"/>
      <point x="185" y="0" type="line"/>
      <point x="213" y="-6"/>
      <point x="253" y="-8"/>
      <point x="283" y="-8" type="curve" smooth="yes"/>
      <point x="316" y="-8"/>
      <point x="354" y="-6"/>
      <point x="385" y="0" type="curve"/>
      <point x="385" y="1215" type="line"/>
      <point x="452" y="1213"/>
      <point x="539" y="1213"/>
      <point x="598" y="1213" type="curve" smooth="yes"/>
      <point x="802" y="1213"/>
      <point x="848" y="1057"/>
      <point x="848" y="932" type="curve" smooth="yes"/>
      <point x="848" y="809"/>
      <point x="802" y="650"/>
      <point x="598" y="650" type="curve" smooth="yes"/>
      <point x="539" y="650"/>
      <point x="368" y="648"/>
      <point x="301" y="646" type="curve"/>
      <point x="301" y="489" type="line"/>
      <point x="603" y="489" type="line" smooth="yes"/>
      <point x="869" y="489"/>
      <point x="1057" y="642"/>
    </contour>
  </outline>
</glyph>
<glyph name="Q" format="2">
  <advance width="1299"/>
  <unicode hex="0051"/>
  <outline>
    <contour>
      <point x="310" y="684" type="curve" smooth="yes"/>
      <point x="310" y="933"/>
      <point x="364" y="1231"/>
      <point x="649" y="1231" type="curve" smooth="yes"/>
      <point x="935" y="1231"/>
      <point x="987" y="933"/>
      <point x="987" y="684" type="curve" smooth="yes"/>
      <point x="987" y="435"/>
      <point x="935" y="140"/>
      <point x="649" y="140" type="curve" smooth="yes"/>
      <point x="364" y="140"/>
      <point x="310" y="435"/>
    </contour>
    <contour>
      <point x="102" y="684" type="curve" smooth="yes"/>
      <point x="102" y="277"/>
      <point x="264" y="-26"/>
      <point x="657" y="-26" type="curve" smooth="yes"/>
      <point x="722" y="-26"/>
      <point x="751" y="-5"/>
      <point x="790" y="18" type="curve" smooth="yes"/>
      <point x="1070" y="24"/>
      <point x="1197" y="365"/>
      <point x="1197" y="683" type="curve" smooth="yes"/>
      <point x="1197" y="1085"/>
      <point x="1035" y="1392"/>
      <point x="649" y="1392" type="curve" smooth="yes"/>
      <point x="266" y="1392"/>
      <point x="102" y="1088"/>
    </contour>
    <contour>
      <point x="595" y="39" type="line"/>
      <point x="910" y="-200" type="line" smooth="yes"/>
      <point x="952" y="-232"/>
      <point x="996" y="-251"/>
      <point x="1057" y="-251" type="curve" smooth="yes"/>
      <point x="1122" y="-251"/>
      <point x="1188" y="-205"/>
      <point x="1193" y="-106" type="curve"/>
      <point x="1125" y="-104"/>
      <point x="1069" y="-84"/>
      <point x="940" y="8" type="curve" smooth="yes"/>
      <point x="802" y="106" type="line"/>
    </contour>
  </outline>
</glyph>
<glyph name="R" format="2">
  <advance width="1197"/>
  <unicode hex="0052"/>
  <anchor x="620" y="0" name="bottom"/>
  <anchor x="594" y="1464" name="top"/>
  <outline>
    <contour>
      <point x="1072" y="967" type="curve" smooth="yes"/>
      <point x="1072" y="1228"/>
      <point x="900" y="1374"/>
      <point x="622" y="1374" type="curve" smooth="yes"/>
      <point x="488" y="1374"/>
      <point x="346" y="1370"/>
      <point x="197" y="1367" type="curve"/>
      <point x="185" y="1355" type="line"/>
      <point x="185" y="0" type="line"/>
      <point x="213" y="-6"/>
      <point x="253" y="-8"/>
      <point x="283" y="-8" type="curve" smooth="yes"/>
      <point x="315" y="-8"/>
      <point x="353" y="-6"/>
      <point x="384" y="0" type="curve"/>
      <point x="384" y="1216" type="line"/>
      <point x="452" y="1214"/>
      <point x="554" y="1214"/>
      <point x="614" y="1214" type="curve" smooth="yes"/>
      <point x="815" y="1214"/>
      <point x="865" y="1090"/>
      <point x="865" y="967" type="curve" smooth="yes"/>
      <point x="865" y="848"/>
      <point x="815" y="720"/>
      <point x="614" y="720" type="curve" smooth="yes"/>
      <point x="532" y="720"/>
      <point x="390" y="717"/>
      <point x="301" y="713" type="curve"/>
      <point x="301" y="555" type="line"/>
      <point x="556" y="555" type="line" smooth="yes"/>
      <point x="683" y="555"/>
      <point x="728" y="483"/>
      <point x="763" y="388" type="curve" smooth="yes"/>
      <point x="866" y="110" type="line" smooth="yes"/>
      <point x="896" y="29"/>
      <point x="923" y="-14"/>
      <point x="999" y="-14" type="curve" smooth="yes"/>
      <point x="1048" y="-14"/>
      <point x="1108" y="8"/>
      <point x="1135" y="49" type="curve"/>
      <point x="1099" y="76"/>
      <point x="1076" y="112"/>
      <point x="1046" y="193" type="curve" smooth="yes"/>
      <point x="955" y="435" type="line" smooth="yes"/>
      <point x="926" y="512"/>
      <point x="879" y="580"/>
      <point x="814" y="602" type="curve"/>
      <point x="963" y="649"/>
      <point x="1072" y="783"/>
    </contour>
  </outline>
</glyph>
<glyph name="S" format="2">
  <advance width="1111"/>
  <unicode hex="0053"/>
  <anchor x="554" y="0" name="bottom"/>
  <anchor x="565" y="1464" name="top"/>
  <outline>
    <contour>
      <point x="64" y="124" type="curve"/>
      <point x="196" y="32"/>
      <point x="374" y="-26"/>
      <point x="540" y="-26" type="curve" smooth="yes"/>
      <point x="868" y="-26"/>
      <point x="1026" y="144"/>
      <point x="1026" y="372" type="curve" smooth="yes"/>
      <point x="1026" y="553"/>
      <point x="895" y="674"/>
      <point x="727" y="743" type="curve" smooth="yes"/>
      <point x="489" y="842" type="line" smooth="yes"/>
      <point x="389" y="884"/>
      <point x="317" y="937"/>
      <point x="317" y="1030" type="curve" smooth="yes"/>
      <point x="317" y="1141"/>
      <point x="413" y="1226"/>
      <point x="566" y="1226" type="curve" smooth="yes"/>
      <point x="668" y="1226"/>
      <point x="801" y="1184"/>
      <point x="906" y="1132" type="curve"/>
      <point x="948" y="1169"/>
      <point x="977" y="1232"/>
      <point x="979" y="1290" type="curve"/>
      <point x="875" y="1341"/>
      <point x="725" y="1392"/>
      <point x="561" y="1392" type="curve" smooth="yes"/>
      <point x="294" y="1392"/>
      <point x="113" y="1222"/>
      <point x="113" y="1008" type="curve" smooth="yes"/>
      <point x="113" y="840"/>
      <point x="219" y="734"/>
      <point x="387" y="663" type="curve" smooth="yes"/>
      <point x="629" y="562" type="line" smooth="yes"/>
      <point x="746" y="512"/>
      <point x="818" y="438"/>
      <point x="818" y="338" type="curve" smooth="yes"/>
      <point x="818" y="222"/>
      <point x="718" y="143"/>
      <point x="551" y="143" type="curve" smooth="yes"/>
      <point x="415" y="143"/>
      <point x="266" y="201"/>
      <point x="150" y="279" type="curve"/>
      <point x="108" y="245"/>
      <point x="69" y="182"/>
    </contour>
  </outline>
</glyph>
<glyph name="T" format="2">
  <advance width="980"/>
  <unicode hex="0054"/>
  <anchor x="492" y="0" name="bottom"/>
  <anchor x="491" y="1464" name="top"/>
  <outline>
    <contour>
      <point x="37" y="1197" type="curve"/>
      <point x="278" y="1197" type="line" smooth="yes"/>
      <point x="305" y="1197"/>
      <point x="365" y="1199"/>
      <point x="392" y="1199" type="curve" smooth="yes"/>
      <point x="592" y="1199" type="line" smooth="yes"/>
      <point x="619" y="1199"/>
      <point x="680" y="1197"/>
      <point x="706" y="1197" type="curve" smooth="yes"/>
      <point x="846" y="1197" type="line" smooth="yes"/>
      <point x="923" y="1197"/>
      <point x="959" y="1222"/>
      <point x="959" y="1286" type="curve" smooth="yes"/>
      <point x="959" y="1313"/>
      <point x="954" y="1343"/>
      <point x="947" y="1366" type="curve"/>
      <point x="37" y="1366" type="line"/>
      <point x="31" y="1336"/>
      <point x="29" y="1307"/>
      <point x="29" y="1281" type="curve" smooth="yes"/>
      <point x="29" y="1256"/>
      <point x="31" y="1226"/>
    </contour>
    <contour>
      <point x="392" y="1051" type="curve" smooth="yes"/>
      <point x="392" y="0" type="line"/>
      <point x="423" y="-6"/>
      <point x="462" y="-8"/>
      <point x="492" y="-8" type="curve" smooth="yes"/>
      <point x="522" y="-8"/>
      <point x="561" y="-6"/>
      <point x="592" y="0" type="curve"/>
      <point x="592" y="1051" type="line" smooth="yes"/>
      <point x="592" y="1105"/>
      <point x="591" y="1143"/>
      <point x="591" y="1199" type="curve" smooth="yes"/>
      <point x="591" y="1282" type="line"/>
      <point x="393" y="1282" type="line"/>
      <point x="393" y="1199" type="line" smooth="yes"/>
      <point x="393" y="1143"/>
      <point x="392" y="1105"/>
    </contour>
  </outline>
</glyph>
<glyph name="U" format="2">
  <advance width="1337"/>
  <unicode hex="0055"/>
  <anchor x="668" y="0" name="bottom"/>
  <anchor x="875" y="8" name="ogonek"/>
  <anchor x="667" y="1464" name="top"/>
  <anchor x="1169" y="1366" name="topright"/>
  <outline>
    <contour>
      <point x="1169" y="477" type="curve" smooth="yes"/>
      <point x="1169" y="1366" type="line"/>
      <point x="1139" y="1372"/>
      <point x="1098" y="1374"/>
      <point x="1066" y="1374" type="curve" smooth="yes"/>
      <point x="1035" y="1374"/>
      <point x="998" y="1372"/>
      <point x="969" y="1366" type="curve"/>
      <point x="969" y="477" type="line" smooth="yes"/>
      <point x="969" y="254"/>
      <point x="864" y="137"/>
      <point x="668" y="137" type="curve" smooth="yes"/>
      <point x="473" y="137"/>
      <point x="368" y="254"/>
      <point x="368" y="477" type="curve" smooth="yes"/>
      <point x="368" y="1246" type="line" smooth="yes"/>
      <point x="368" y="1334"/>
      <point x="340" y="1374"/>
      <point x="257" y="1374" type="curve" smooth="yes"/>
      <point x="180" y="1374" type="line"/>
      <point x="168" y="1362" type="line"/>
      <point x="168" y="477" type="line" smooth="yes"/>
      <point x="168" y="147"/>
      <point x="367" y="-26"/>
      <point x="667" y="-26" type="curve" smooth="yes"/>
      <point x="969" y="-26"/>
      <point x="1169" y="147"/>
    </contour>
  </outline>
</glyph>
<glyph name="V" format="2">
  <advance width="1141"/>
  <unicode hex="0056"/>
  <anchor x="573" y="0" name="bottom"/>
  <anchor x="581" y="1464" name="top"/>
  <outline>
    <contour>
      <point x="920" y="1366" type="curve"/>
      <point x="595" y="182" type="line"/>
      <point x="586" y="182"/>
      <point x="582" y="184"/>
      <point x="578" y="200" type="curve" smooth="yes"/>
      <point x="553" y="304"/>
      <point x="517" y="446"/>
      <point x="490" y="542" type="curve" smooth="yes"/>
      <point x="275" y="1282" type="line" smooth="yes"/>
      <point x="255" y="1355"/>
      <point x="221" y="1380"/>
      <point x="166" y="1380" type="curve" smooth="yes"/>
      <point x="124" y="1380"/>
      <point x="81" y="1366"/>
      <point x="44" y="1349" type="curve"/>
      <point x="416" y="88" type="line" smooth="yes"/>
      <point x="437" y="13"/>
      <point x="476" y="-9"/>
      <point x="554" y="-9" type="curve" smooth="yes"/>
      <point x="606" y="-9"/>
      <point x="657" y="-7"/>
      <point x="707" y="-1" type="curve"/>
      <point x="1106" y="1348" type="line"/>
      <point x="1098" y="1362" type="line"/>
      <point x="1073" y="1369"/>
      <point x="1036" y="1374"/>
      <point x="1006" y="1374" type="curve" smooth="yes"/>
      <point x="975" y="1374"/>
      <point x="945" y="1372"/>
    </contour>
  </outline>
</glyph>
<glyph name="W" format="2">
  <advance width="1687"/>
  <unicode hex="0057"/>
  <anchor x="850" y="0" name="bottom"/>
  <anchor x="850" y="1464" name="top"/>
  <outline>
    <contour>
      <point x="64" y="1356" type="curve"/>
      <point x="317" y="91" type="line" smooth="yes"/>
      <point x="334" y="4"/>
      <point x="388" y="-9"/>
      <point x="451" y="-9" type="curve" smooth="yes"/>
      <point x="502" y="-9"/>
      <point x="574" y="-6"/>
      <point x="623" y="1" type="curve"/>
      <point x="750" y="638" type="line" smooth="yes"/>
      <point x="776" y="769"/>
      <point x="810" y="958"/>
      <point x="840" y="1135" type="curve"/>
      <point x="854" y="1135" type="line"/>
      <point x="881" y="958"/>
      <point x="915" y="766"/>
      <point x="937" y="638" type="curve" smooth="yes"/>
      <point x="1037" y="90" type="line" smooth="yes"/>
      <point x="1051" y="4"/>
      <point x="1100" y="-9"/>
      <point x="1160" y="-9" type="curve" smooth="yes"/>
      <point x="1211" y="-9"/>
      <point x="1291" y="-6"/>
      <point x="1340" y="2" type="curve"/>
      <point x="1629" y="1349" type="line"/>
      <point x="1619" y="1362" type="line"/>
      <point x="1591" y="1370"/>
      <point x="1554" y="1374"/>
      <point x="1524" y="1374" type="curve" smooth="yes"/>
      <point x="1495" y="1374"/>
      <point x="1460" y="1372"/>
      <point x="1433" y="1366" type="curve"/>
      <point x="1274" y="575" type="line" smooth="yes"/>
      <point x="1254" y="474"/>
      <point x="1220" y="289"/>
      <point x="1202" y="165" type="curve"/>
      <point x="1191" y="165"/>
      <point x="1188" y="167"/>
      <point x="1184" y="187" type="curve" smooth="yes"/>
      <point x="979" y="1337" type="line"/>
      <point x="946" y="1343"/>
      <point x="888" y="1346"/>
      <point x="850" y="1346" type="curve" smooth="yes"/>
      <point x="813" y="1346"/>
      <point x="758" y="1343"/>
      <point x="719" y="1337" type="curve"/>
      <point x="495" y="165" type="line"/>
      <point x="483" y="165"/>
      <point x="481" y="166"/>
      <point x="477" y="187" type="curve" smooth="yes"/>
      <point x="462" y="283"/>
      <point x="430" y="474"/>
      <point x="412" y="574" type="curve" smooth="yes"/>
      <point x="282" y="1272" type="line" smooth="yes"/>
      <point x="268" y="1353"/>
      <point x="241" y="1380"/>
      <point x="175" y="1380" type="curve" smooth="yes"/>
      <point x="139" y="1380"/>
      <point x="102" y="1373"/>
    </contour>
  </outline>
</glyph>
<glyph name="X" format="2">
  <advance width="1168"/>
  <unicode hex="0058"/>
  <anchor x="587" y="1464" name="top"/>
  <outline>
    <contour>
      <point x="88" y="1335" type="curve"/>
      <point x="870" y="67" type="line"/>
      <point x="908" y="6"/>
      <point x="947" y="-14"/>
      <point x="997" y="-14" type="curve" smooth="yes"/>
      <point x="1038" y="-14"/>
      <point x="1088" y="1"/>
      <point x="1130" y="31" type="curve"/>
      <point x="346" y="1300" type="line" smooth="yes"/>
      <point x="308" y="1360"/>
      <point x="270" y="1380"/>
      <point x="221" y="1380" type="curve" smooth="yes"/>
      <point x="179" y="1380"/>
      <point x="130" y="1365"/>
    </contour>
    <contour>
      <point x="893" y="1366" type="curve"/>
      <point x="581" y="852" type="line"/>
      <point x="499" y="764" type="line"/>
      <point x="38" y="23" type="line"/>
      <point x="45" y="9" type="line"/>
      <point x="69" y="-1"/>
      <point x="110" y="-9"/>
      <point x="150" y="-9" type="curve" smooth="yes"/>
      <point x="181" y="-9"/>
      <point x="218" y="-5"/>
      <point x="236" y="0" type="curve"/>
      <point x="592" y="589" type="line"/>
      <point x="674" y="676" type="line"/>
      <point x="1087" y="1344" type="line"/>
      <point x="1080" y="1357" type="line"/>
      <point x="1057" y="1367"/>
      <point x="1016" y="1375"/>
      <point x="976" y="1375" type="curve" smooth="yes"/>
      <point x="945" y="1375"/>
      <point x="911" y="1371"/>
    </contour>
  </outline>
</glyph>
<glyph name="Y" format="2">
  <advance width="997"/>
  <unicode hex="0059"/>
  <anchor x="499" y="0" name="bottom"/>
  <anchor x="506" y="1464" name="top"/>
  <outline>
    <contour>
      <point x="400" y="561" type="line"/>
      <point x="400" y="0" type="line"/>
      <point x="428" y="-6"/>
      <point x="469" y="-8"/>
      <point x="499" y="-8" type="curve" smooth="yes"/>
      <point x="532" y="-8"/>
      <point x="569" y="-6"/>
      <point x="600" y="0" type="curve"/>
      <point x="600" y="561" type="line"/>
    </contour>
    <contour>
      <point x="789" y="1366" type="curve"/>
      <point x="601" y="894" type="line" smooth="yes"/>
      <point x="580" y="840"/>
      <point x="536" y="722"/>
      <point x="514" y="645" type="curve"/>
      <point x="503" y="645" type="line"/>
      <point x="481" y="723"/>
      <point x="448" y="821"/>
      <point x="420" y="890" type="curve" smooth="yes"/>
      <point x="254" y="1293" type="line" smooth="yes"/>
      <point x="230" y="1353"/>
      <point x="202" y="1381"/>
      <point x="146" y="1381" type="curve" smooth="yes"/>
      <point x="108" y="1381"/>
      <point x="66" y="1369"/>
      <point x="20" y="1343" type="curve"/>
      <point x="420" y="397" type="line"/>
      <point x="582" y="397" type="line"/>
      <point x="979" y="1347" type="line"/>
      <point x="971" y="1361" type="line"/>
      <point x="942" y="1370"/>
      <point x="908" y="1375"/>
      <point x="874" y="1375" type="curve" smooth="yes"/>
      <point x="847" y="1375"/>
      <point x="816" y="1373"/>
    </contour>
  </outline>
</glyph>
<glyph name="Z" format="2">
  <advance width="1120"/>
  <unicode hex="005A"/>
  <anchor x="561" y="0" name="bottom"/>
  <anchor x="567" y="1464" name="top"/>
  <outline>
    <contour>
      <point x="637" y="991" type="curve" smooth="yes"/>
      <point x="125" y="216" type="line" smooth="yes"/>
      <point x="106" y="187"/>
      <point x="98" y="155"/>
      <point x="98" y="128" type="curve" smooth="yes"/>
      <point x="98" y="107"/>
      <point x="100" y="87"/>
      <point x="124" y="0" type="curve"/>
      <point x="883" y="0" type="line" smooth="yes"/>
      <point x="977" y="0"/>
      <point x="1023" y="40"/>
      <point x="1023" y="112" type="curve" smooth="yes"/>
      <point x="1023" y="146"/>
      <point x="1015" y="181"/>
      <point x="1006" y="210" type="curve"/>
      <point x="954" y="185"/>
      <point x="875" y="173"/>
      <point x="769" y="173" type="curve" smooth="yes"/>
      <point x="549" y="173" type="line" smooth="yes"/>
      <point x="490" y="173"/>
      <point x="400" y="169"/>
      <point x="315" y="162" type="curve"/>
      <point x="309" y="168" type="line"/>
      <point x="361" y="237"/>
      <point x="423" y="320"/>
      <point x="467" y="386" type="curve" smooth="yes"/>
      <point x="976" y="1154" type="line" smooth="yes"/>
      <point x="995" y="1184"/>
      <point x="1003" y="1210"/>
      <point x="1003" y="1236" type="curve" smooth="yes"/>
      <point x="1003" y="1255"/>
      <point x="1000" y="1277"/>
      <point x="974" y="1366" type="curve"/>
      <point x="157" y="1366" type="line"/>
      <point x="147" y="1331"/>
      <point x="142" y="1299"/>
      <point x="142" y="1264" type="curve" smooth="yes"/>
      <point x="142" y="1242"/>
      <point x="144" y="1219"/>
      <point x="149" y="1196" type="curve"/>
      <point x="475" y="1196" type="line" smooth="yes"/>
      <point x="534" y="1196"/>
      <point x="727" y="1201"/>
      <point x="788" y="1211" type="curve"/>
      <point x="794" y="1205" type="line"/>
      <point x="737" y="1129"/>
      <point x="680" y="1055"/>
    </contour>
  </outline>
</glyph>
<glyph name="bracketleft" format="2">
  <advance width="675"/>
  <unicode hex="005B"/>
  <outline>
    <contour>
      <point x="199" y="1514" type="line"/>
      <point x="199" y="-382" type="line"/>
      <point x="393" y="-325" type="line"/>
      <point x="393" y="1445" type="line"/>
    </contour>
    <contour>
      <point x="213" y="-395" type="line"/>
      <point x="607" y="-380" type="line"/>
      <point x="612" y="-363"/>
      <point x="613" y="-339"/>
      <point x="613" y="-323" type="curve" smooth="yes"/>
      <point x="613" y="-293"/>
      <point x="605" y="-259"/>
      <point x="598" y="-239" type="curve"/>
      <point x="215" y="-229" type="line"/>
      <point x="199" y="-382" type="line"/>
    </contour>
    <contour>
      <point x="607" y="1512" type="curve"/>
      <point x="213" y="1527" type="line"/>
      <point x="199" y="1514" type="line"/>
      <point x="215" y="1361" type="line"/>
      <point x="598" y="1371" type="line"/>
      <point x="605" y="1391"/>
      <point x="613" y="1426"/>
      <point x="613" y="1455" type="curve" smooth="yes"/>
      <point x="613" y="1472"/>
      <point x="612" y="1495"/>
    </contour>
  </outline>
</glyph>
<glyph name="backslash" format="2">
  <advance width="838"/>
  <unicode hex="005C"/>
  <outline>
    <contour>
      <point x="653" y="-319" type="curve"/>
      <point x="21" y="1358" type="line"/>
      <point x="70" y="1395"/>
      <point x="134" y="1417"/>
      <point x="190" y="1421" type="curve"/>
      <point x="822" y="-256" type="line"/>
      <point x="775" y="-292"/>
      <point x="708" y="-314"/>
    </contour>
  </outline>
</glyph>
<glyph name="bracketright" format="2">
  <advance width="675"/>
  <unicode hex="005D"/>
  <outline>
    <contour>
      <point x="476" y="1514" type="line"/>
      <point x="476" y="-382" type="line"/>
      <point x="281" y="-325" type="line"/>
      <point x="281" y="1445" type="line"/>
    </contour>
    <contour>
      <point x="462" y="-395" type="line"/>
      <point x="68" y="-380" type="line"/>
      <point x="63" y="-363"/>
      <point x="62" y="-339"/>
      <point x="62" y="-323" type="curve" smooth="yes"/>
      <point x="62" y="-293"/>
      <point x="70" y="-259"/>
      <point x="77" y="-239" type="curve"/>
      <point x="460" y="-229" type="line"/>
      <point x="476" y="-382" type="line"/>
    </contour>
    <contour>
      <point x="68" y="1512" type="curve"/>
      <point x="462" y="1527" type="line"/>
      <point x="476" y="1514" type="line"/>
      <point x="460" y="1361" type="line"/>
      <point x="77" y="1371" type="line"/>
      <point x="70" y="1391"/>
      <point x="62" y="1426"/>
      <point x="62" y="1455" type="curve" smooth="yes"/>
      <point x="62" y="1472"/>
      <point x="63" y="1495"/>
    </contour>
  </outline>
</glyph>
<glyph name="asciicircum" format="2">
  <advance width="1060"/>
  <unicode hex="005E"/>
  <outline>
    <contour>
      <point x="968" y="612" type="curve"/>
      <point x="635" y="1296" type="line"/>
      <point x="610" y="1302"/>
      <point x="571" y="1306"/>
      <point x="531" y="1306" type="curve" smooth="yes"/>
      <point x="491" y="1306"/>
      <point x="450" y="1302"/>
      <point x="425" y="1296" type="curve"/>
      <point x="92" y="612" type="line"/>
      <point x="114" y="606"/>
      <point x="151" y="602"/>
      <point x="189" y="602" type="curve" smooth="yes"/>
      <point x="224" y="602"/>
      <point x="260" y="605"/>
      <point x="284" y="612" type="curve"/>
      <point x="457" y="977" type="line" smooth="yes"/>
      <point x="478" y="1025"/>
      <point x="505" y="1095"/>
      <point x="523" y="1140" type="curve"/>
      <point x="537" y="1140" type="line"/>
      <point x="555" y="1095"/>
      <point x="582" y="1025"/>
      <point x="603" y="977" type="curve" smooth="yes"/>
      <point x="776" y="612" type="line"/>
      <point x="800" y="605"/>
      <point x="836" y="602"/>
      <point x="871" y="602" type="curve" smooth="yes"/>
      <point x="909" y="602"/>
      <point x="946" y="606"/>
    </contour>
  </outline>
</glyph>
<glyph name="underscore" format="2">
  <advance width="1051"/>
  <unicode hex="005F"/>
  <outline>
    <contour>
      <point x="-1" y="-305" type="curve"/>
      <point x="1051" y="-305" type="line"/>
      <point x="1057" y="-283"/>
      <point x="1060" y="-261"/>
      <point x="1060" y="-229" type="curve"/>
      <point x="1060" y="-196"/>
      <point x="1057" y="-176"/>
      <point x="1051" y="-151" type="curve"/>
      <point x="-1" y="-151" type="line"/>
      <point x="-7" y="-176"/>
      <point x="-9" y="-204"/>
      <point x="-9" y="-229" type="curve" smooth="yes"/>
      <point x="-9" y="-255"/>
      <point x="-7" y="-283"/>
    </contour>
  </outline>
</glyph>
<glyph name="a" format="2">
  <advance width="1012"/>
  <unicode hex="0061"/>
  <anchor x="498" y="0" name="bottom"/>
  <anchor x="841" y="-15" name="ogonek"/>
  <anchor x="488" y="1084" name="top"/>
  <outline>
    <contour>
      <point x="90" y="268" type="curve" smooth="yes"/>
      <point x="90" y="126"/>
      <point x="185" y="-26"/>
      <point x="383" y="-26" type="curve" smooth="yes"/>
      <point x="558" y="-26"/>
      <point x="681" y="98"/>
      <point x="752" y="182" type="curve"/>
      <point x="722" y="335" type="line"/>
      <point x="645" y="199"/>
      <point x="522" y="129"/>
      <point x="423" y="129" type="curve" smooth="yes"/>
      <point x="333" y="129"/>
      <point x="283" y="196"/>
      <point x="283" y="282" type="curve" smooth="yes"/>
      <point x="283" y="394"/>
      <point x="356" y="461"/>
      <point x="481" y="461" type="curve" smooth="yes"/>
      <point x="561" y="461"/>
      <point x="659" y="457"/>
      <point x="732" y="441" type="curve"/>
      <point x="732" y="572" type="line"/>
      <point x="650" y="591"/>
      <point x="547" y="597"/>
      <point x="471" y="597" type="curve" smooth="yes"/>
      <point x="253" y="597"/>
      <point x="90" y="495"/>
    </contour>
    <contour>
      <point x="916" y="85" type="curve"/>
      <point x="869" y="127"/>
      <point x="860" y="185"/>
      <point x="860" y="262" type="curve" smooth="yes"/>
      <point x="860" y="672" type="line" smooth="yes"/>
      <point x="860" y="898"/>
      <point x="736" y="1007"/>
      <point x="537" y="1007" type="curve" smooth="yes"/>
      <point x="400" y="1007"/>
      <point x="236" y="962"/>
      <point x="127" y="915" type="curve"/>
      <point x="129" y="865"/>
      <point x="153" y="802"/>
      <point x="185" y="771" type="curve"/>
      <point x="290" y="814"/>
      <point x="400" y="849"/>
      <point x="502" y="849" type="curve" smooth="yes"/>
      <point x="607" y="849"/>
      <point x="669" y="797"/>
      <point x="669" y="666" type="curve" smooth="yes"/>
      <point x="669" y="212" type="line"/>
      <point x="675" y="108"/>
      <point x="720" y="12"/>
      <point x="841" y="-15" type="curve"/>
      <point x="873" y="5"/>
      <point x="905" y="50"/>
    </contour>
  </outline>
</glyph>
<glyph name="b" format="2">
  <advance width="1054"/>
  <unicode hex="0062"/>
  <anchor x="522" y="0" name="bottom"/>
  <anchor x="555" y="1520" name="top"/>
  <outline>
    <contour>
      <point x="350" y="50" type="line"/>
      <point x="350" y="1345" type="line" smooth="yes"/>
      <point x="350" y="1432"/>
      <point x="328" y="1471"/>
      <point x="245" y="1471" type="curve" smooth="yes"/>
      <point x="173" y="1471" type="line"/>
      <point x="161" y="1458" type="line"/>
      <point x="161" y="50" type="line"/>
    </contour>
    <contour>
      <point x="964" y="505" type="curve" smooth="yes"/>
      <point x="964" y="796"/>
      <point x="847" y="1003"/>
      <point x="619" y="1003" type="curve" smooth="yes"/>
      <point x="458" y="1003"/>
      <point x="341" y="902"/>
      <point x="282" y="824" type="curve"/>
      <point x="311" y="664" type="line"/>
      <point x="367" y="766"/>
      <point x="474" y="841"/>
      <point x="577" y="840" type="curve" smooth="yes"/>
      <point x="682" y="840"/>
      <point x="766" y="742"/>
      <point x="766" y="504" type="curve" smooth="yes"/>
      <point x="766" y="253"/>
      <point x="662" y="130"/>
      <point x="522" y="130" type="curve" smooth="yes"/>
      <point x="419" y="130"/>
      <point x="341" y="151"/>
      <point x="257" y="201" type="curve"/>
      <point x="161" y="50" type="line"/>
      <point x="272" y="8"/>
      <point x="395" y="-15"/>
      <point x="521" y="-15" type="curve" smooth="yes"/>
      <point x="759" y="-15"/>
      <point x="964" y="152"/>
    </contour>
  </outline>
</glyph>
<glyph name="c" format="2">
  <advance width="941"/>
  <unicode hex="0063"/>
  <anchor x="496" y="0" name="bottom"/>
  <anchor x="503" y="1084" name="top"/>
  <outline>
    <contour>
      <point x="685" y="612" type="curve"/>
      <point x="712" y="607"/>
      <point x="736" y="604"/>
      <point x="766" y="604" type="curve" smooth="yes"/>
      <point x="838" y="604"/>
      <point x="865" y="648"/>
      <point x="865" y="714" type="curve" smooth="yes"/>
      <point x="865" y="845"/>
      <point x="753" y="1012"/>
      <point x="507" y="1012" type="curve" smooth="yes"/>
      <point x="297" y="1012"/>
      <point x="91" y="855"/>
      <point x="91" y="487" type="curve" smooth="yes"/>
      <point x="91" y="216"/>
      <point x="210" y="-26"/>
      <point x="496" y="-26" type="curve" smooth="yes"/>
      <point x="639" y="-26"/>
      <point x="763" y="33"/>
      <point x="854" y="121" type="curve"/>
      <point x="845" y="164"/>
      <point x="806" y="216"/>
      <point x="771" y="238" type="curve"/>
      <point x="700" y="185"/>
      <point x="618" y="135"/>
      <point x="525" y="135" type="curve" smooth="yes"/>
      <point x="378" y="135"/>
      <point x="292" y="243"/>
      <point x="292" y="487" type="curve" smooth="yes"/>
      <point x="292" y="736"/>
      <point x="371" y="862"/>
      <point x="502" y="862" type="curve" smooth="yes"/>
      <point x="652" y="862"/>
      <point x="691" y="739"/>
    </contour>
  </outline>
</glyph>
<glyph name="d" format="2">
  <advance width="1057"/>
  <unicode hex="0064"/>
  <guideline x="529" y="-1" angle="90.0"/>
  <anchor x="545" y="0" name="bottom"/>
  <anchor x="493" y="1520" name="top"/>
  <anchor x="894" y="986" name="topright"/>
  <outline>
    <contour>
      <point x="894" y="280" type="curve" smooth="yes"/>
      <point x="894" y="1345" type="line" smooth="yes"/>
      <point x="894" y="1432"/>
      <point x="872" y="1471"/>
      <point x="790" y="1471" type="curve" smooth="yes"/>
      <point x="717" y="1471" type="line"/>
      <point x="704" y="1458" type="line"/>
      <point x="704" y="245" type="line" smooth="yes"/>
      <point x="704" y="121"/>
      <point x="749" y="14"/>
      <point x="875" y="-15" type="curve"/>
      <point x="908" y="5"/>
      <point x="939" y="50"/>
      <point x="950" y="85" type="curve"/>
      <point x="905" y="126"/>
      <point x="894" y="201"/>
    </contour>
    <contour>
      <point x="91" y="481" type="curve" smooth="yes"/>
      <point x="91" y="181"/>
      <point x="207" y="-26"/>
      <point x="433" y="-26" type="curve" smooth="yes"/>
      <point x="620" y="-26"/>
      <point x="762" y="114"/>
      <point x="802" y="246" type="curve"/>
      <point x="764" y="396" type="line"/>
      <point x="713" y="220"/>
      <point x="582" y="137"/>
      <point x="477" y="137" type="curve" smooth="yes"/>
      <point x="377" y="137"/>
      <point x="288" y="236"/>
      <point x="288" y="480" type="curve" smooth="yes"/>
      <point x="288" y="731"/>
      <point x="384" y="846"/>
      <point x="498" y="846" type="curve" smooth="yes"/>
      <point x="602" y="846"/>
      <point x="701" y="776"/>
      <point x="777" y="716" type="curve"/>
      <point x="797" y="873" type="line"/>
      <point x="704" y="942"/>
      <point x="598" y="1003"/>
      <point x="473" y="1003" type="curve" smooth="yes"/>
      <point x="285" y="1003"/>
      <point x="91" y="840"/>
    </contour>
  </outline>
</glyph>
<glyph name="e" format="2">
  <advance width="1002"/>
  <unicode hex="0065"/>
  <anchor x="517" y="0" name="bottom"/>
  <anchor x="683" y="0" name="ogonek"/>
  <anchor x="510" y="1084" name="top"/>
  <outline>
    <contour>
      <point x="212" y="432" type="line"/>
      <point x="886" y="432" type="line"/>
      <point x="896" y="486"/>
      <point x="900" y="524"/>
      <point x="900" y="585" type="curve" smooth="yes"/>
      <point x="900" y="822"/>
      <point x="763" y="1012"/>
      <point x="505" y="1012" type="curve" smooth="yes"/>
      <point x="232" y="1012"/>
      <point x="91" y="790"/>
      <point x="91" y="492" type="curve" smooth="yes"/>
      <point x="91" y="221"/>
      <point x="187" y="-26"/>
      <point x="500" y="-26" type="curve" smooth="yes"/>
      <point x="638" y="-26"/>
      <point x="777" y="20"/>
      <point x="872" y="87" type="curve"/>
      <point x="866" y="127"/>
      <point x="843" y="181"/>
      <point x="810" y="212" type="curve"/>
      <point x="725" y="167"/>
      <point x="631" y="134"/>
      <point x="529" y="134" type="curve" smooth="yes"/>
      <point x="342" y="134"/>
      <point x="292" y="281"/>
      <point x="292" y="476" type="curve" smooth="yes"/>
      <point x="292" y="536" type="line" smooth="yes"/>
      <point x="292" y="740"/>
      <point x="363" y="867"/>
      <point x="505" y="867" type="curve" smooth="yes"/>
      <point x="654" y="867"/>
      <point x="712" y="746"/>
      <point x="712" y="600" type="curve" smooth="yes"/>
      <point x="712" y="574" type="line"/>
      <point x="212" y="574" type="line"/>
    </contour>
  </outline>
</glyph>
<glyph name="f" format="2">
  <advance width="661"/>
  <unicode hex="0066"/>
  <anchor x="449" y="1527" name="top"/>
  <outline>
    <contour>
      <point x="297" y="984" type="line"/>
      <point x="33" y="988" type="line"/>
      <point x="27" y="963"/>
      <point x="25" y="941"/>
      <point x="25" y="916" type="curve" smooth="yes"/>
      <point x="25" y="892"/>
      <point x="27" y="867"/>
      <point x="33" y="844" type="curve"/>
      <point x="297" y="848" type="line"/>
      <point x="666" y="844" type="line"/>
      <point x="671" y="867"/>
      <point x="673" y="892"/>
      <point x="673" y="916" type="curve" smooth="yes"/>
      <point x="673" y="941"/>
      <point x="671" y="963"/>
      <point x="666" y="988" type="curve"/>
    </contour>
    <contour>
      <point x="205" y="902" type="curve"/>
      <point x="205" y="0" type="line"/>
      <point x="233" y="-5"/>
      <point x="268" y="-8"/>
      <point x="299" y="-8" type="curve" smooth="yes"/>
      <point x="330" y="-8"/>
      <point x="365" y="-5"/>
      <point x="394" y="0" type="curve"/>
      <point x="394" y="899" type="line"/>
      <point x="381" y="991"/>
      <point x="366" y="1080"/>
      <point x="366" y="1160" type="curve" smooth="yes"/>
      <point x="366" y="1271"/>
      <point x="423" y="1332"/>
      <point x="517" y="1332" type="curve" smooth="yes"/>
      <point x="574" y="1332"/>
      <point x="638" y="1317"/>
      <point x="692" y="1302" type="curve"/>
      <point x="719" y="1331"/>
      <point x="737" y="1387"/>
      <point x="736" y="1433" type="curve"/>
      <point x="676" y="1456"/>
      <point x="573" y="1479"/>
      <point x="487" y="1479" type="curve" smooth="yes"/>
      <point x="293" y="1479"/>
      <point x="183" y="1345"/>
      <point x="183" y="1171" type="curve" smooth="yes"/>
      <point x="183" y="1091"/>
      <point x="197" y="998"/>
    </contour>
  </outline>
</glyph>
<glyph name="g" format="2">
  <advance width="1054"/>
  <unicode hex="0067"/>
  <anchor x="515" y="-418" name="bottom"/>
  <anchor x="532" y="1084" name="top"/>
  <outline>
    <contour>
      <point x="952" y="900" type="curve"/>
      <point x="943" y="936"/>
      <point x="910" y="981"/>
      <point x="877" y="1000" type="curve"/>
      <point x="751" y="972"/>
      <point x="709" y="865"/>
      <point x="709" y="741" type="curve"/>
      <point x="709" y="-2" type="line" smooth="yes"/>
      <point x="709" y="-159"/>
      <point x="668" y="-289"/>
      <point x="458" y="-289" type="curve" smooth="yes"/>
      <point x="381" y="-289"/>
      <point x="268" y="-266"/>
      <point x="185" y="-226" type="curve"/>
      <point x="156" y="-261"/>
      <point x="135" y="-324"/>
      <point x="133" y="-373" type="curve"/>
      <point x="224" y="-410"/>
      <point x="353" y="-441"/>
      <point x="477" y="-441" type="curve" smooth="yes"/>
      <point x="626" y="-441"/>
      <point x="740" y="-387"/>
      <point x="802" y="-310" type="curve" smooth="yes"/>
      <point x="865" y="-231"/>
      <point x="896" y="-119"/>
      <point x="896" y="106" type="curve" smooth="yes"/>
      <point x="896" y="706" type="line" smooth="yes"/>
      <point x="896" y="785"/>
      <point x="907" y="860"/>
    </contour>
    <contour>
      <point x="91" y="491" type="curve" smooth="yes"/>
      <point x="91" y="187"/>
      <point x="207" y="-17"/>
      <point x="438" y="-17" type="curve" smooth="yes"/>
      <point x="598" y="-17"/>
      <point x="725" y="94"/>
      <point x="779" y="182" type="curve"/>
      <point x="750" y="334" type="line"/>
      <point x="694" y="226"/>
      <point x="585" y="146"/>
      <point x="475" y="146" type="curve" smooth="yes"/>
      <point x="373" y="146"/>
      <point x="288" y="246"/>
      <point x="288" y="490" type="curve" smooth="yes"/>
      <point x="288" y="741"/>
      <point x="381" y="855"/>
      <point x="501" y="855" type="curve" smooth="yes"/>
      <point x="604" y="855"/>
      <point x="717" y="778"/>
      <point x="786" y="673" type="curve"/>
      <point x="812" y="840" type="line"/>
      <point x="742" y="924"/>
      <point x="644" y="1012"/>
      <point x="471" y="1012" type="curve" smooth="yes"/>
      <point x="286" y="1012"/>
      <point x="91" y="847"/>
    </contour>
  </outline>
</glyph>
<glyph name="h" format="2">
  <advance width="1087"/>
  <unicode hex="0068"/>
  <anchor x="555" y="0" name="bottom"/>
  <anchor x="549" y="1520" name="top"/>
  <outline>
    <contour>
      <point x="350" y="0" type="curve"/>
      <point x="350" y="1345" type="line" smooth="yes"/>
      <point x="350" y="1432"/>
      <point x="329" y="1471"/>
      <point x="246" y="1471" type="curve" smooth="yes"/>
      <point x="173" y="1471" type="line"/>
      <point x="161" y="1458" type="line"/>
      <point x="161" y="0" type="line"/>
      <point x="188" y="-5"/>
      <point x="220" y="-8"/>
      <point x="255" y="-8" type="curve" smooth="yes"/>
      <point x="290" y="-8"/>
      <point x="324" y="-5"/>
    </contour>
    <contour>
      <point x="936" y="206" type="curve" smooth="yes"/>
      <point x="936" y="678" type="line" smooth="yes"/>
      <point x="936" y="859"/>
      <point x="860" y="1002"/>
      <point x="673" y="1002" type="curve" smooth="yes"/>
      <point x="528" y="1002"/>
      <point x="389" y="921"/>
      <point x="301" y="817" type="curve"/>
      <point x="301" y="628" type="line"/>
      <point x="365" y="747"/>
      <point x="508" y="828"/>
      <point x="613" y="828" type="curve" smooth="yes"/>
      <point x="715" y="828"/>
      <point x="743" y="768"/>
      <point x="743" y="628" type="curve" smooth="yes"/>
      <point x="743" y="111" type="line" smooth="yes"/>
      <point x="743" y="29"/>
      <point x="770" y="-13"/>
      <point x="845" y="-13" type="curve" smooth="yes"/>
      <point x="892" y="-13"/>
      <point x="939" y="4"/>
      <point x="967" y="28" type="curve"/>
      <point x="943" y="75"/>
      <point x="936" y="138"/>
    </contour>
  </outline>
</glyph>
<glyph name="l" format="2">
  <advance width="582"/>
  <unicode hex="006C"/>
  <anchor x="337" y="0" name="bottom"/>
  <anchor x="582" y="786" name="periodcentered"/>
  <anchor x="246" y="1558" name="top"/>
  <anchor x="347" y="986" name="topright"/>
  <outline>
    <contour>
      <point x="501" y="146" type="curve"/>
      <point x="425" y="146" type="line"/>
      <point x="372" y="146"/>
      <point x="347" y="176"/>
      <point x="347" y="233" type="curve" smooth="yes"/>
      <point x="347" y="1345" type="line" smooth="yes"/>
      <point x="347" y="1432"/>
      <point x="325" y="1471"/>
      <point x="243" y="1471" type="curve" smooth="yes"/>
      <point x="170" y="1471" type="line"/>
      <point x="157" y="1458" type="line"/>
      <point x="157" y="189" type="line" smooth="yes"/>
      <point x="157" y="57"/>
      <point x="225" y="-9"/>
      <point x="348" y="-9" type="curve" smooth="yes"/>
      <point x="400" y="-9"/>
      <point x="468" y="-1"/>
      <point x="513" y="6" type="curve"/>
      <point x="517" y="18"/>
      <point x="517" y="33"/>
      <point x="517" y="47" type="curve" smooth="yes"/>
      <point x="517" y="82"/>
      <point x="511" y="118"/>
    </contour>
  </outline>
</glyph>
<glyph name="m" format="2">
  <advance width="1592"/>
  <unicode hex="006D"/>
  <anchor x="801" y="0" name="bottom"/>
  <anchor x="791" y="1084" name="top"/>
  <outline>
    <contour>
      <point x="246" y="994" type="curve" smooth="yes"/>
      <point x="173" y="994" type="line"/>
      <point x="161" y="980" type="line"/>
      <point x="161" y="0" type="line"/>
      <point x="188" y="-5"/>
      <point x="223" y="-8"/>
      <point x="258" y="-8" type="curve" smooth="yes"/>
      <point x="293" y="-8"/>
      <point x="328" y="-5"/>
      <point x="354" y="0" type="curve"/>
      <point x="354" y="857" type="line" smooth="yes"/>
      <point x="354" y="943"/>
      <point x="327" y="994"/>
    </contour>
    <contour>
      <point x="703" y="629" type="curve" smooth="yes"/>
      <point x="703" y="0" type="line"/>
      <point x="730" y="-5"/>
      <point x="765" y="-8"/>
      <point x="801" y="-8" type="curve" smooth="yes"/>
      <point x="835" y="-8"/>
      <point x="870" y="-5"/>
      <point x="897" y="0" type="curve"/>
      <point x="897" y="693" type="line" smooth="yes"/>
      <point x="897" y="866"/>
      <point x="813" y="1004"/>
      <point x="639" y="1004" type="curve" smooth="yes"/>
      <point x="506" y="1004"/>
      <point x="374" y="913"/>
      <point x="288" y="788" type="curve"/>
      <point x="288" y="595" type="line"/>
      <point x="344" y="727"/>
      <point x="479" y="828"/>
      <point x="580" y="829" type="curve" smooth="yes"/>
      <point x="664" y="829"/>
      <point x="703" y="774"/>
    </contour>
    <contour>
      <point x="1247" y="631" type="curve"/>
      <point x="1247" y="111" type="line" smooth="yes"/>
      <point x="1247" y="29"/>
      <point x="1274" y="-13"/>
      <point x="1349" y="-13" type="curve" smooth="yes"/>
      <point x="1396" y="-13"/>
      <point x="1443" y="4"/>
      <point x="1471" y="28" type="curve"/>
      <point x="1447" y="75"/>
      <point x="1441" y="138"/>
      <point x="1441" y="206" type="curve" smooth="yes"/>
      <point x="1441" y="692" type="line" smooth="yes"/>
      <point x="1441" y="865"/>
      <point x="1360" y="1004"/>
      <point x="1185" y="1004" type="curve" smooth="yes"/>
      <point x="1053" y="1004"/>
      <point x="924" y="922"/>
      <point x="825" y="814" type="curve"/>
      <point x="825" y="591" type="line"/>
      <point x="893" y="733"/>
      <point x="1026" y="829"/>
      <point x="1123" y="829" type="curve" smooth="yes"/>
      <point x="1207" y="829"/>
      <point x="1247" y="776"/>
    </contour>
  </outline>
</glyph>
<glyph name="n" format="2">
  <advance width="1091"/>
  <unicode hex="006E"/>
  <anchor x="555" y="0" name="bottom"/>
  <anchor x="556" y="1084" name="top"/>
  <outline>
    <contour>
      <point x="246" y="994" type="curve" smooth="yes"/>
      <point x="173" y="994" type="line"/>
      <point x="161" y="982" type="line"/>
      <point x="161" y="0" type="line"/>
      <point x="188" y="-5"/>
      <point x="223" y="-8"/>
      <point x="258" y="-8" type="curve" smooth="yes"/>
      <point x="293" y="-8"/>
      <point x="328" y="-5"/>
      <point x="354" y="0" type="curve"/>
      <point x="354" y="857" type="line" smooth="yes"/>
      <point x="354" y="943"/>
      <point x="328" y="994"/>
    </contour>
    <contour>
      <point x="940" y="206" type="curve" smooth="yes"/>
      <point x="940" y="679" type="line" smooth="yes"/>
      <point x="940" y="860"/>
      <point x="864" y="1004"/>
      <point x="676" y="1004" type="curve" smooth="yes"/>
      <point x="532" y="1004"/>
      <point x="393" y="923"/>
      <point x="304" y="819" type="curve"/>
      <point x="304" y="630" type="line"/>
      <point x="369" y="749"/>
      <point x="511" y="829"/>
      <point x="617" y="829" type="curve" smooth="yes"/>
      <point x="719" y="829"/>
      <point x="747" y="769"/>
      <point x="747" y="630" type="curve" smooth="yes"/>
      <point x="747" y="111" type="line" smooth="yes"/>
      <point x="747" y="29"/>
      <point x="774" y="-13"/>
      <point x="849" y="-13" type="curve" smooth="yes"/>
      <point x="896" y="-13"/>
      <point x="943" y="4"/>
      <point x="971" y="28" type="curve"/>
      <point x="947" y="75"/>
      <point x="940" y="138"/>
    </contour>
  </outline>
</glyph>
<glyph name="o" format="2">
  <advance width="1040"/>
  <unicode hex="006F"/>
  <anchor x="519" y="0" name="bottom"/>
  <anchor x="674" y="0" name="ogonek"/>
  <anchor x="519" y="1084" name="top"/>
  <anchor x="801" y="963" name="topright"/>
  <outline>
    <contour>
      <point x="948" y="493" type="curve" smooth="yes"/>
      <point x="948" y="795"/>
      <point x="803" y="1012"/>
      <point x="519" y="1012" type="curve" smooth="yes"/>
      <point x="239" y="1012"/>
      <point x="91" y="796"/>
      <point x="91" y="493" type="curve" smooth="yes"/>
      <point x="91" y="192"/>
      <point x="236" y="-26"/>
      <point x="519" y="-26" type="curve" smooth="yes"/>
      <point x="801" y="-26"/>
      <point x="948" y="188"/>
    </contour>
    <contour>
      <point x="291" y="493" type="curve" smooth="yes"/>
      <point x="291" y="680"/>
      <point x="342" y="864"/>
      <point x="521" y="864" type="curve" smooth="yes"/>
      <point x="698" y="864"/>
      <point x="748" y="680"/>
      <point x="748" y="493" type="curve" smooth="yes"/>
      <point x="748" y="304"/>
      <point x="698" y="123"/>
      <point x="521" y="123" type="curve" smooth="yes"/>
      <point x="342" y="123"/>
      <point x="291" y="304"/>
    </contour>
  </outline>
</glyph>
<glyph name="p" format="2">
  <advance width="1058"/>
  <unicode hex="0070"/>
  <anchor x="524" y="1084" name="top"/>
  <outline>
    <contour>
      <point x="234" y="994" type="curve" smooth="yes"/>
      <point x="173" y="994" type="line"/>
      <point x="161" y="982" type="line"/>
      <point x="161" y="-418" type="line"/>
      <point x="173" y="-431" type="line"/>
      <point x="246" y="-431" type="line" smooth="yes"/>
      <point x="329" y="-431"/>
      <point x="351" y="-392"/>
      <point x="351" y="-305" type="curve" smooth="yes"/>
      <point x="351" y="845" type="line" smooth="yes"/>
      <point x="351" y="939"/>
      <point x="318" y="994"/>
    </contour>
    <contour>
      <point x="967" y="505" type="curve" smooth="yes"/>
      <point x="967" y="805"/>
      <point x="851" y="1012"/>
      <point x="625" y="1012" type="curve" smooth="yes"/>
      <point x="438" y="1012"/>
      <point x="296" y="872"/>
      <point x="256" y="740" type="curve"/>
      <point x="294" y="590" type="line"/>
      <point x="346" y="766"/>
      <point x="477" y="849"/>
      <point x="581" y="849" type="curve" smooth="yes"/>
      <point x="681" y="849"/>
      <point x="770" y="750"/>
      <point x="770" y="505" type="curve" smooth="yes"/>
      <point x="770" y="254"/>
      <point x="674" y="140"/>
      <point x="560" y="140" type="curve" smooth="yes"/>
      <point x="456" y="140"/>
      <point x="357" y="210"/>
      <point x="281" y="269" type="curve"/>
      <point x="261" y="113" type="line"/>
      <point x="354" y="44"/>
      <point x="460" y="-17"/>
      <point x="586" y="-17" type="curve" smooth="yes"/>
      <point x="773" y="-17"/>
      <point x="967" y="146"/>
    </contour>
  </outline>
</glyph>
<glyph name="q" format="2">
  <advance width="1056"/>
  <unicode hex="0071"/>
  <outline>
    <contour>
      <point x="91" y="491" type="curve" smooth="yes"/>
      <point x="91" y="187"/>
      <point x="207" y="-17"/>
      <point x="438" y="-17" type="curve" smooth="yes"/>
      <point x="598" y="-17"/>
      <point x="725" y="91"/>
      <point x="779" y="179" type="curve"/>
      <point x="750" y="334" type="line"/>
      <point x="694" y="226"/>
      <point x="585" y="146"/>
      <point x="475" y="146" type="curve" smooth="yes"/>
      <point x="375" y="146"/>
      <point x="288" y="246"/>
      <point x="288" y="490" type="curve" smooth="yes"/>
      <point x="288" y="741"/>
      <point x="384" y="855"/>
      <point x="501" y="855" type="curve" smooth="yes"/>
      <point x="604" y="855"/>
      <point x="717" y="778"/>
      <point x="786" y="673" type="curve"/>
      <point x="812" y="843" type="line"/>
      <point x="742" y="927"/>
      <point x="644" y="1012"/>
      <point x="471" y="1012" type="curve" smooth="yes"/>
      <point x="286" y="1012"/>
      <point x="91" y="847"/>
    </contour>
    <contour>
      <point x="706" y="741" type="curve" smooth="yes"/>
      <point x="706" y="-305" type="line" smooth="yes"/>
      <point x="706" y="-392"/>
      <point x="727" y="-431"/>
      <point x="810" y="-431" type="curve" smooth="yes"/>
      <point x="883" y="-431" type="line"/>
      <point x="895" y="-418" type="line"/>
      <point x="895" y="706" type="line" smooth="yes"/>
      <point x="895" y="785"/>
      <point x="907" y="860"/>
      <point x="951" y="900" type="curve"/>
      <point x="941" y="936"/>
      <point x="909" y="981"/>
      <point x="876" y="1000" type="curve"/>
      <point x="751" y="972"/>
      <point x="706" y="865"/>
    </contour>
  </outline>
</glyph>
<glyph name="r" format="2">
  <advance width="730"/>
  <unicode hex="0072"/>
  <anchor x="276" y="0" name="bottom"/>
  <anchor x="402" y="1084" name="top"/>
  <outline>
    <contour>
      <point x="718" y="989" type="curve"/>
      <point x="680" y="996"/>
      <point x="648" y="1000"/>
      <point x="615" y="1000" type="curve" smooth="yes"/>
      <point x="387" y="1000"/>
      <point x="308" y="776"/>
      <point x="303" y="591" type="curve"/>
      <point x="332" y="555" type="line"/>
      <point x="367" y="666"/>
      <point x="435" y="814"/>
      <point x="593" y="814" type="curve"/>
      <point x="619" y="813"/>
      <point x="646" y="812"/>
      <point x="672" y="806" type="curve"/>
      <point x="705" y="859"/>
      <point x="718" y="936"/>
    </contour>
    <contour>
      <point x="105" y="896" type="curve"/>
      <point x="140" y="864"/>
      <point x="178" y="795"/>
      <point x="178" y="691" type="curve" smooth="yes"/>
      <point x="178" y="0" type="line"/>
      <point x="205" y="-5"/>
      <point x="240" y="-8"/>
      <point x="276" y="-8" type="curve" smooth="yes"/>
      <point x="310" y="-8"/>
      <point x="345" y="-5"/>
      <point x="372" y="0" type="curve"/>
      <point x="372" y="708" type="line"/>
      <point x="363" y="861"/>
      <point x="304" y="970"/>
      <point x="178" y="1000" type="curve"/>
      <point x="146" y="980"/>
      <point x="114" y="932"/>
    </contour>
  </outline>
</glyph>
<glyph name="s" format="2">
  <advance width="874"/>
  <unicode hex="0073"/>
  <anchor x="432" y="0" name="bottom"/>
  <anchor x="435" y="1084" name="top"/>
  <outline>
    <contour>
      <point x="64" y="74" type="curve"/>
      <point x="150" y="21"/>
      <point x="271" y="-26"/>
      <point x="411" y="-26" type="curve" smooth="yes"/>
      <point x="642" y="-26"/>
      <point x="798" y="85"/>
      <point x="798" y="269" type="curve" smooth="yes"/>
      <point x="798" y="421"/>
      <point x="695" y="513"/>
      <point x="546" y="567" type="curve" smooth="yes"/>
      <point x="423" y="613" type="line" smooth="yes"/>
      <point x="336" y="645"/>
      <point x="293" y="680"/>
      <point x="293" y="739" type="curve" smooth="yes"/>
      <point x="293" y="813"/>
      <point x="354" y="862"/>
      <point x="445" y="862" type="curve" smooth="yes"/>
      <point x="545" y="862"/>
      <point x="643" y="828"/>
      <point x="711" y="797" type="curve"/>
      <point x="746" y="828"/>
      <point x="769" y="892"/>
      <point x="768" y="941" type="curve"/>
      <point x="686" y="979"/>
      <point x="554" y="1012"/>
      <point x="447" y="1012" type="curve" smooth="yes"/>
      <point x="249" y="1012"/>
      <point x="97" y="901"/>
      <point x="97" y="721" type="curve" smooth="yes"/>
      <point x="97" y="570"/>
      <point x="214" y="488"/>
      <point x="352" y="437" type="curve" smooth="yes"/>
      <point x="468" y="395" type="line" smooth="yes"/>
      <point x="553" y="363"/>
      <point x="598" y="311"/>
      <point x="598" y="252" type="curve" smooth="yes"/>
      <point x="596" y="175"/>
      <point x="525" y="121"/>
      <point x="412" y="121" type="curve" smooth="yes"/>
      <point x="313" y="121"/>
      <point x="214" y="164"/>
      <point x="130" y="210" type="curve"/>
      <point x="96" y="180"/>
      <point x="66" y="118"/>
    </contour>
  </outline>
</glyph>
<glyph name="t" format="2">
  <advance width="695"/>
  <unicode hex="0074"/>
  <anchor x="397" y="0" name="bottom"/>
  <anchor x="322" y="1363" name="top"/>
  <anchor x="387" y="986" name="topright"/>
  <outline>
    <contour>
      <point x="197" y="1168" type="curve" smooth="yes"/>
      <point x="197" y="189" type="line" smooth="yes"/>
      <point x="197" y="57"/>
      <point x="271" y="-9"/>
      <point x="402" y="-9" type="curve" smooth="yes"/>
      <point x="481" y="-9"/>
      <point x="556" y="-3"/>
      <point x="621" y="6" type="curve"/>
      <point x="624" y="18"/>
      <point x="625" y="33"/>
      <point x="625" y="47" type="curve" smooth="yes"/>
      <point x="625" y="82"/>
      <point x="619" y="118"/>
      <point x="609" y="146" type="curve"/>
      <point x="468" y="146" type="line" smooth="yes"/>
      <point x="408" y="146"/>
      <point x="387" y="180"/>
      <point x="387" y="232" type="curve" smooth="yes"/>
      <point x="387" y="1280" type="line"/>
      <point x="374" y="1293" type="line"/>
      <point x="301" y="1293" type="line" smooth="yes"/>
      <point x="219" y="1293"/>
      <point x="197" y="1254"/>
    </contour>
    <contour>
      <point x="635" y="988" type="curve"/>
      <point x="315" y="983" type="line"/>
      <point x="52" y="988" type="line"/>
      <point x="46" y="962"/>
      <point x="44" y="941"/>
      <point x="44" y="916" type="curve" smooth="yes"/>
      <point x="44" y="891"/>
      <point x="46" y="868"/>
      <point x="52" y="844" type="curve"/>
      <point x="314" y="848" type="line"/>
      <point x="635" y="844" type="line"/>
      <point x="641" y="868"/>
      <point x="644" y="891"/>
      <point x="644" y="916" type="curve" smooth="yes"/>
      <point x="644" y="941"/>
      <point x="641" y="962"/>
    </contour>
  </outline>
</glyph>
<glyph name="u" format="2">
  <advance width="1094"/>
  <unicode hex="0075"/>
  <anchor x="537" y="0" name="bottom"/>
  <anchor x="911" y="-15" name="ogonek"/>
  <anchor x="536" y="1084" name="top"/>
  <anchor x="930" y="986" name="topright"/>
  <outline>
    <contour>
      <point x="930" y="279" type="curve" smooth="yes"/>
      <point x="930" y="986" type="line"/>
      <point x="904" y="991"/>
      <point x="869" y="994"/>
      <point x="833" y="994" type="curve" smooth="yes"/>
      <point x="798" y="994"/>
      <point x="763" y="991"/>
      <point x="737" y="986" type="curve"/>
      <point x="737" y="246" type="line" smooth="yes"/>
      <point x="737" y="122"/>
      <point x="785" y="14"/>
      <point x="911" y="-15" type="curve"/>
      <point x="944" y="5"/>
      <point x="976" y="49"/>
      <point x="986" y="84" type="curve"/>
      <point x="942" y="125"/>
      <point x="930" y="200"/>
    </contour>
    <contour>
      <point x="151" y="779" type="curve" smooth="yes"/>
      <point x="151" y="307" type="line" smooth="yes"/>
      <point x="151" y="126"/>
      <point x="227" y="-18"/>
      <point x="415" y="-18" type="curve" smooth="yes"/>
      <point x="560" y="-18"/>
      <point x="698" y="63"/>
      <point x="787" y="167" type="curve"/>
      <point x="787" y="356" type="line"/>
      <point x="722" y="237"/>
      <point x="580" y="157"/>
      <point x="474" y="157" type="curve" smooth="yes"/>
      <point x="372" y="157"/>
      <point x="344" y="217"/>
      <point x="344" y="356" type="curve" smooth="yes"/>
      <point x="344" y="875" type="line" smooth="yes"/>
      <point x="344" y="957"/>
      <point x="317" y="999"/>
      <point x="242" y="999" type="curve" smooth="yes"/>
      <point x="196" y="999"/>
      <point x="149" y="982"/>
      <point x="120" y="957" type="curve"/>
      <point x="144" y="911"/>
      <point x="151" y="848"/>
    </contour>
  </outline>
</glyph>
<glyph name="v" format="2">
  <advance width="905"/>
  <unicode hex="0076"/>
  <anchor x="457" y="0" name="bottom"/>
  <anchor x="452" y="1084" name="top"/>
  <outline>
    <contour>
      <point x="712" y="987" type="curve"/>
      <point x="469" y="159" type="line"/>
      <point x="457" y="159"/>
      <point x="454" y="160"/>
      <point x="451" y="175" type="curve" smooth="yes"/>
      <point x="437" y="236"/>
      <point x="402" y="369"/>
      <point x="370" y="472" type="curve" smooth="yes"/>
      <point x="230" y="919" type="line" smooth="yes"/>
      <point x="214" y="979"/>
      <point x="180" y="1001"/>
      <point x="127" y="1001" type="curve" smooth="yes"/>
      <point x="94" y="1001"/>
      <point x="58" y="992"/>
      <point x="14" y="971" type="curve"/>
      <point x="296" y="101" type="line" smooth="yes"/>
      <point x="326" y="5"/>
      <point x="359" y="-11"/>
      <point x="437" y="-11" type="curve" smooth="yes"/>
      <point x="482" y="-11"/>
      <point x="534" y="-8"/>
      <point x="576" y="0" type="curve"/>
      <point x="651" y="218"/>
      <point x="794" y="662"/>
      <point x="889" y="971" type="curve"/>
      <point x="884" y="980" type="line"/>
      <point x="854" y="990"/>
      <point x="821" y="994"/>
      <point x="786" y="994" type="curve" smooth="yes"/>
      <point x="763" y="994"/>
      <point x="739" y="993"/>
    </contour>
  </outline>
</glyph>
<glyph name="w" format="2">
  <advance width="1437"/>
  <unicode hex="0077"/>
  <anchor x="723" y="0" name="bottom"/>
  <anchor x="723" y="1084" name="top"/>
  <outline>
    <contour>
      <point x="49" y="974" type="curve"/>
      <point x="258" y="100" type="line" smooth="yes"/>
      <point x="281" y="6"/>
      <point x="326" y="-9"/>
      <point x="390" y="-9" type="curve" smooth="yes"/>
      <point x="439" y="-9"/>
      <point x="505" y="-7"/>
      <point x="547" y="0" type="curve"/>
      <point x="632" y="385" type="line" smooth="yes"/>
      <point x="654" y="492"/>
      <point x="690" y="661"/>
      <point x="717" y="804" type="curve"/>
      <point x="726" y="804" type="line"/>
      <point x="754" y="660"/>
      <point x="785" y="490"/>
      <point x="806" y="384" type="curve" smooth="yes"/>
      <point x="866" y="99" type="line" smooth="yes"/>
      <point x="884" y="4"/>
      <point x="930" y="-9"/>
      <point x="1003" y="-9" type="curve" smooth="yes"/>
      <point x="1050" y="-9"/>
      <point x="1112" y="-7"/>
      <point x="1150" y="-1" type="curve"/>
      <point x="1395" y="970" type="line"/>
      <point x="1389" y="980" type="line"/>
      <point x="1364" y="991"/>
      <point x="1324" y="995"/>
      <point x="1293" y="995" type="curve" smooth="yes"/>
      <point x="1263" y="995"/>
      <point x="1230" y="992"/>
      <point x="1209" y="987" type="curve"/>
      <point x="1097" y="496" type="line" smooth="yes"/>
      <point x="1070" y="377"/>
      <point x="1047" y="263"/>
      <point x="1022" y="144" type="curve"/>
      <point x="1012" y="144"/>
      <point x="1010" y="147"/>
      <point x="1006" y="162" type="curve" smooth="yes"/>
      <point x="838" y="982" type="line"/>
      <point x="811" y="989"/>
      <point x="751" y="991"/>
      <point x="722" y="991" type="curve" smooth="yes"/>
      <point x="695" y="991"/>
      <point x="636" y="989"/>
      <point x="606" y="982" type="curve"/>
      <point x="431" y="144" type="line"/>
      <point x="421" y="144"/>
      <point x="418" y="147"/>
      <point x="415" y="162" type="curve" smooth="yes"/>
      <point x="400" y="238"/>
      <point x="375" y="371"/>
      <point x="348" y="496" type="curve" smooth="yes"/>
      <point x="254" y="922" type="line" smooth="yes"/>
      <point x="242" y="980"/>
      <point x="213" y="1001"/>
      <point x="163" y="1001" type="curve" smooth="yes"/>
      <point x="131" y="1001"/>
      <point x="94" y="994"/>
    </contour>
  </outline>
</glyph>
<glyph name="x" format="2">
  <advance width="916"/>
  <unicode hex="0078"/>
  <anchor x="452" y="1084" name="top"/>
  <outline>
    <contour>
      <point x="59" y="958" type="curve"/>
      <point x="651" y="43" type="line"/>
      <point x="676" y="5"/>
      <point x="703" y="-15"/>
      <point x="751" y="-15" type="curve" smooth="yes"/>
      <point x="795" y="-15"/>
      <point x="848" y="6"/>
      <point x="885" y="30" type="curve"/>
      <point x="289" y="944" type="line" smooth="yes"/>
      <point x="264" y="982"/>
      <point x="240" y="1003"/>
      <point x="192" y="1003" type="curve" smooth="yes"/>
      <point x="149" y="1003"/>
      <point x="97" y="984"/>
    </contour>
    <contour>
      <point x="663" y="986" type="curve"/>
      <point x="437" y="618" type="line"/>
      <point x="378" y="557" type="line"/>
      <point x="33" y="21" type="line"/>
      <point x="40" y="6" type="line"/>
      <point x="64" y="-5"/>
      <point x="100" y="-11"/>
      <point x="137" y="-11" type="curve" smooth="yes"/>
      <point x="165" y="-11"/>
      <point x="202" y="-7"/>
      <point x="219" y="-1" type="curve"/>
      <point x="481" y="424" type="line"/>
      <point x="535" y="480" type="line"/>
      <point x="845" y="965" type="line"/>
      <point x="838" y="980" type="line"/>
      <point x="815" y="988"/>
      <point x="782" y="995"/>
      <point x="743" y="995" type="curve" smooth="yes"/>
      <point x="715" y="995"/>
      <point x="681" y="991"/>
    </contour>
  </outline>
</glyph>
<glyph name="y" format="2">
  <advance width="928"/>
  <unicode hex="0079"/>
  <anchor x="746" y="-97" name="bottom"/>
  <anchor x="463" y="1084" name="top"/>
  <outline>
    <contour>
      <point x="637" y="32" type="curve" smooth="yes"/>
      <point x="903" y="970" type="line"/>
      <point x="897" y="981" type="line"/>
      <point x="867" y="991"/>
      <point x="832" y="995"/>
      <point x="797" y="995" type="curve" smooth="yes"/>
      <point x="770" y="995"/>
      <point x="738" y="992"/>
      <point x="713" y="987" type="curve"/>
      <point x="489" y="133" type="line"/>
      <point x="479" y="133"/>
      <point x="473" y="135"/>
      <point x="470" y="147" type="curve" smooth="yes"/>
      <point x="451" y="224"/>
      <point x="420" y="349"/>
      <point x="392" y="444" type="curve" smooth="yes"/>
      <point x="251" y="913" type="line" smooth="yes"/>
      <point x="232" y="982"/>
      <point x="199" y="1001"/>
      <point x="153" y="1001" type="curve" smooth="yes"/>
      <point x="121" y="1001"/>
      <point x="81" y="991"/>
      <point x="36" y="971" type="curve"/>
      <point x="302" y="96" type="line" smooth="yes"/>
      <point x="327" y="17"/>
      <point x="371" y="-7"/>
      <point x="450" y="-10" type="curve"/>
      <point x="443" y="-33" type="line" smooth="yes"/>
      <point x="396" y="-190"/>
      <point x="337" y="-290"/>
      <point x="198" y="-290" type="curve" smooth="yes"/>
      <point x="147" y="-290"/>
      <point x="85" y="-278"/>
      <point x="54" y="-267" type="curve"/>
      <point x="28" y="-297"/>
      <point x="8" y="-360"/>
      <point x="12" y="-406" type="curve"/>
      <point x="52" y="-420"/>
      <point x="136" y="-437"/>
      <point x="197" y="-437" type="curve" smooth="yes"/>
      <point x="457" y="-437"/>
      <point x="548" y="-276"/>
    </contour>
  </outline>
</glyph>
<glyph name="z" format="2">
  <advance width="891"/>
  <unicode hex="007A"/>
  <anchor x="449" y="0" name="bottom"/>
  <anchor x="449" y="1084" name="top"/>
  <outline>
    <contour>
      <point x="441" y="645" type="curve" smooth="yes"/>
      <point x="103" y="186" type="line" smooth="yes"/>
      <point x="81" y="155"/>
      <point x="73" y="130"/>
      <point x="73" y="108" type="curve" smooth="yes"/>
      <point x="73" y="82"/>
      <point x="80" y="58"/>
      <point x="100" y="0" type="curve"/>
      <point x="696" y="0" type="line" smooth="yes"/>
      <point x="791" y="0"/>
      <point x="821" y="35"/>
      <point x="821" y="93" type="curve" smooth="yes"/>
      <point x="821" y="121"/>
      <point x="815" y="150"/>
      <point x="803" y="180" type="curve"/>
      <point x="754" y="159"/>
      <point x="678" y="153"/>
      <point x="584" y="153" type="curve" smooth="yes"/>
      <point x="485" y="153" type="line" smooth="yes"/>
      <point x="437" y="153"/>
      <point x="363" y="151"/>
      <point x="297" y="146" type="curve"/>
      <point x="291" y="153" type="line"/>
      <point x="339" y="210"/>
      <point x="401" y="287"/>
      <point x="447" y="349" type="curve" smooth="yes"/>
      <point x="782" y="803" type="line" smooth="yes"/>
      <point x="799" y="826"/>
      <point x="807" y="850"/>
      <point x="807" y="870" type="curve" smooth="yes"/>
      <point x="807" y="898"/>
      <point x="798" y="929"/>
      <point x="778" y="986" type="curve"/>
      <point x="113" y="986" type="line"/>
      <point x="106" y="956"/>
      <point x="102" y="921"/>
      <point x="102" y="898" type="curve" smooth="yes"/>
      <point x="102" y="881"/>
      <point x="103" y="855"/>
      <point x="108" y="835" type="curve"/>
      <point x="325" y="835" type="line" smooth="yes"/>
      <point x="409" y="835"/>
      <point x="538" y="840"/>
      <point x="593" y="846" type="curve"/>
      <point x="599" y="839" type="line"/>
      <point x="549" y="778"/>
      <point x="486" y="707"/>
    </contour>
  </outline>
</glyph>
<glyph name="braceleft" format="2">
  <advance width="680"/>
  <unicode hex="007B"/>
  <outline>
    <contour>
      <point x="84" y="615" type="curve"/>
      <point x="71" y="584"/>
      <point x="71" y="517"/>
      <point x="84" y="486" type="curve"/>
      <point x="176" y="456"/>
      <point x="247" y="368"/>
      <point x="247" y="249" type="curve" smooth="yes"/>
      <point x="247" y="-95" type="line" smooth="yes"/>
      <point x="247" y="-284"/>
      <point x="365" y="-391"/>
      <point x="527" y="-418" type="curve" smooth="yes"/>
      <point x="625" y="-434" type="line"/>
      <point x="652" y="-405"/>
      <point x="670" y="-339"/>
      <point x="660" y="-299" type="curve"/>
      <point x="563" y="-269" type="line" smooth="yes"/>
      <point x="488" y="-245"/>
      <point x="445" y="-185"/>
      <point x="445" y="-93" type="curve" smooth="yes"/>
      <point x="445" y="245" type="line" smooth="yes"/>
      <point x="445" y="370"/>
      <point x="380" y="495"/>
      <point x="280" y="542" type="curve"/>
      <point x="280" y="558" type="line"/>
      <point x="380" y="606"/>
      <point x="445" y="731"/>
      <point x="445" y="856" type="curve" smooth="yes"/>
      <point x="445" y="1192" type="line" smooth="yes"/>
      <point x="445" y="1284"/>
      <point x="488" y="1345"/>
      <point x="563" y="1368" type="curve" smooth="yes"/>
      <point x="660" y="1399" type="line"/>
      <point x="670" y="1438"/>
      <point x="652" y="1504"/>
      <point x="625" y="1533" type="curve"/>
      <point x="527" y="1517" type="line" smooth="yes"/>
      <point x="365" y="1490"/>
      <point x="247" y="1383"/>
      <point x="247" y="1194" type="curve" smooth="yes"/>
      <point x="247" y="852" type="line" smooth="yes"/>
      <point x="247" y="731"/>
      <point x="176" y="645"/>
    </contour>
  </outline>
</glyph>
<glyph name="bar" format="2">
  <advance width="507"/>
  <unicode hex="007C"/>
  <outline>
    <contour>
      <point x="163" y="1549" type="curve"/>
      <point x="163" y="-281" type="line"/>
      <point x="189" y="-287"/>
      <point x="228" y="-289"/>
      <point x="253" y="-289" type="curve" smooth="yes"/>
      <point x="283" y="-289"/>
      <point x="316" y="-287"/>
      <point x="345" y="-281" type="curve"/>
      <point x="345" y="1549" type="line"/>
      <point x="316" y="1555"/>
      <point x="283" y="1557"/>
      <point x="253" y="1557" type="curve" smooth="yes"/>
      <point x="228" y="1557"/>
      <point x="189" y="1555"/>
    </contour>
  </outline>
</glyph>
<glyph name="braceright" format="2">
  <advance width="680"/>
  <unicode hex="007D"/>
  <outline>
    <contour>
      <point x="596" y="615" type="curve"/>
      <point x="609" y="584"/>
      <point x="609" y="517"/>
      <point x="596" y="486" type="curve"/>
      <point x="504" y="456"/>
      <point x="433" y="368"/>
      <point x="433" y="249" type="curve" smooth="yes"/>
      <point x="433" y="-95" type="line" smooth="yes"/>
      <point x="433" y="-284"/>
      <point x="315" y="-391"/>
      <point x="153" y="-418" type="curve" smooth="yes"/>
      <point x="55" y="-434" type="line"/>
      <point x="28" y="-405"/>
      <point x="11" y="-339"/>
      <point x="20" y="-299" type="curve"/>
      <point x="117" y="-269" type="line" smooth="yes"/>
      <point x="193" y="-245"/>
      <point x="235" y="-185"/>
      <point x="235" y="-93" type="curve" smooth="yes"/>
      <point x="235" y="245" type="line" smooth="yes"/>
      <point x="235" y="370"/>
      <point x="300" y="495"/>
      <point x="401" y="542" type="curve"/>
      <point x="401" y="558" type="line"/>
      <point x="300" y="606"/>
      <point x="235" y="731"/>
      <point x="235" y="856" type="curve" smooth="yes"/>
      <point x="235" y="1192" type="line" smooth="yes"/>
      <point x="235" y="1284"/>
      <point x="193" y="1345"/>
      <point x="117" y="1368" type="curve" smooth="yes"/>
      <point x="20" y="1399" type="line"/>
      <point x="11" y="1438"/>
      <point x="28" y="1504"/>
      <point x="55" y="1533" type="curve"/>
      <point x="153" y="1517" type="line" smooth="yes"/>
      <point x="315" y="1490"/>
      <point x="433" y="1383"/>
      <point x="433" y="1194" type="curve" smooth="yes"/>
      <point x="433" y="852" type="line" smooth="yes"/>
      <point x="433" y="731"/>
      <point x="504" y="645"/>
    </contour>
  </outline>
</glyph>
<glyph name="asciitilde" format="2">
  <advance width="1160"/>
  <unicode hex="007E"/>
  <outline>
    <contour>
      <point x="701" y="634" type="curve" smooth="yes"/>
      <point x="545" y="704" type="line" smooth="yes"/>
      <point x="489" y="729"/>
      <point x="431" y="745"/>
      <point x="376" y="745" type="curve" smooth="yes"/>
      <point x="257" y="745"/>
      <point x="167" y="684"/>
      <point x="106" y="573" type="curve" smooth="yes"/>
      <point x="81" y="529" type="line"/>
      <point x="99" y="486"/>
      <point x="154" y="457"/>
      <point x="196" y="454" type="curve"/>
      <point x="232" y="496" type="line" smooth="yes"/>
      <point x="266" y="537"/>
      <point x="306" y="563"/>
      <point x="354" y="563" type="curve" smooth="yes"/>
      <point x="388" y="563"/>
      <point x="423" y="553"/>
      <point x="459" y="538" type="curve" smooth="yes"/>
      <point x="616" y="467" type="line" smooth="yes"/>
      <point x="671" y="442"/>
      <point x="730" y="427"/>
      <point x="784" y="427" type="curve" smooth="yes"/>
      <point x="903" y="427"/>
      <point x="994" y="488"/>
      <point x="1054" y="599" type="curve" smooth="yes"/>
      <point x="1079" y="643" type="line"/>
      <point x="1061" y="686"/>
      <point x="1006" y="715"/>
      <point x="964" y="718" type="curve"/>
      <point x="928" y="675" type="line" smooth="yes"/>
      <point x="895" y="634"/>
      <point x="854" y="609"/>
      <point x="806" y="609" type="curve" smooth="yes"/>
      <point x="773" y="609"/>
      <point x="738" y="619"/>
    </contour>
  </outline>
</glyph>
<glyph name="cent" format="2">
  <advance width="1080"/>
  <unicode hex="00A2"/>
  <outline>
    <contour>
      <point x="565" y="-50" type="curve" smooth="yes"/>
      <point x="590" y="-50"/>
      <point x="623" y="-47"/>
      <point x="644" y="-42" type="curve"/>
      <point x="644" y="236" type="line"/>
      <point x="486" y="236" type="line"/>
      <point x="486" y="-42" type="line"/>
      <point x="507" y="-47"/>
      <point x="540" y="-50"/>
    </contour>
    <contour>
      <point x="492" y="1019" type="line"/>
      <point x="650" y="1019" type="line"/>
      <point x="650" y="1308" type="line"/>
      <point x="629" y="1313"/>
      <point x="598" y="1316"/>
      <point x="571" y="1316" type="curve" smooth="yes"/>
      <point x="545" y="1316"/>
      <point x="513" y="1313"/>
      <point x="492" y="1308" type="curve"/>
    </contour>
    <contour>
      <point x="566" y="135" type="curve" smooth="yes"/>
      <point x="714" y="135"/>
      <point x="862" y="197"/>
      <point x="948" y="293" type="curve"/>
      <point x="934" y="336"/>
      <point x="894" y="385"/>
      <point x="857" y="406" type="curve"/>
      <point x="787" y="345"/>
      <point x="693" y="297"/>
      <point x="594" y="297" type="curve" smooth="yes"/>
      <point x="428" y="297"/>
      <point x="329" y="405"/>
      <point x="329" y="628" type="curve" smooth="yes"/>
      <point x="329" y="854"/>
      <point x="417" y="980"/>
      <point x="570" y="980" type="curve" smooth="yes"/>
      <point x="734" y="980"/>
      <point x="783" y="848"/>
      <point x="777" y="732" type="curve"/>
      <point x="800" y="726"/>
      <point x="825" y="723"/>
      <point x="852" y="723" type="curve" smooth="yes"/>
      <point x="929" y="723"/>
      <point x="955" y="768"/>
      <point x="955" y="839" type="curve" smooth="yes"/>
      <point x="955" y="963"/>
      <point x="836" y="1131"/>
      <point x="575" y="1131" type="curve" smooth="yes"/>
      <point x="344" y="1131"/>
      <point x="128" y="975"/>
      <point x="128" y="628" type="curve" smooth="yes"/>
      <point x="128" y="399"/>
      <point x="235" y="135"/>
    </contour>
  </outline>
</glyph>
<glyph name="sterling" format="2">
  <advance width="1080"/>
  <unicode hex="00A3"/>
  <guideline x="150" y="116" angle="90.0"/>
  <outline>
    <contour>
      <point x="177" y="0" type="curve"/>
      <point x="846" y="0" type="line" smooth="yes"/>
      <point x="931" y="0"/>
      <point x="975" y="31"/>
      <point x="975" y="166" type="curve"/>
      <point x="672" y="166" type="line" smooth="yes"/>
      <point x="553" y="166"/>
      <point x="439" y="162"/>
      <point x="353" y="156" type="curve"/>
      <point x="348" y="161" type="line"/>
      <point x="439" y="244"/>
      <point x="518" y="356"/>
      <point x="518" y="495" type="curve" smooth="yes"/>
      <point x="518" y="659"/>
      <point x="443" y="792"/>
      <point x="443" y="923" type="curve" smooth="yes"/>
      <point x="443" y="1064"/>
      <point x="533" y="1129"/>
      <point x="637" y="1129" type="curve" smooth="yes"/>
      <point x="715" y="1129"/>
      <point x="795" y="1092"/>
      <point x="862" y="1030" type="curve"/>
      <point x="911" y="1055"/>
      <point x="949" y="1113"/>
      <point x="959" y="1163" type="curve"/>
      <point x="887" y="1229"/>
      <point x="775" y="1295"/>
      <point x="627" y="1295" type="curve" smooth="yes"/>
      <point x="379" y="1295"/>
      <point x="242" y="1116"/>
      <point x="242" y="933" type="curve" smooth="yes"/>
      <point x="242" y="776"/>
      <point x="335" y="641"/>
      <point x="335" y="481" type="curve" smooth="yes"/>
      <point x="335" y="381"/>
      <point x="288" y="314"/>
      <point x="229" y="247" type="curve" smooth="yes"/>
      <point x="204" y="220" type="line" smooth="yes"/>
      <point x="178" y="192"/>
      <point x="150" y="161"/>
      <point x="150" y="118" type="curve" smooth="yes"/>
      <point x="150" y="95"/>
      <point x="154" y="68"/>
    </contour>
    <contour>
      <point x="158" y="536" type="curve"/>
      <point x="401" y="537" type="line"/>
      <point x="808" y="536" type="line"/>
      <point x="813" y="555"/>
      <point x="816" y="584"/>
      <point x="816" y="609" type="curve" smooth="yes"/>
      <point x="816" y="635"/>
      <point x="813" y="660"/>
      <point x="808" y="680" type="curve"/>
      <point x="401" y="678" type="line"/>
      <point x="158" y="680" type="line"/>
      <point x="153" y="657"/>
      <point x="150" y="633"/>
      <point x="150" y="607" type="curve" smooth="yes"/>
      <point x="150" y="580"/>
      <point x="153" y="556"/>
    </contour>
  </outline>
</glyph>
<glyph name="currency" format="2">
  <advance width="1080"/>
  <unicode hex="00A4"/>
  <outline>
    <contour>
      <point x="538" y="248" type="curve" smooth="yes"/>
      <point x="765" y="248"/>
      <point x="925" y="409"/>
      <point x="925" y="632" type="curve" smooth="yes"/>
      <point x="925" y="857"/>
      <point x="765" y="1018"/>
      <point x="538" y="1018" type="curve" smooth="yes"/>
      <point x="314" y="1018"/>
      <point x="154" y="857"/>
      <point x="154" y="632" type="curve" smooth="yes"/>
      <point x="154" y="409"/>
      <point x="314" y="248"/>
    </contour>
    <contour>
      <point x="538" y="390" type="curve" smooth="yes"/>
      <point x="407" y="390"/>
      <point x="334" y="500"/>
      <point x="334" y="632" type="curve" smooth="yes"/>
      <point x="334" y="766"/>
      <point x="407" y="876"/>
      <point x="538" y="876" type="curve" smooth="yes"/>
      <point x="671" y="876"/>
      <point x="745" y="766"/>
      <point x="745" y="632" type="curve" smooth="yes"/>
      <point x="745" y="499"/>
      <point x="671" y="390"/>
    </contour>
    <contour>
      <point x="164" y="150" type="curve"/>
      <point x="385" y="352" type="line"/>
      <point x="261" y="477" type="line"/>
      <point x="57" y="257" type="line"/>
      <point x="80" y="214"/>
      <point x="121" y="172"/>
    </contour>
    <contour>
      <point x="261" y="787" type="line"/>
      <point x="384" y="913" type="line"/>
      <point x="164" y="1115" type="line"/>
      <point x="121" y="1091"/>
      <point x="79" y="1051"/>
      <point x="57" y="1007" type="curve"/>
    </contour>
    <contour>
      <point x="820" y="788" type="line"/>
      <point x="1023" y="1009" type="line"/>
      <point x="1000" y="1052"/>
      <point x="959" y="1093"/>
      <point x="916" y="1116" type="curve"/>
      <point x="695" y="914" type="line"/>
    </contour>
    <contour>
      <point x="914" y="149" type="line"/>
      <point x="958" y="173"/>
      <point x="999" y="213"/>
      <point x="1022" y="256" type="curve"/>
      <point x="818" y="476" type="line"/>
      <point x="694" y="352" type="line"/>
    </contour>
  </outline>
</glyph>
<glyph name="yen" format="2">
  <advance width="1080"/>
  <unicode hex="00A5"/>
  <guideline x="779" y="1166" angle="332.0383888"/>
  <outline>
    <contour>
      <point x="445" y="443" type="line"/>
      <point x="631" y="443" type="line"/>
      <point x="990" y="1252" type="line"/>
      <point x="982" y="1267" type="line"/>
      <point x="949" y="1276"/>
      <point x="916" y="1280"/>
      <point x="884" y="1280" type="curve" smooth="yes"/>
      <point x="860" y="1280"/>
      <point x="831" y="1278"/>
      <point x="804" y="1270" type="curve"/>
      <point x="640" y="872" type="line" smooth="yes"/>
      <point x="611" y="801"/>
      <point x="576" y="710"/>
      <point x="550" y="630" type="curve"/>
      <point x="539" y="630" type="line"/>
      <point x="513" y="718"/>
      <point x="486" y="795"/>
      <point x="454" y="873" type="curve" smooth="yes"/>
      <point x="313" y="1207" type="line" smooth="yes"/>
      <point x="292" y="1262"/>
      <point x="264" y="1286"/>
      <point x="216" y="1286" type="curve" smooth="yes"/>
      <point x="176" y="1286"/>
      <point x="133" y="1273"/>
      <point x="90" y="1250" type="curve"/>
    </contour>
    <contour>
      <point x="538" y="-8" type="curve" smooth="yes"/>
      <point x="566" y="-8"/>
      <point x="604" y="-6"/>
      <point x="634" y="0" type="curve"/>
      <point x="634" y="504" type="line"/>
      <point x="442" y="504" type="line"/>
      <point x="442" y="0" type="line"/>
      <point x="470" y="-6"/>
      <point x="511" y="-8"/>
    </contour>
    <contour>
      <point x="150" y="329" type="curve"/>
      <point x="926" y="329" type="line"/>
      <point x="931" y="351"/>
      <point x="934" y="376"/>
      <point x="934" y="399" type="curve" smooth="yes"/>
      <point x="934" y="423"/>
      <point x="931" y="447"/>
      <point x="926" y="467" type="curve"/>
      <point x="150" y="467" type="line"/>
      <point x="145" y="448"/>
      <point x="142" y="424"/>
      <point x="142" y="399" type="curve" smooth="yes"/>
      <point x="142" y="372"/>
      <point x="145" y="350"/>
    </contour>
    <contour>
      <point x="150" y="626" type="curve"/>
      <point x="422" y="626" type="line"/>
      <point x="422" y="765" type="line"/>
      <point x="150" y="766" type="line"/>
      <point x="145" y="745"/>
      <point x="142" y="721"/>
      <point x="142" y="696" type="curve" smooth="yes"/>
      <point x="142" y="671"/>
      <point x="145" y="646"/>
    </contour>
    <contour>
      <point x="654" y="626" type="line"/>
      <point x="926" y="626" type="line"/>
      <point x="931" y="648"/>
      <point x="934" y="673"/>
      <point x="934" y="697" type="curve" smooth="yes"/>
      <point x="934" y="723"/>
      <point x="931" y="747"/>
      <point x="926" y="766" type="curve"/>
      <point x="654" y="765" type="line"/>
    </contour>
  </outline>
</glyph>
<glyph name="brokenbar" format="2">
  <advance width="495"/>
  <unicode hex="00A6"/>
  <outline>
    <contour>
      <point x="157" y="493" type="curve"/>
      <point x="157" y="-281" type="line"/>
      <point x="184" y="-287"/>
      <point x="222" y="-289"/>
      <point x="247" y="-289" type="curve" smooth="yes"/>
      <point x="277" y="-289"/>
      <point x="309" y="-287"/>
      <point x="338" y="-281" type="curve"/>
      <point x="338" y="493" type="line"/>
      <point x="309" y="499"/>
      <point x="277" y="501"/>
      <point x="247" y="501" type="curve" smooth="yes"/>
      <point x="222" y="501"/>
      <point x="184" y="499"/>
    </contour>
    <contour>
      <point x="157" y="1549" type="curve"/>
      <point x="157" y="775" type="line"/>
      <point x="184" y="769"/>
      <point x="222" y="767"/>
      <point x="247" y="767" type="curve" smooth="yes"/>
      <point x="277" y="767"/>
      <point x="309" y="769"/>
      <point x="338" y="775" type="curve"/>
      <point x="338" y="1549" type="line"/>
      <point x="309" y="1555"/>
      <point x="277" y="1557"/>
      <point x="247" y="1557" type="curve" smooth="yes"/>
      <point x="222" y="1557"/>
      <point x="184" y="1555"/>
    </contour>
  </outline>
</glyph>
<glyph name="section" format="2">
  <advance width="967"/>
  <unicode hex="00A7"/>
  <outline>
    <contour>
      <point x="508" y="361" type="curve"/>
      <point x="576" y="263" type="line"/>
      <point x="746" y="314"/>
      <point x="905" y="441"/>
      <point x="905" y="607" type="curve" smooth="yes"/>
      <point x="905" y="785"/>
      <point x="751" y="870"/>
      <point x="583" y="938" type="curve" smooth="yes"/>
      <point x="467" y="984" type="line" smooth="yes"/>
      <point x="384" y="1017"/>
      <point x="336" y="1055"/>
      <point x="336" y="1118" type="curve" smooth="yes"/>
      <point x="336" y="1194"/>
      <point x="402" y="1242"/>
      <point x="495" y="1242" type="curve" smooth="yes"/>
      <point x="585" y="1242"/>
      <point x="677" y="1210"/>
      <point x="746" y="1180" type="curve"/>
      <point x="781" y="1209"/>
      <point x="805" y="1273"/>
      <point x="803" y="1322" type="curve"/>
      <point x="721" y="1361"/>
      <point x="598" y="1392"/>
      <point x="493" y="1392" type="curve" smooth="yes"/>
      <point x="294" y="1392"/>
      <point x="140" y="1276"/>
      <point x="140" y="1104" type="curve" smooth="yes"/>
      <point x="140" y="950"/>
      <point x="259" y="862"/>
      <point x="396" y="808" type="curve" smooth="yes"/>
      <point x="502" y="767" type="line" smooth="yes"/>
      <point x="611" y="724"/>
      <point x="711" y="673"/>
      <point x="711" y="578" type="curve" smooth="yes"/>
      <point x="711" y="473"/>
      <point x="613" y="400"/>
    </contour>
    <contour>
      <point x="461" y="818" type="curve"/>
      <point x="394" y="916" type="line"/>
      <point x="224" y="865"/>
      <point x="65" y="738"/>
      <point x="65" y="572" type="curve" smooth="yes"/>
      <point x="65" y="394"/>
      <point x="218" y="309"/>
      <point x="386" y="241" type="curve" smooth="yes"/>
      <point x="503" y="195" type="line" smooth="yes"/>
      <point x="586" y="162"/>
      <point x="634" y="122"/>
      <point x="634" y="60" type="curve" smooth="yes"/>
      <point x="634" y="-16"/>
      <point x="569" y="-64"/>
      <point x="467" y="-64" type="curve" smooth="yes"/>
      <point x="357" y="-64"/>
      <point x="263" y="-24"/>
      <point x="197" y="9" type="curve"/>
      <point x="164" y="-16"/>
      <point x="132" y="-81"/>
      <point x="133" y="-130" type="curve"/>
      <point x="215" y="-181"/>
      <point x="349" y="-214"/>
      <point x="462" y="-214" type="curve" smooth="yes"/>
      <point x="677" y="-214"/>
      <point x="830" y="-98"/>
      <point x="830" y="74" type="curve" smooth="yes"/>
      <point x="830" y="228"/>
      <point x="711" y="317"/>
      <point x="574" y="371" type="curve" smooth="yes"/>
      <point x="468" y="412" type="line" smooth="yes"/>
      <point x="356" y="456"/>
      <point x="258" y="506"/>
      <point x="258" y="601" type="curve" smooth="yes"/>
      <point x="258" y="706"/>
      <point x="357" y="779"/>
    </contour>
  </outline>
</glyph>
<glyph name="copyright" format="2">
  <advance width="1608"/>
  <unicode hex="00A9"/>
  <outline>
    <contour>
      <point x="83" y="682" type="curve" smooth="yes"/>
      <point x="83" y="275"/>
      <point x="396" y="-38"/>
      <point x="803" y="-38" type="curve" smooth="yes"/>
      <point x="1210" y="-38"/>
      <point x="1525" y="275"/>
      <point x="1525" y="682" type="curve" smooth="yes"/>
      <point x="1525" y="1089"/>
      <point x="1210" y="1404"/>
      <point x="803" y="1404" type="curve" smooth="yes"/>
      <point x="396" y="1404"/>
      <point x="83" y="1089"/>
    </contour>
    <contour>
      <point x="248" y="682" type="curve" smooth="yes"/>
      <point x="248" y="1002"/>
      <point x="482" y="1264"/>
      <point x="803" y="1264" type="curve" smooth="yes"/>
      <point x="1124" y="1264"/>
      <point x="1360" y="1002"/>
      <point x="1360" y="682" type="curve" smooth="yes"/>
      <point x="1360" y="362"/>
      <point x="1124" y="102"/>
      <point x="803" y="102" type="curve" smooth="yes"/>
      <point x="482" y="102"/>
      <point x="248" y="362"/>
    </contour>
    <contour>
      <point x="952" y="764" type="curve"/>
      <point x="970" y="757"/>
      <point x="994" y="753"/>
      <point x="1019" y="753" type="curve" smooth="yes"/>
      <point x="1082" y="753"/>
      <point x="1106" y="792"/>
      <point x="1106" y="844" type="curve" smooth="yes"/>
      <point x="1106" y="948"/>
      <point x="1008" y="1083"/>
      <point x="809" y="1083" type="curve" smooth="yes"/>
      <point x="637" y="1083"/>
      <point x="457" y="960"/>
      <point x="457" y="683" type="curve" smooth="yes"/>
      <point x="457" y="456"/>
      <point x="574" y="285"/>
      <point x="801" y="285" type="curve" smooth="yes"/>
      <point x="911" y="285"/>
      <point x="1030" y="337"/>
      <point x="1097" y="407" type="curve"/>
      <point x="1087" y="441"/>
      <point x="1058" y="484"/>
      <point x="1026" y="500" type="curve"/>
      <point x="969" y="455"/>
      <point x="893" y="418"/>
      <point x="824" y="418" type="curve" smooth="yes"/>
      <point x="702" y="418"/>
      <point x="628" y="511"/>
      <point x="628" y="683" type="curve" smooth="yes"/>
      <point x="628" y="860"/>
      <point x="695" y="954"/>
      <point x="803" y="954" type="curve" smooth="yes"/>
      <point x="921" y="954"/>
      <point x="958" y="853"/>
    </contour>
  </outline>
</glyph>
<glyph name="ordfeminine" format="2">
  <advance width="840"/>
  <unicode hex="00AA"/>
  <outline>
    <contour>
      <point x="79" y="720" type="curve" smooth="yes"/>
      <point x="79" y="605"/>
      <point x="158" y="490"/>
      <point x="316" y="490" type="curve" smooth="yes"/>
      <point x="455" y="490"/>
      <point x="559" y="587"/>
      <point x="617" y="657" type="curve"/>
      <point x="589" y="781" type="line"/>
      <point x="529" y="679"/>
      <point x="426" y="619"/>
      <point x="351" y="619" type="curve" smooth="yes"/>
      <point x="285" y="619"/>
      <point x="246" y="671"/>
      <point x="246" y="732" type="curve" smooth="yes"/>
      <point x="246" y="810"/>
      <point x="300" y="858"/>
      <point x="387" y="858" type="curve" smooth="yes"/>
      <point x="455" y="858"/>
      <point x="534" y="852"/>
      <point x="595" y="842" type="curve"/>
      <point x="595" y="959" type="line"/>
      <point x="528" y="969"/>
      <point x="446" y="975"/>
      <point x="381" y="975" type="curve" smooth="yes"/>
      <point x="205" y="975"/>
      <point x="79" y="897"/>
    </contour>
    <contour>
      <point x="747" y="583" type="curve"/>
      <point x="706" y="615"/>
      <point x="700" y="662"/>
      <point x="700" y="722" type="curve" smooth="yes"/>
      <point x="700" y="1030" type="line" smooth="yes"/>
      <point x="700" y="1207"/>
      <point x="599" y="1292"/>
      <point x="439" y="1292" type="curve" smooth="yes"/>
      <point x="328" y="1292"/>
      <point x="198" y="1257"/>
      <point x="110" y="1219" type="curve"/>
      <point x="111" y="1172"/>
      <point x="134" y="1125"/>
      <point x="160" y="1099" type="curve"/>
      <point x="247" y="1134"/>
      <point x="327" y="1155"/>
      <point x="413" y="1155" type="curve" smooth="yes"/>
      <point x="484" y="1155"/>
      <point x="534" y="1117"/>
      <point x="534" y="1024" type="curve" smooth="yes"/>
      <point x="534" y="698" type="line" smooth="yes"/>
      <point x="534" y="590"/>
      <point x="582" y="517"/>
      <point x="676" y="497" type="curve"/>
      <point x="710" y="513"/>
      <point x="741" y="553"/>
    </contour>
  </outline>
</glyph>
<glyph name="logicalnot" format="2">
  <advance width="1080"/>
  <unicode hex="00AC"/>
  <outline>
    <contour>
      <point x="114" y="722" type="curve"/>
      <point x="942" y="722" type="line"/>
      <point x="954" y="709" type="line"/>
      <point x="954" y="553" type="line"/>
      <point x="784" y="555" type="line" smooth="yes"/>
      <point x="754" y="555"/>
      <point x="714" y="553"/>
      <point x="684" y="553" type="curve" smooth="yes"/>
      <point x="114" y="553" type="line"/>
      <point x="108" y="578"/>
      <point x="106" y="611"/>
      <point x="106" y="637" type="curve" smooth="yes"/>
      <point x="106" y="665"/>
      <point x="108" y="695"/>
    </contour>
    <contour>
      <point x="776" y="569" type="curve" smooth="yes"/>
      <point x="774" y="629" type="line"/>
      <point x="954" y="629" type="line"/>
      <point x="954" y="268" type="line"/>
      <point x="929" y="262"/>
      <point x="898" y="260"/>
      <point x="866" y="260" type="curve" smooth="yes"/>
      <point x="833" y="260"/>
      <point x="805" y="262"/>
      <point x="774" y="268" type="curve"/>
      <point x="774" y="466" type="line" smooth="yes"/>
      <point x="774" y="496"/>
      <point x="777" y="539"/>
    </contour>
  </outline>
</glyph>
<glyph name="registered" format="2">
  <advance width="1183"/>
  <unicode hex="00AE"/>
  <outline>
    <contour>
      <point x="70" y="964" type="curve" smooth="yes"/>
      <point x="70" y="673"/>
      <point x="299" y="444"/>
      <point x="591" y="444" type="curve" smooth="yes"/>
      <point x="882" y="444"/>
      <point x="1113" y="673"/>
      <point x="1113" y="964" type="curve" smooth="yes"/>
      <point x="1113" y="1256"/>
      <point x="882" y="1487"/>
      <point x="591" y="1487" type="curve" smooth="yes"/>
      <point x="299" y="1487"/>
      <point x="70" y="1256"/>
    </contour>
    <contour>
      <point x="203" y="964" type="curve" smooth="yes"/>
      <point x="203" y="1186"/>
      <point x="369" y="1366"/>
      <point x="591" y="1366" type="curve" smooth="yes"/>
      <point x="813" y="1366"/>
      <point x="981" y="1186"/>
      <point x="981" y="964" type="curve" smooth="yes"/>
      <point x="981" y="743"/>
      <point x="813" y="565"/>
      <point x="591" y="565" type="curve" smooth="yes"/>
      <point x="369" y="565"/>
      <point x="203" y="743"/>
    </contour>
    <contour>
      <point x="794" y="1074" type="curve" smooth="yes"/>
      <point x="794" y="1164"/>
      <point x="733" y="1225"/>
      <point x="603" y="1225" type="curve" smooth="yes"/>
      <point x="544" y="1225"/>
      <point x="468" y="1222"/>
      <point x="404" y="1220" type="curve"/>
      <point x="398" y="1215" type="line"/>
      <point x="398" y="721" type="line"/>
      <point x="415" y="715"/>
      <point x="436" y="713"/>
      <point x="457" y="713" type="curve" smooth="yes"/>
      <point x="478" y="713"/>
      <point x="499" y="715"/>
      <point x="517" y="721" type="curve"/>
      <point x="517" y="1133" type="line"/>
      <point x="536" y="1133"/>
      <point x="572" y="1133"/>
      <point x="597" y="1133" type="curve" smooth="yes"/>
      <point x="649" y="1133"/>
      <point x="672" y="1102"/>
      <point x="672" y="1066" type="curve" smooth="yes"/>
      <point x="672" y="1029"/>
      <point x="648" y="999"/>
      <point x="589" y="999" type="curve" smooth="yes"/>
      <point x="560" y="999"/>
      <point x="497" y="998"/>
      <point x="462" y="997" type="curve"/>
      <point x="462" y="905" type="line"/>
      <point x="564" y="905" type="line" smooth="yes"/>
      <point x="596" y="905"/>
      <point x="613" y="889"/>
      <point x="626" y="865" type="curve" smooth="yes"/>
      <point x="675" y="771" type="line" smooth="yes"/>
      <point x="694" y="733"/>
      <point x="714" y="711"/>
      <point x="749" y="711" type="curve" smooth="yes"/>
      <point x="784" y="711"/>
      <point x="815" y="730"/>
      <point x="830" y="755" type="curve"/>
      <point x="813" y="767"/>
      <point x="799" y="788"/>
      <point x="787" y="810" type="curve" smooth="yes"/>
      <point x="758" y="864" type="line" smooth="yes"/>
      <point x="731" y="913"/>
      <point x="720" y="930"/>
      <point x="692" y="943" type="curve"/>
      <point x="742" y="958"/>
      <point x="794" y="1000"/>
    </contour>
  </outline>
</glyph>
<glyph name="degree" format="2">
  <advance width="734"/>
  <unicode hex="00B0"/>
  <outline>
    <contour>
      <point x="59" y="981" type="curve" smooth="yes"/>
      <point x="59" y="803"/>
      <point x="191" y="671"/>
      <point x="367" y="671" type="curve" smooth="yes"/>
      <point x="543" y="671"/>
      <point x="675" y="803"/>
      <point x="675" y="981" type="curve" smooth="yes"/>
      <point x="675" y="1159"/>
      <point x="543" y="1292"/>
      <point x="367" y="1292" type="curve" smooth="yes"/>
      <point x="191" y="1292"/>
      <point x="59" y="1159"/>
    </contour>
    <contour>
      <point x="210" y="981" type="curve" smooth="yes"/>
      <point x="210" y="1082"/>
      <point x="270" y="1157"/>
      <point x="367" y="1157" type="curve" smooth="yes"/>
      <point x="462" y="1157"/>
      <point x="523" y="1082"/>
      <point x="523" y="981" type="curve" smooth="yes"/>
      <point x="523" y="879"/>
      <point x="462" y="805"/>
      <point x="367" y="805" type="curve" smooth="yes"/>
      <point x="270" y="805"/>
      <point x="210" y="879"/>
    </contour>
  </outline>
</glyph>
<glyph name="plusminus" format="2">
  <advance width="1080"/>
  <unicode hex="00B1"/>
  <outline>
    <contour>
      <point x="145" y="766" type="curve"/>
      <point x="362" y="766" type="line" smooth="yes"/>
      <point x="392" y="766"/>
      <point x="432" y="764"/>
      <point x="461" y="764" type="curve" smooth="yes"/>
      <point x="619" y="764" type="line" smooth="yes"/>
      <point x="648" y="764"/>
      <point x="688" y="766"/>
      <point x="718" y="766" type="curve" smooth="yes"/>
      <point x="935" y="766" type="line"/>
      <point x="941" y="738"/>
      <point x="943" y="718"/>
      <point x="943" y="686" type="curve" smooth="yes"/>
      <point x="943" y="654"/>
      <point x="941" y="631"/>
      <point x="935" y="604" type="curve"/>
      <point x="718" y="604" type="line" smooth="yes"/>
      <point x="688" y="604"/>
      <point x="648" y="606"/>
      <point x="619" y="606" type="curve" smooth="yes"/>
      <point x="461" y="606" type="line" smooth="yes"/>
      <point x="432" y="606"/>
      <point x="392" y="604"/>
      <point x="362" y="604" type="curve" smooth="yes"/>
      <point x="145" y="604" type="line"/>
      <point x="139" y="631"/>
      <point x="137" y="654"/>
      <point x="137" y="686" type="curve" smooth="yes"/>
      <point x="137" y="718"/>
      <point x="139" y="738"/>
    </contour>
    <contour>
      <point x="451" y="858" type="curve" smooth="yes"/>
      <point x="451" y="1078" type="line"/>
      <point x="479" y="1084"/>
      <point x="508" y="1086"/>
      <point x="541" y="1086" type="curve" smooth="yes"/>
      <point x="572" y="1086"/>
      <point x="603" y="1084"/>
      <point x="629" y="1078" type="curve"/>
      <point x="629" y="858" type="line" smooth="yes"/>
      <point x="629" y="828"/>
      <point x="627" y="785"/>
      <point x="627" y="756" type="curve" smooth="yes"/>
      <point x="627" y="614" type="line" smooth="yes"/>
      <point x="627" y="585"/>
      <point x="629" y="543"/>
      <point x="629" y="513" type="curve" smooth="yes"/>
      <point x="629" y="297" type="line"/>
      <point x="603" y="291"/>
      <point x="572" y="289"/>
      <point x="541" y="289" type="curve" smooth="yes"/>
      <point x="508" y="289"/>
      <point x="479" y="291"/>
      <point x="451" y="297" type="curve"/>
      <point x="451" y="513" type="line" smooth="yes"/>
      <point x="451" y="543"/>
      <point x="453" y="585"/>
      <point x="453" y="614" type="curve" smooth="yes"/>
      <point x="453" y="756" type="line" smooth="yes"/>
      <point x="453" y="785"/>
      <point x="451" y="828"/>
    </contour>
    <contour>
      <point x="145" y="0" type="curve"/>
      <point x="935" y="0" type="line"/>
      <point x="941" y="29"/>
      <point x="943" y="51"/>
      <point x="943" y="82" type="curve" smooth="yes"/>
      <point x="943" y="116"/>
      <point x="941" y="134"/>
      <point x="935" y="164" type="curve"/>
      <point x="145" y="164" type="line"/>
      <point x="139" y="134"/>
      <point x="137" y="116"/>
      <point x="137" y="82" type="curve" smooth="yes"/>
      <point x="137" y="51"/>
      <point x="139" y="29"/>
    </contour>
  </outline>
</glyph>
<glyph name="twosuperior" format="2">
  <advance width="835"/>
  <unicode hex="00B2"/>
  <outline>
    <contour>
      <point x="126" y="1294" type="curve"/>
      <point x="146" y="1265"/>
      <point x="209" y="1238"/>
      <point x="252" y="1234" type="curve"/>
      <point x="279" y="1301"/>
      <point x="328" y="1351"/>
      <point x="393" y="1352" type="curve" smooth="yes"/>
      <point x="458" y="1352"/>
      <point x="503" y="1305"/>
      <point x="503" y="1238" type="curve" smooth="yes"/>
      <point x="503" y="1168"/>
      <point x="449" y="1118"/>
      <point x="397" y="1077" type="curve" smooth="yes"/>
      <point x="272" y="981" type="line" smooth="yes"/>
      <point x="184" y="913"/>
      <point x="114" y="821"/>
      <point x="114" y="747" type="curve" smooth="yes"/>
      <point x="114" y="714"/>
      <point x="127" y="689"/>
      <point x="168" y="644" type="curve"/>
      <point x="282" y="644" type="line"/>
      <point x="282" y="743" type="line" smooth="yes"/>
      <point x="282" y="787"/>
      <point x="327" y="836"/>
      <point x="412" y="899" type="curve" smooth="yes"/>
      <point x="509" y="970" type="line" smooth="yes"/>
      <point x="581" y="1022"/>
      <point x="676" y="1105"/>
      <point x="676" y="1240" type="curve" smooth="yes"/>
      <point x="676" y="1383"/>
      <point x="569" y="1496"/>
      <point x="406" y="1496" type="curve" smooth="yes"/>
      <point x="259" y="1496"/>
      <point x="161" y="1404"/>
    </contour>
    <contour>
      <point x="699" y="792" type="curve"/>
      <point x="470" y="792" type="line" smooth="yes"/>
      <point x="366" y="792"/>
      <point x="245" y="782"/>
      <point x="167" y="748" type="curve"/>
      <point x="188" y="644" type="line"/>
      <point x="604" y="644" type="line" smooth="yes"/>
      <point x="665" y="644"/>
      <point x="699" y="668"/>
    </contour>
  </outline>
</glyph>
<glyph name="threesuperior" format="2">
  <advance width="835"/>
  <unicode hex="00B3"/>
  <outline>
    <contour>
      <point x="527" y="912" type="curve" smooth="yes"/>
      <point x="527" y="819"/>
      <point x="463" y="767"/>
      <point x="372" y="767" type="curve" smooth="yes"/>
      <point x="295" y="767"/>
      <point x="229" y="795"/>
      <point x="174" y="832" type="curve"/>
      <point x="144" y="806"/>
      <point x="116" y="761"/>
      <point x="108" y="716" type="curve"/>
      <point x="169" y="668"/>
      <point x="264" y="631"/>
      <point x="379" y="631" type="curve" smooth="yes"/>
      <point x="535" y="631"/>
      <point x="697" y="720"/>
      <point x="697" y="910" type="curve" smooth="yes"/>
      <point x="697" y="1069"/>
      <point x="583" y="1164"/>
      <point x="453" y="1164" type="curve" smooth="yes"/>
      <point x="387" y="1164"/>
      <point x="301" y="1147"/>
      <point x="237" y="1123" type="curve"/>
      <point x="243" y="1084"/>
      <point x="272" y="1046"/>
      <point x="301" y="1033" type="curve"/>
      <point x="326" y="1047"/>
      <point x="358" y="1054"/>
      <point x="387" y="1054" type="curve" smooth="yes"/>
      <point x="461" y="1054"/>
      <point x="527" y="1005"/>
    </contour>
    <contour>
      <point x="518" y="1208" type="curve" smooth="yes"/>
      <point x="627" y="1320" type="line"/>
      <point x="651" y="1341"/>
      <point x="661" y="1361"/>
      <point x="661" y="1388" type="curve" smooth="yes"/>
      <point x="661" y="1417"/>
      <point x="645" y="1455"/>
      <point x="631" y="1482" type="curve"/>
      <point x="152" y="1482" type="line"/>
      <point x="142" y="1457"/>
      <point x="139" y="1428"/>
      <point x="139" y="1407" type="curve" smooth="yes"/>
      <point x="139" y="1389"/>
      <point x="141" y="1367"/>
      <point x="147" y="1343" type="curve"/>
      <point x="310" y="1343" type="line" smooth="yes"/>
      <point x="357" y="1343"/>
      <point x="431" y="1346"/>
      <point x="465" y="1352" type="curve"/>
      <point x="469" y="1347" type="line"/>
      <point x="445" y="1331"/>
      <point x="414" y="1303"/>
      <point x="395" y="1284" type="curve" smooth="yes"/>
      <point x="237" y="1123" type="line"/>
      <point x="329" y="1093" type="line"/>
      <point x="395" y="1119"/>
      <point x="474" y="1166"/>
    </contour>
  </outline>
</glyph>
<glyph name="micro" format="2">
  <advance width="1108"/>
  <unicode hex="00B5"/>
  <outline>
    <contour>
      <point x="229" y="453" type="line"/>
      <point x="351" y="453" type="line"/>
      <point x="351" y="356" type="line" smooth="yes"/>
      <point x="351" y="225"/>
      <point x="426" y="150"/>
      <point x="536" y="150" type="curve" smooth="yes"/>
      <point x="649" y="150"/>
      <point x="739" y="234"/>
      <point x="796" y="356" type="curve"/>
      <point x="804" y="169" type="line"/>
      <point x="747" y="62"/>
      <point x="648" y="-19"/>
      <point x="514" y="-19" type="curve" smooth="yes"/>
      <point x="338" y="-19"/>
      <point x="229" y="127"/>
      <point x="229" y="315" type="curve" smooth="yes"/>
    </contour>
    <contour>
      <point x="944" y="986" type="curve"/>
      <point x="944" y="279" type="line" smooth="yes"/>
      <point x="944" y="200"/>
      <point x="955" y="125"/>
      <point x="1000" y="84" type="curve"/>
      <point x="989" y="49"/>
      <point x="957" y="5"/>
      <point x="924" y="-15" type="curve"/>
      <point x="799" y="14"/>
      <point x="750" y="123"/>
      <point x="750" y="246" type="curve" smooth="yes"/>
      <point x="750" y="986" type="line"/>
      <point x="777" y="991"/>
      <point x="812" y="994"/>
      <point x="846" y="994" type="curve" smooth="yes"/>
      <point x="882" y="994"/>
      <point x="917" y="991"/>
    </contour>
    <contour>
      <point x="351" y="986" type="curve"/>
      <point x="351" y="157" type="line"/>
      <point x="342" y="157" type="line"/>
      <point x="342" y="-307" type="line" smooth="yes"/>
      <point x="342" y="-388"/>
      <point x="325" y="-437"/>
      <point x="248" y="-437" type="curve" smooth="yes"/>
      <point x="202" y="-437"/>
      <point x="160" y="-423"/>
      <point x="129" y="-398" type="curve"/>
      <point x="155" y="-349"/>
      <point x="160" y="-277"/>
      <point x="160" y="-218" type="curve" smooth="yes"/>
      <point x="160" y="986" type="line"/>
      <point x="186" y="991"/>
      <point x="220" y="994"/>
      <point x="255" y="994" type="curve" smooth="yes"/>
      <point x="290" y="994"/>
      <point x="324" y="991"/>
    </contour>
  </outline>
</glyph>
<glyph name="paragraph" format="2">
  <advance width="1323"/>
  <unicode hex="00B6"/>
  <outline>
    <contour>
      <point x="576" y="119" type="curve" smooth="yes"/>
      <point x="576" y="506" type="line"/>
      <point x="537" y="506" type="line" smooth="yes"/>
      <point x="278" y="506"/>
      <point x="88" y="654"/>
      <point x="88" y="943" type="curve" smooth="yes"/>
      <point x="88" y="1238"/>
      <point x="280" y="1375"/>
      <point x="543" y="1375" type="curve" smooth="yes"/>
      <point x="624" y="1375"/>
      <point x="677" y="1372"/>
      <point x="761" y="1368" type="curve"/>
      <point x="774" y="1355" type="line"/>
      <point x="774" y="151" type="line" smooth="yes"/>
      <point x="774" y="-143"/>
      <point x="691" y="-310"/>
      <point x="401" y="-310" type="curve" smooth="yes"/>
      <point x="306" y="-310"/>
      <point x="200" y="-285"/>
      <point x="144" y="-263" type="curve"/>
      <point x="143" y="-219"/>
      <point x="164" y="-150"/>
      <point x="193" y="-113" type="curve"/>
      <point x="245" y="-134"/>
      <point x="321" y="-155"/>
      <point x="383" y="-155" type="curve" smooth="yes"/>
      <point x="544" y="-155"/>
      <point x="576" y="-60"/>
    </contour>
    <contour>
      <point x="905" y="1353" type="line"/>
      <point x="905" y="-266" type="line"/>
      <point x="934" y="-272"/>
      <point x="974" y="-274"/>
      <point x="1004" y="-274" type="curve" smooth="yes"/>
      <point x="1037" y="-274"/>
      <point x="1073" y="-272"/>
      <point x="1104" y="-266" type="curve"/>
      <point x="1104" y="1366" type="line"/>
      <point x="918" y="1366" type="line"/>
    </contour>
    <contour>
      <point x="1007" y="1366" type="line"/>
      <point x="1007" y="1197" type="line"/>
      <point x="1074" y="1197" type="line" smooth="yes"/>
      <point x="1105" y="1197"/>
      <point x="1144" y="1194"/>
      <point x="1182" y="1194" type="curve" smooth="yes"/>
      <point x="1265" y="1194" type="line"/>
      <point x="1277" y="1233"/>
      <point x="1277" y="1327"/>
      <point x="1265" y="1366" type="curve"/>
    </contour>
  </outline>
</glyph>
<glyph name="onesuperior" format="2">
  <advance width="835"/>
  <unicode hex="00B9"/>
  <outline>
    <contour>
      <point x="541" y="713" type="line"/>
      <point x="541" y="1480" type="line"/>
      <point x="509" y="1487"/>
      <point x="489" y="1489"/>
      <point x="465" y="1489" type="curve" smooth="yes"/>
      <point x="440" y="1489"/>
      <point x="412" y="1487"/>
      <point x="385" y="1480" type="curve"/>
      <point x="386" y="1304" type="line" smooth="yes"/>
      <point x="386" y="1245"/>
      <point x="378" y="1164"/>
      <point x="378" y="1119" type="curve" smooth="yes"/>
      <point x="378" y="713" type="line"/>
    </contour>
    <contour>
      <point x="283" y="782" type="curve" smooth="yes"/>
      <point x="175" y="782" type="line"/>
      <point x="170" y="761"/>
      <point x="168" y="735"/>
      <point x="168" y="713" type="curve" smooth="yes"/>
      <point x="168" y="691"/>
      <point x="170" y="669"/>
      <point x="175" y="644" type="curve"/>
      <point x="704" y="644" type="line"/>
      <point x="710" y="668"/>
      <point x="713" y="692"/>
      <point x="713" y="713" type="curve" smooth="yes"/>
      <point x="713" y="737"/>
      <point x="710" y="761"/>
      <point x="704" y="782" type="curve"/>
      <point x="639" y="782" type="line" smooth="yes"/>
      <point x="617" y="782"/>
      <point x="562" y="781"/>
      <point x="541" y="781" type="curve" smooth="yes"/>
      <point x="378" y="781" type="line" smooth="yes"/>
      <point x="355" y="781"/>
      <point x="306" y="782"/>
    </contour>
    <contour>
      <point x="124" y="1209" type="curve"/>
      <point x="131" y="1168"/>
      <point x="159" y="1122"/>
      <point x="196" y="1104" type="curve"/>
      <point x="320" y="1160"/>
      <point x="409" y="1240"/>
      <point x="445" y="1361" type="curve"/>
      <point x="385" y="1480" type="line"/>
      <point x="334" y="1370"/>
      <point x="262" y="1289"/>
    </contour>
  </outline>
</glyph>
<glyph name="ordmasculine" format="2">
  <advance width="815"/>
  <unicode hex="00BA"/>
  <outline>
    <contour>
      <point x="745" y="892" type="curve" smooth="yes"/>
      <point x="745" y="1013"/>
      <point x="713" y="1125"/>
      <point x="633" y="1210" type="curve" smooth="yes"/>
      <point x="579" y="1266"/>
      <point x="497" y="1292"/>
      <point x="407" y="1292" type="curve" smooth="yes"/>
      <point x="317" y="1292"/>
      <point x="238" y="1263"/>
      <point x="182" y="1210" type="curve" smooth="yes"/>
      <point x="98" y="1130"/>
      <point x="70" y="1013"/>
      <point x="70" y="892" type="curve" smooth="yes"/>
      <point x="70" y="767"/>
      <point x="101" y="654"/>
      <point x="182" y="571" type="curve" smooth="yes"/>
      <point x="236" y="516"/>
      <point x="317" y="489"/>
      <point x="407" y="489" type="curve" smooth="yes"/>
      <point x="497" y="489"/>
      <point x="577" y="518"/>
      <point x="633" y="571" type="curve" smooth="yes"/>
      <point x="717" y="651"/>
      <point x="745" y="767"/>
    </contour>
    <contour>
      <point x="240" y="892" type="curve" smooth="yes"/>
      <point x="240" y="1034"/>
      <point x="282" y="1160"/>
      <point x="408" y="1160" type="curve" smooth="yes"/>
      <point x="533" y="1160"/>
      <point x="575" y="1034"/>
      <point x="575" y="892" type="curve" smooth="yes"/>
      <point x="575" y="748"/>
      <point x="533" y="622"/>
      <point x="408" y="622" type="curve" smooth="yes"/>
      <point x="282" y="622"/>
      <point x="240" y="748"/>
    </contour>
  </outline>
</glyph>
<glyph name="Aring" format="2">
  <advance width="1217"/>
  <unicode hex="00C5"/>
  <anchor x="610" y="0" name="bottom"/>
  <anchor x="1174" y="12" name="ogonek"/>
  <anchor x="610" y="1821" name="top"/>
  <outline>
    <contour>
      <point x="497" y="1371" type="line"/>
      <point x="42" y="13" type="line"/>
      <point x="49" y="4" type="line"/>
      <point x="75" y="-5"/>
      <point x="110" y="-10"/>
      <point x="145" y="-10" type="curve" smooth="yes"/>
      <point x="176" y="-10"/>
      <point x="207" y="-8"/>
      <point x="232" y="-2" type="curve"/>
      <point x="517" y="888" type="line" smooth="yes"/>
      <point x="538" y="956"/>
      <point x="573" y="1078"/>
      <point x="593" y="1166" type="curve"/>
      <point x="603" y="1166" type="line"/>
      <point x="630" y="1064"/>
      <point x="671" y="926"/>
      <point x="708" y="810" type="curve" smooth="yes"/>
      <point x="938" y="92" type="line" smooth="yes"/>
      <point x="963" y="9"/>
      <point x="993" y="-14"/>
      <point x="1057" y="-14" type="curve" smooth="yes"/>
      <point x="1100" y="-14"/>
      <point x="1145" y="-5"/>
      <point x="1174" y="12" type="curve"/>
      <point x="721" y="1371" type="line"/>
    </contour>
    <contour>
      <point x="462" y="335" type="curve" smooth="yes"/>
      <point x="735" y="335" type="line" smooth="yes"/>
      <point x="752" y="335"/>
      <point x="856" y="337"/>
      <point x="874" y="337" type="curve" smooth="yes"/>
      <point x="964" y="337" type="line"/>
      <point x="910" y="501" type="line"/>
      <point x="829" y="501" type="line" smooth="yes"/>
      <point x="810" y="501"/>
      <point x="721" y="503"/>
      <point x="704" y="503" type="curve" smooth="yes"/>
      <point x="498" y="503" type="line" smooth="yes"/>
      <point x="481" y="503"/>
      <point x="394" y="501"/>
      <point x="376" y="501" type="curve" smooth="yes"/>
      <point x="296" y="501" type="line"/>
      <point x="234" y="337" type="line"/>
      <point x="324" y="337" type="line" smooth="yes"/>
      <point x="343" y="337"/>
      <point x="445" y="335"/>
    </contour>
    <contour>
      <point x="373" y="1560" type="curve" smooth="yes"/>
      <point x="373" y="1437"/>
      <point x="471" y="1336"/>
      <point x="610" y="1336" type="curve" smooth="yes"/>
      <point x="749" y="1336"/>
      <point x="847" y="1437"/>
      <point x="847" y="1560" type="curve" smooth="yes"/>
      <point x="847" y="1682"/>
      <point x="749" y="1783"/>
      <point x="610" y="1783" type="curve" smooth="yes"/>
      <point x="471" y="1783"/>
      <point x="373" y="1682"/>
    </contour>
    <contour>
      <point x="509" y="1560" type="curve" smooth="yes"/>
      <point x="509" y="1623"/>
      <point x="551" y="1669"/>
      <point x="610" y="1669" type="curve" smooth="yes"/>
      <point x="668" y="1669"/>
      <point x="711" y="1623"/>
      <point x="711" y="1560" type="curve" smooth="yes"/>
      <point x="711" y="1496"/>
      <point x="668" y="1450"/>
      <point x="610" y="1450" type="curve" smooth="yes"/>
      <point x="551" y="1450"/>
      <point x="509" y="1496"/>
    </contour>
  </outline>
</glyph>
